<?xml version="1.0" encoding="UTF-8" standalone="no"?>
<svg
   xmlns="http://www.w3.org/2000/svg"
   xmlns:xlink="http://www.w3.org/1999/xlink"
   version="1.1"
   width="1920" height="1080"
   viewBox="0 0 1920 1080"
   id="background">

  <rect id="back_border" 
     x="0" y="0" width="1920" height="1080" fill="black" />
  <rect id="back"
     x="3" y="3" width="1914" height="1074" fill="white" />

  <rect id="screen_shadow"
     x="33" y="180"  width="1286" height="726" fill="grey" rx="3" ry="3" />
  <rect id="screen_border"
     x="30" y="177"  width="1286" height="726" fill="black" rx="3" ry="3" />
  <!-- <rect id="screen"
     x="33" y="180" width="1280" height="720" fill="lime" /> -->
  <image id="logo_kalicustomer"
     x="238" y="963" width="200" height="60" xlink:href="./logos/kalicustomer.png" />
  <image id="logo_axa"
     x="643" y="963" width="60" height="60" xlink:href="./logos/axa.svg" />
  <image id="logo_zenika"
     x="924" y="963" width="189" height="60" xlink:href="./logos/zenika.png" />

  <image id="logo_chtijug"
     x="1533" y="10" width="160" height="160" xlink:href="./logos/chtijug.png" />
  <rect id="speaker_shadow"
     x="1343" y="180" width="546" height="726" fill="grey" rx="3" ry="3" />
  <rect id="speaker_border"
     x="1340" y="177" width="546" height="726" fill="black" rx="3" ry="3" />
  <!-- <rect id="speaker"
     x="1343" y="180" width="540" height="720" fill="cyan"/> -->
  <text id="twitter_chtijug"
     x="1610"
     y="1004"
     text-anchor="middle"
     font-family="DejaVu Sans"
     font-size="40">
     @chtijug
  </text>

</svg>
