<svg id="Calque_1" data-name="Calque 1" xmlns="http://www.w3.org/2000/svg" viewBox="0 0 368.11 369.49"><defs><style>.cls-1{fill:#e12730;}.cls-10,.cls-2,.cls-4{fill:#fff;}.cls-3{fill:#ffdb2e;}.cls-4,.cls-6{stroke:#231f20;}.cls-4,.cls-6,.cls-7{stroke-miterlimit:10;}.cls-4{stroke-width:2.36px;}.cls-10,.cls-13,.cls-14,.cls-4,.cls-5,.cls-6,.cls-7,.cls-8,.cls-9{fill-rule:evenodd;}.cls-5{fill:#466ba8;}.cls-15,.cls-6,.cls-7{fill:none;}.cls-6{stroke-width:5.51px;}.cls-7{stroke:#fbc632;stroke-width:0.79px;}.cls-12,.cls-8{fill:#fbc632;}.cls-16,.cls-9{fill:#231f20;}.cls-11{fill:#dae6ee;}.cls-13{fill:#3b6eaa;}.cls-14{fill:#ea7531;}</style></defs><title>chtijug</title><path class="cls-1" d="M559.48,538.75,538.6,494.11c-.64-1.36-1-2-1.59-3.41-3,.94-4.42,1.43-7.36,2.45l-2.35-5.65c-2,.53-3,.81-4.94,1.39-1.36-2.2-2.05-3.3-3.42-5.49-2.32,1.22-3.47,1.85-5.77,3.13,1.29,2.7,1.94,4.05,3.24,6.75-2.11,1.49-3.15,2.25-5.22,3.78l2.92,5c-1.74,1.49-2.59,2.25-4.29,3.78l2.49,4.08,25,40.8" transform="translate(-454.19 -327.27)"/><path class="cls-1" d="M524.52,522.09c-2-2.76-3.06-4.15-5.11-6.9,1.76-1.05,2.64-1.57,4.41-2.59,1.79,2.76,2.68,4.15,4.45,6.91C526.77,520.53,526,521.05,524.52,522.09Z" transform="translate(-454.19 -327.27)"/><path class="cls-1" d="M521.93,513.8c1.86,2.84,2.79,4.26,4.63,7.1" transform="translate(-454.19 -327.27)"/><path class="cls-1" d="M522.29,518.31c1.41-.88,2.12-1.31,3.54-2.17" transform="translate(-454.19 -327.27)"/><path class="cls-1" d="M532.68,517.05l-4.22-7.33c1.78-1,2.67-1.52,4.47-2.51,1.44,3,2.15,4.44,3.59,7.39C535,515.57,534.21,516.06,532.68,517.05Z" transform="translate(-454.19 -327.27)"/><path class="cls-1" d="M531,508.49l3.75,7.6" transform="translate(-454.19 -327.27)"/><path class="cls-1" d="M530.67,513.22c1.63-.81,2.45-1.21,4.09-2" transform="translate(-454.19 -327.27)"/><path class="cls-1" d="M540.72,512.68l-3.48-7.45c1.83-.89,2.75-1.32,4.59-2.16,1.19,3.07,1.78,4.6,3,7.66C543.17,511.49,542.35,511.88,540.72,512.68Z" transform="translate(-454.19 -327.27)"/><path class="cls-1" d="M539.7,504c1.24,3.15,1.86,4.73,3.12,7.88" transform="translate(-454.19 -327.27)"/><path class="cls-1" d="M539,508.7c1.67-.7,2.51-1,4.19-1.71" transform="translate(-454.19 -327.27)"/><path class="cls-1" d="M544.27,525.4c-1.1-2.58-1.64-3.86-2.73-6.44,1.59-.67,2.39-1,4-1.65.91,2.64,1.37,4,2.29,6.58C546.39,524.48,545.69,524.78,544.27,525.4Z" transform="translate(-454.19 -327.27)"/><path class="cls-1" d="M543.81,518.1c1,2.64,1.51,3.95,2.53,6.58" transform="translate(-454.19 -327.27)"/><path class="cls-1" d="M542.87,522c1.6-.64,2.4-1,4-1.57" transform="translate(-454.19 -327.27)"/><path class="cls-1" d="M534.82,530.76c-1.63-2.29-2.44-3.43-4.09-5.7,1.5-.86,2.26-1.29,3.77-2.12l3.55,5.69C536.75,529.47,536.11,529.9,534.82,530.76Z" transform="translate(-454.19 -327.27)"/><path class="cls-1" d="M532.79,523.83c1.59,2.34,2.38,3.5,4,5.84" transform="translate(-454.19 -327.27)"/><path class="cls-1" d="M532.69,527.76c1.46-.93,2.2-1.38,3.67-2.28" transform="translate(-454.19 -327.27)"/><path class="cls-1" d="M584.38,528.85l-12.93-39.14c-.47-1.43-.7-2.15-1.18-3.58-2.92.55-4.39.84-7.32,1.47-.67-2.36-1-3.53-1.67-5.89-2,.27-2.93.42-4.89.73-1.09-2.35-1.63-3.52-2.73-5.86-2.35.9-3.53,1.37-5.87,2.33,1,2.83,1.45,4.25,2.43,7.08-2.17,1.19-3.25,1.8-5.4,3l2.31,5.28c-1.82,1.24-2.72,1.87-4.5,3.15.79,1.74,1.19,2.61,2,4.35q8.28,18.07,16.55,36.16" transform="translate(-454.19 -327.27)"/><path class="cls-1" d="M555.12,515.44c-1.67-3-2.52-4.49-4.22-7.48,1.79-.8,2.69-1.19,4.5-1.95,1.43,3,2.15,4.43,3.58,7.4C557.43,514.21,556.66,514.62,555.12,515.44Z" transform="translate(-454.19 -327.27)"/><path class="cls-1" d="M553.46,506.94c1.5,3,2.25,4.56,3.74,7.6" transform="translate(-454.19 -327.27)"/><path class="cls-1" d="M553.35,511.42c1.45-.68,2.17-1,3.62-1.66" transform="translate(-454.19 -327.27)"/><path class="cls-1" d="M563.44,511.56c-1.32-3.11-2-4.67-3.31-7.78,1.81-.77,2.72-1.14,4.55-1.88,1.07,3.1,1.61,4.66,2.69,7.76C565.79,510.41,565,510.79,563.44,511.56Z" transform="translate(-454.19 -327.27)"/><path class="cls-1" d="M562.68,502.9c1.12,3.2,1.69,4.79,2.82,8" transform="translate(-454.19 -327.27)"/><path class="cls-1" d="M561.9,507.53c1.64-.59,2.47-.88,4.12-1.43" transform="translate(-454.19 -327.27)"/><path class="cls-1" d="M571.59,508.31c-1-3.12-1.55-4.68-2.58-7.81,1.85-.63,2.77-.94,4.63-1.53.82,3.18,1.23,4.77,2.07,7.95C574.06,507.46,573.23,507.74,571.59,508.31Z" transform="translate(-454.19 -327.27)"/><path class="cls-1" d="M571.49,499.59c.87,3.28,1.31,4.91,2.2,8.19" transform="translate(-454.19 -327.27)"/><path class="cls-1" d="M570.37,504.17c1.67-.48,2.51-.7,4.2-1.15" transform="translate(-454.19 -327.27)"/><path class="cls-1" d="M573.71,521.32c-.79-2.68-1.19-4-2-6.7,1.59-.46,2.39-.68,4-1.11.61,2.72.91,4.08,1.53,6.8C575.83,520.7,575.13,520.91,573.71,521.32Z" transform="translate(-454.19 -327.27)"/><path class="cls-1" d="M574,514.07c.7,2.73,1,4.09,1.77,6.82" transform="translate(-454.19 -327.27)"/><path class="cls-1" d="M572.71,517.79c1.59-.43,2.39-.63,4-1" transform="translate(-454.19 -327.27)"/><path class="cls-1" d="M564.13,525.35c-1.33-2.46-2-3.7-3.35-6.16,1.52-.64,2.29-1,3.82-1.58,1.14,2.43,1.7,3.64,2.83,6.08C566.11,524.34,565.45,524.68,564.13,525.35Z" transform="translate(-454.19 -327.27)"/><path class="cls-1" d="M562.87,518.26c1.29,2.51,1.93,3.77,3.21,6.28" transform="translate(-454.19 -327.27)"/><path class="cls-1" d="M562.39,522.11c1.49-.71,2.24-1.06,3.74-1.75" transform="translate(-454.19 -327.27)"/><path class="cls-1" d="M612.56,521.91l-7-36.52c-.29-1.48-.43-2.22-.72-3.7-3.15.2-4.73.32-7.89.61l-.9-6.05c-2.09.05-3.14.08-5.24.18-.79-2.47-1.19-3.7-2-6.15-2.6.64-3.9,1-6.49,1.68.6,2.93.9,4.4,1.51,7.33-2.44,1-3.66,1.45-6.08,2.46l1.65,5.52c-2.08,1.05-3.11,1.58-5.16,2.68l1.46,4.55,10.89,34" transform="translate(-454.19 -327.27)"/><path class="cls-1" d="M584.89,509.94c-1.29-3.18-1.95-4.77-3.26-7.94,1.82-.56,2.73-.84,4.56-1.36,1.07,3.11,1.6,4.66,2.65,7.78C587.26,509,586.47,509.32,584.89,509.94Z" transform="translate(-454.19 -327.27)"/><path class="cls-1" d="M584.22,501.31c1.12,3.2,1.67,4.8,2.78,8" transform="translate(-454.19 -327.27)"/><path class="cls-1" d="M583.62,505.73c1.47-.48,2.21-.72,3.68-1.18" transform="translate(-454.19 -327.27)"/><path class="cls-1" d="M593.37,507.16,591,499c1.84-.54,2.76-.8,4.61-1.29l1.75,8C595.77,506.31,595,506.59,593.37,507.16Z" transform="translate(-454.19 -327.27)"/><path class="cls-1" d="M593.58,498.49c.74,3.3,1.11,5,1.86,8.26" transform="translate(-454.19 -327.27)"/><path class="cls-1" d="M592.32,503l4.15-.9" transform="translate(-454.19 -327.27)"/><path class="cls-1" d="M601.62,505c-.66-3.23-1-4.84-1.63-8.06,1.86-.4,2.79-.58,4.65-.94.44,3.26.66,4.88,1.12,8.14C604.1,504.44,603.27,504.61,601.62,505Z" transform="translate(-454.19 -327.27)"/><path class="cls-1" d="M602.5,496.32c.47,3.35.71,5,1.21,8.38" transform="translate(-454.19 -327.27)"/><path class="cls-1" d="M600.89,500.71c1.68-.26,2.52-.38,4.2-.61" transform="translate(-454.19 -327.27)"/><path class="cls-1" d="M602.22,518.13c-.47-2.76-.7-4.14-1.16-6.89,1.59-.26,2.39-.38,4-.6.28,2.77.42,4.16.72,6.92C604.34,517.78,603.64,517.89,602.22,518.13Z" transform="translate(-454.19 -327.27)"/><path class="cls-1" d="M603.31,511c.37,2.8.56,4.19,1,7" transform="translate(-454.19 -327.27)"/><path class="cls-1" d="M601.64,514.5c1.59-.22,2.39-.32,4-.51" transform="translate(-454.19 -327.27)"/><path class="cls-1" d="M592.52,520.9c-1-2.61-1.53-3.92-2.57-6.53,1.55-.44,2.32-.66,3.87-1.08.83,2.55,1.25,3.83,2.07,6.38C594.54,520.15,593.86,520.4,592.52,520.9Z" transform="translate(-454.19 -327.27)"/><path class="cls-1" d="M592.08,513.72c1,2.65,1.45,4,2.41,6.62" transform="translate(-454.19 -327.27)"/><path class="cls-1" d="M591.19,517.47c1.52-.52,2.28-.77,3.81-1.26" transform="translate(-454.19 -327.27)"/><path class="cls-1" d="M697.5,521.37q4.11-21.69,8.21-43.4l-2.38-.43,1.07-3.63c-1.94-.9-2.92-1.34-4.88-2.21.57-1.43.86-2.15,1.45-3.57-2.19-.77-3.28-1.15-5.49-1.87.36-1.33.54-2,.91-3.33-1.88-.68-2.83-1-4.72-1.67,0-1.51,0-2.27,0-3.79-2.52-.31-3.78-.45-6.29-.7-.37,1.88-.55,2.83-.92,4.72-2.5,0-3.74.05-6.24.13-.09,1.23-.14,1.84-.23,3.07-1.78.27-2.66.41-4.43.72.06,1.92.09,2.88.14,4.8-2.07.15-3.1.23-5.16.41.11,1.37.17,2.06.27,3.43-1.16.8-1.74,1.2-2.89,2q-.82,20.78-1.64,41.54" transform="translate(-454.19 -327.27)"/><path class="cls-1" d="M675.08,487.1c-.08-3.43-.12-5.15-.22-8.58,2,.14,3,.21,5,.39-.12,3.29-.18,4.93-.32,8.21C677.74,487.1,676.85,487.1,675.08,487.1Z" transform="translate(-454.19 -327.27)"/><path class="cls-1" d="M677.65,478.82c-.1,3.38-.15,5.08-.27,8.47" transform="translate(-454.19 -327.27)"/><path class="cls-1" d="M675.41,482.72c1.62.08,2.43.13,4.05.24" transform="translate(-454.19 -327.27)"/><path class="cls-1" d="M684.44,487.61c.3-3.37.44-5.05.73-8.42,2,.18,3,.27,5,.49-.52,3.24-.77,4.87-1.28,8.11C687.12,487.71,686.23,487.67,684.44,487.61Z" transform="translate(-454.19 -327.27)"/><path class="cls-1" d="M687.9,479.61c-.51,3.35-.77,5-1.27,8.38" transform="translate(-454.19 -327.27)"/><path class="cls-1" d="M685,483.32c1.77.27,2.65.4,4.41.69" transform="translate(-454.19 -327.27)"/><path class="cls-1" d="M693.39,488.6c.55-3.24.84-4.86,1.4-8.1,2,.32,3,.49,4.94.84-.78,3.2-1.17,4.8-1.93,8C696,489,695.15,488.88,693.39,488.6Z" transform="translate(-454.19 -327.27)"/><path class="cls-1" d="M697.48,480.88c-.78,3.3-1.17,4.95-1.93,8.25" transform="translate(-454.19 -327.27)"/><path class="cls-1" d="M694.26,484.37c1.75.38,2.63.58,4.37,1" transform="translate(-454.19 -327.27)"/><path class="cls-1" d="M689.07,501.08c.56-2.74.85-4.11,1.43-6.85,1.66.36,2.49.54,4.15.92-.76,2.68-1.13,4-1.87,6.71C691.3,501.53,690.56,501.38,689.07,501.08Z" transform="translate(-454.19 -327.27)"/><path class="cls-1" d="M692.82,494.82c-.68,2.74-1,4.11-1.68,6.85" transform="translate(-454.19 -327.27)"/><path class="cls-1" d="M689.85,497.48c1.66.39,2.48.59,4.12,1" transform="translate(-454.19 -327.27)"/><path class="cls-1" d="M678.45,500.09c0-2.8,0-4.2-.07-7,1.68.15,2.53.23,4.21.41l-.35,6.7C680.72,500.14,680,500.12,678.45,500.09Z" transform="translate(-454.19 -327.27)"/><path class="cls-1" d="M680.71,493.25c0,2.82-.05,4.23-.1,7.05" transform="translate(-454.19 -327.27)"/><path class="cls-1" d="M678.43,496.41c1.69.08,2.54.12,4.23.23" transform="translate(-454.19 -327.27)"/><path class="cls-1" d="M723.43,527.89l14.81-47c.45-1.43.68-2.15,1.13-3.59-2.8-1.3-4.21-1.94-7-3.17.84-2.3,1.25-3.45,2.09-5.75-1.8-.94-2.71-1.4-4.54-2.31.49-2.54.72-3.81,1.2-6.35-2.51-.66-3.77-1-6.3-1.58-.87,2.86-1.31,4.29-2.17,7.16-2.53-.32-3.79-.47-6.31-.73-.48,2.25-.73,3.38-1.21,5.63-2.25-.06-3.37-.08-5.61-.1l-.93,4.7-9.27,46.92" transform="translate(-454.19 -327.27)"/><path class="cls-1" d="M709.18,492c.38-3.42.57-5.13.93-8.54,2,.4,2.95.62,4.91,1.06-.56,3.24-.84,4.86-1.41,8.1C711.84,492.39,711,492.26,709.18,492Z" transform="translate(-454.19 -327.27)"/><path class="cls-1" d="M712.85,484.16c-.55,3.35-.83,5-1.4,8.36" transform="translate(-454.19 -327.27)"/><path class="cls-1" d="M710.1,487.73c1.6.3,2.4.46,4,.78" transform="translate(-454.19 -327.27)"/><path class="cls-1" d="M718.46,493.8l1.85-8.25c2,.45,3,.68,5,1.17-1,3.15-1.42,4.72-2.36,7.87C721.12,494.26,720.23,494.1,718.46,493.8Z" transform="translate(-454.19 -327.27)"/><path class="cls-1" d="M723,486.34l-2.38,8.13" transform="translate(-454.19 -327.27)"/><path class="cls-1" d="M719.56,489.62c1.74.5,2.6.76,4.32,1.29" transform="translate(-454.19 -327.27)"/><path class="cls-1" d="M727.27,496c1-3.13,1.48-4.7,2.47-7.84,1.93.59,2.9.89,4.82,1.51-1.2,3.06-1.79,4.6-3,7.66C729.86,496.78,729,496.52,727.27,496Z" transform="translate(-454.19 -327.27)"/><path class="cls-1" d="M732.38,488.9c-1.22,3.17-1.82,4.75-3,7.92" transform="translate(-454.19 -327.27)"/><path class="cls-1" d="M728.7,491.93c1.7.61,2.55.93,4.23,1.57" transform="translate(-454.19 -327.27)"/><path class="cls-1" d="M721.29,507.78c.93-2.64,1.4-4,2.34-6.59,1.61.57,2.42.87,4,1.47-1.12,2.56-1.67,3.84-2.76,6.4C723.46,508.53,722.74,508.28,721.29,507.78Z" transform="translate(-454.19 -327.27)"/><path class="cls-1" d="M725.87,502.08c-1,2.63-1.56,3.94-2.58,6.57" transform="translate(-454.19 -327.27)"/><path class="cls-1" d="M722.55,504.32c1.6.61,2.4.92,4,1.55" transform="translate(-454.19 -327.27)"/><path class="cls-1" d="M710.82,505.36c.35-2.78.52-4.18.86-7,1.66.37,2.49.57,4.15,1-.49,2.64-.74,4-1.24,6.59C713.08,505.71,712.33,505.59,710.82,505.36Z" transform="translate(-454.19 -327.27)"/><path class="cls-1" d="M714,498.88c-.42,2.79-.62,4.19-1,7" transform="translate(-454.19 -327.27)"/><path class="cls-1" d="M711.29,501.71c1.67.3,2.51.46,4.19.79" transform="translate(-454.19 -327.27)"/><path class="cls-1" d="M748.73,537.56q8.49-18.78,17-37.55l1.55-3.43c-2.58-1.61-3.88-2.4-6.51-3.94,1.1-2.19,1.66-3.28,2.76-5.46-1.65-1.14-2.48-1.7-4.16-2.81.79-2.46,1.18-3.69,2-6.16-2.38-.94-3.58-1.4-6-2.28-1.21,2.74-1.81,4.11-3,6.85-2.43-.6-3.64-.88-6.07-1.43l-1.87,5.45c-2.19-.31-3.28-.46-5.46-.73l-1.48,4.55q-6.13,18.93-12.26,37.84" transform="translate(-454.19 -327.27)"/><path class="cls-1" d="M736,507.78c.79-3.34,1.18-5,2-8.36,1.87.62,2.8.94,4.66,1.6-1,3.15-1.42,4.73-2.37,7.87C738.54,508.43,737.69,508.21,736,507.78Z" transform="translate(-454.19 -327.27)"/><path class="cls-1" d="M740.53,500.39c-.95,3.26-1.43,4.88-2.39,8.13" transform="translate(-454.19 -327.27)"/><path class="cls-1" d="M737.41,503.62c1.53.48,2.29.73,3.81,1.23" transform="translate(-454.19 -327.27)"/><path class="cls-1" d="M744.8,510.57c1.14-3.18,1.7-4.78,2.82-8,1.88.67,2.82,1,4.69,1.72-1.31,3-2,4.52-3.27,7.53C747.35,511.33,746.5,511.07,744.8,510.57Z" transform="translate(-454.19 -327.27)"/><path class="cls-1" d="M750.13,503.69l-3.33,7.79" transform="translate(-454.19 -327.27)"/><path class="cls-1" d="M746.4,506.56c1.63.69,2.44,1,4.05,1.76" transform="translate(-454.19 -327.27)"/><path class="cls-1" d="M753.12,513.74c1.35-3,2-4.49,3.39-7.49,1.82.8,2.72,1.21,4.53,2-1.56,2.9-2.33,4.35-3.87,7.25Z" transform="translate(-454.19 -327.27)"/><path class="cls-1" d="M759,507.28c-1.58,3-2.37,4.5-3.94,7.51" transform="translate(-454.19 -327.27)"/><path class="cls-1" d="M755,509.86c1.58.8,2.37,1.21,3.94,2" transform="translate(-454.19 -327.27)"/><path class="cls-1" d="M745.84,524.74c1.23-2.51,1.85-3.76,3.09-6.26,1.51.75,2.26,1.13,3.75,1.9l-3.49,6C747.85,525.73,747.18,525.4,745.84,524.74Z" transform="translate(-454.19 -327.27)"/><path class="cls-1" d="M751,519.61c-1.34,2.48-2,3.73-3.33,6.22" transform="translate(-454.19 -327.27)"/><path class="cls-1" d="M747.5,521.46c1.48.78,2.22,1.17,3.69,2" transform="translate(-454.19 -327.27)"/><path class="cls-1" d="M736,521.18c.68-2.72,1-4.08,1.69-6.8,1.57.56,2.35.84,3.92,1.43-.81,2.55-1.21,3.83-2,6.39C738.1,521.78,737.38,521.58,736,521.18Z" transform="translate(-454.19 -327.27)"/><path class="cls-1" d="M739.83,515.11c-.75,2.72-1.12,4.08-1.88,6.8" transform="translate(-454.19 -327.27)"/><path class="cls-1" d="M736.85,517.62c1.59.48,2.39.73,4,1.25" transform="translate(-454.19 -327.27)"/><path class="cls-1" d="M663.21,517.56l1.59-46c.08-2.45.12-3.67.21-6.11-2.11-.47-3.17-.7-5.29-1.14-.15-2.58-.22-3.87-.37-6.45-2.5,0-3.75,0-6.24,0-.15,3-.22,4.49-.36,7.48-2.46.3-3.7.47-6.15.83.07,2.3.11,3.45.18,5.75q.72,22.8,1.45,45.58" transform="translate(-454.19 -327.27)"/><path class="cls-1" d="M654.17,494.41c-.34-3.42-.52-5.13-.89-8.54,1.94,0,2.9,0,4.84,0,.14,3.28.2,4.92.33,8.21C656.74,494.19,655.88,494.26,654.17,494.41Z" transform="translate(-454.19 -327.27)"/><path class="cls-1" d="M656,485.94c.17,3.38.25,5.08.4,8.46" transform="translate(-454.19 -327.27)"/><path class="cls-1" d="M654.15,490c1.56-.05,2.35-.06,3.92-.09" transform="translate(-454.19 -327.27)"/><path class="cls-1" d="M654.1,480.72c-.36-3.41-.54-5.12-.93-8.54,2,0,3.05,0,5.09,0,.15,3.29.22,4.93.36,8.21C656.81,480.5,655.91,480.57,654.1,480.72Z" transform="translate(-454.19 -327.27)"/><path class="cls-1" d="M656,472.25c.18,3.39.26,5.08.43,8.47" transform="translate(-454.19 -327.27)"/><path class="cls-1" d="M654.08,476.33c1.65-.05,2.48-.07,4.13-.09" transform="translate(-454.19 -327.27)"/><path class="cls-1" d="M654.24,509.07c-.32-3.42-.49-5.13-.84-8.54,1.83,0,2.74,0,4.56,0,.13,3.28.2,4.92.32,8.21C656.66,508.85,655.85,508.92,654.24,509.07Z" transform="translate(-454.19 -327.27)"/><path class="cls-1" d="M656,500.6c.15,3.39.23,5.08.38,8.46" transform="translate(-454.19 -327.27)"/><path class="cls-1" d="M654.22,504.67l3.69-.09" transform="translate(-454.19 -327.27)"/><path class="cls-1" d="M646.52,517.6q-.74-18.89-1.48-37.78c-.94,0-1.41.06-2.34.12.08-1.52.13-2.27.22-3.78-2-.45-3.06-.66-5.11-1.07.23-1.53.35-2.29.59-3.81-2.24-.27-3.36-.39-5.61-.6.05-1.38.08-2.07.13-3.45-1.93-.25-2.9-.36-4.84-.58l-.83-3.7c-2.45.26-3.68.4-6.13.71.07,1.92.11,2.88.18,4.8-2.37.58-3.55.88-5.9,1.5.18,1.22.27,1.83.46,3.05-1.63.66-2.44,1-4.05,1.67l1.2,4.66c-1.94.59-2.9.9-4.82,1.53.41,1.31.61,2,1,3.29-.93,1-1.39,1.55-2.31,2.59q3.27,17.29,6.53,34.6" transform="translate(-454.19 -327.27)"/><path class="cls-1" d="M618.85,500.81c-.82-3.33-1.24-5-2.09-8.33,1.88-.29,2.83-.43,4.71-.69.61,3.23.92,4.85,1.51,8.08C621.33,500.23,620.5,500.42,618.85,500.81Z" transform="translate(-454.19 -327.27)"/><path class="cls-1" d="M619.42,492.17c.65,3.33,1,5,1.61,8.32" transform="translate(-454.19 -327.27)"/><path class="cls-1" d="M618.2,496.46l3.81-.64" transform="translate(-454.19 -327.27)"/><path class="cls-1" d="M627.65,499.27c-.46-3.35-.7-5-1.17-8.37,1.91-.27,2.86-.39,4.77-.62.23,3.28.34,4.91.58,8.19C630.15,498.78,629.32,498.94,627.65,499.27Z" transform="translate(-454.19 -327.27)"/><path class="cls-1" d="M629.1,490.72c.26,3.38.4,5.07.66,8.44" transform="translate(-454.19 -327.27)"/><path class="cls-1" d="M627.21,495c1.7-.13,2.55-.19,4.24-.29" transform="translate(-454.19 -327.27)"/><path class="cls-1" d="M636.15,498.28c-.19-3.29-.28-4.93-.46-8.21,1.9-.13,2.85-.18,4.75-.27,0,3.29,0,4.93-.06,8.22C638.69,498.11,637.84,498.16,636.15,498.28Z" transform="translate(-454.19 -327.27)"/><path class="cls-1" d="M638.26,489.84c0,3.39,0,5.08,0,8.47" transform="translate(-454.19 -327.27)"/><path class="cls-1" d="M636,494c1.7,0,2.55,0,4.25,0" transform="translate(-454.19 -327.27)"/><path class="cls-1" d="M634.86,511.39c-.07-2.79-.11-4.19-.17-7,1.62,0,2.43,0,4,0-.12,2.78-.18,4.17-.28,7Z" transform="translate(-454.19 -327.27)"/><path class="cls-1" d="M637,504.46c0,2.82,0,4.23-.06,7.05" transform="translate(-454.19 -327.27)"/><path class="cls-1" d="M634.81,507.71c1.6,0,2.41,0,4,.07" transform="translate(-454.19 -327.27)"/><path class="cls-1" d="M624.84,512.75c-.64-2.73-1-4.1-1.61-6.83,1.59-.22,2.39-.32,4-.51.46,2.64.69,4,1.14,6.6C627,512.3,626.24,512.44,624.84,512.75Z" transform="translate(-454.19 -327.27)"/><path class="cls-1" d="M625.43,505.58c.58,2.76.87,4.14,1.44,6.9" transform="translate(-454.19 -327.27)"/><path class="cls-1" d="M624,509.16c1.58-.29,2.37-.43,4-.7" transform="translate(-454.19 -327.27)"/><path class="cls-1" d="M629.78,481.58A3.26,3.26,0,0,0,626,479c-2,.22-3.38,1.72-3.18,3.33a3.59,3.59,0,0,0,7-.78Z" transform="translate(-454.19 -327.27)"/><path class="cls-2" d="M688.31,486.14s-.15-11.92,0-13.07,1-19.24,1-19.82.29-18.95.29-18.95l8-11.63,8.47-4.31,11.06-4,5.17-.86,3,2.73,3.74,8.47,2.72,9.33-5.2,11.92-4.85,7.18-14.64,14.07L694.05,481Z" transform="translate(-454.19 -327.27)"/><path class="cls-1" d="M802.52,512.94l-4.51-6,4.71-4.7-5.34-5.87,3.89-4.55-4.36-5.2,3.24-5.72-6.84-4.75-5.24,6.5-7.53-3.77-3,4.4-5.9-1.93-4.27,7.18-6.54-3.09-2.91,5.22-5.26.76,34.7-43.6,4.2,1,15.17-24.06,4.81,1.66,5-8.39c-.16-.79-2-2.33-4.71-4.29l4.81-10.15a18.21,18.21,0,0,0-3.24-2c2.08-10,4.79-24.33,5-31.36l.61.22a9.23,9.23,0,0,0,1.85-2c1.67-2.46,2-5.18.66-6.07s-3.73.4-5.39,2.86a8.74,8.74,0,0,0-1.38,3.19c-6.83,3.71-21.93,13.93-30.3,19.67l-1.76-.79L780.12,391l-1.56,1.09.58.36-.72,1.07,4,2.42c-5-2.84-8.61-4.77-8.61-4.77l-4,6.95,2.19,3.54-14.57,21.94.63,3.5-55.7,92.54,19.24,13.47,29.32-39.42L722.71,534l46,32.2,32.38-46.24-2.8-1.92Z" transform="translate(-454.19 -327.27)"/><path class="cls-3" d="M777.78,421a9.22,9.22,0,1,0,7-11A9.22,9.22,0,0,0,777.78,421Z" transform="translate(-454.19 -327.27)"/><polygon class="cls-1" points="11.19 225.41 13.19 217.41 6.44 214.65 9.35 206.45 3.5 203.5 5.7 196.39 0 191.98 4.91 184.28 12.96 188.64 18.97 181.64 23.92 184.79 29.08 180.34 36.43 185.8 41.73 179.9 46.89 183.96 52.65 182.45 119.7 224.81 86.82 276.85 15.58 231.85 17.59 228.72 11.19 225.41"/><path class="cls-4" d="M662.17,693.24C625,698.77,588.5,694.42,559.41,681c-30.31-14-49.15-36.17-53.06-62.43s7.67-53,32.6-75.17c23.92-21.31,57.57-36.09,94.75-41.62S707.37,500.6,736.46,514c30.31,14,49.15,36.16,53.06,62.43s-7.67,53-32.6,75.17C733,672.93,699.35,687.71,662.17,693.24Z" transform="translate(-454.19 -327.27)"/><path class="cls-5" d="M774.43,578.35c6.86,46.12-44.63,92-115,102.46s-133-18.44-139.84-64.55,44.63-92,115-102.46S767.57,532.23,774.43,578.35Z" transform="translate(-454.19 -327.27)"/><path class="cls-6" d="M774.43,578.35c6.86,46.12-44.63,92-115,102.46s-133-18.44-139.84-64.55,44.63-92,115-102.46S767.57,532.23,774.43,578.35Z" transform="translate(-454.19 -327.27)"/><path class="cls-2" d="M581.29,636.46q.26,11,.45,21.92c.09,4.62-1.26,7.38-6,7.08a5.45,5.45,0,0,1-5.2-4.31c-.42-1.93.41-3.76,2.7-3.71,1.16,0,2.85.14,3.27,2a9.15,9.15,0,0,1,.08,1.17c-.11.05-1.33-.8-1.91-.82-1.33,0-1.79,1-1.56,2.06a2.65,2.65,0,0,0,2.42,2.13c1.31.08,2-.47,2-3.49q0-10.74-.17-21.48c-2.23,1.31-3.28,3.66-2.58,6.83a4.57,4.57,0,0,0,.84,2c-.23.33-3.22-.62-3.68-2.72-.85-3.88,3.54-8.06,8.27-8.57Z" transform="translate(-454.19 -327.27)"/><path class="cls-2" d="M595.5,643.11c.15,4.49.21,6.72.34,11.14a5.72,5.72,0,0,0,.11,1c.2.9.68,1.37,1.49,1.33,1.13,0,1.6-1.52,1.67-3.18l1.22-.08c-.48,5.44-2.94,6.23-4.51,6.27s-3.48-2.84-3.48-2.84-1.62,3-3.68,3-4.14-1.27-4.94-4.92c-.91-4.13,0-10.86,5-11.29,1.64-.13,2.48.5,2.68,1.43l.05.22c0-.69,0-1-.06-1.72C593,643.35,593.85,643.27,595.5,643.11Zm-7.6,11.2c.52,2.4,1.45,2.41,2,2.39.83,0,1.84-1,1.79-2.86-.08-2.89-.12-4.35-.2-7.27a1.41,1.41,0,0,0-1.44-1.12C587.6,645.65,587.25,651.37,587.9,654.31Z" transform="translate(-454.19 -327.27)"/><path class="cls-2" d="M608.74,644c1.08,5,1.19,14.54-5,15.34-2,.26-3.85-1.1-4.41-3.67a8.93,8.93,0,0,1-.2-1.58c-.14-4.48-.21-6.73-.36-11.28,1.65-.17,2.47-.26,4.12-.45.17,4.62.25,6.91.4,11.46a7.35,7.35,0,0,0,.11,1.2,1.12,1.12,0,0,0,1.23,1c2.83-.19,2.54-11.59,2.54-11.59a4,4,0,0,1-.85.44c-.69.08-1.24-.86-1.4-1.59a1.5,1.5,0,0,1,1.38-2C607.67,641.09,608.42,642.49,608.74,644Z" transform="translate(-454.19 -327.27)"/><path class="cls-2" d="M622.43,639.77c.21,4.87.31,7.29.52,12.11a5.48,5.48,0,0,0,.13,1.12c.21,1,.65,1.25,1.46,1.15a2,2,0,0,0,.6-.22c.2.12-.55,3.67-2.11,3.84s-3.53-2.91-3.53-2.91-1.55,3.43-3.61,3.6-4.16-1.1-5-5.12c-1-4.55-.21-12.08,4.77-12.77,1.63-.22,2.49.44,2.71,1.44l0,.24c0-.75,0-1.12-.09-1.87ZM615,652.45c.57,2.63,1.51,2.58,2,2.52.84-.08,1.83-1.24,1.74-3.27-.13-3.18-.2-4.77-.33-8a1.41,1.41,0,0,0-1.47-1.15C614.55,642.91,614.32,649.25,615,652.45Z" transform="translate(-454.19 -327.27)"/><path class="cls-2" d="M648,626c.23,4.64.34,7,.57,11.59.51,6.06,1.42,16.27-6.43,17.66-4.06.72-6-1.2-6.77-4.78s-.71-8.64-.83-14.86c0-1.94,0-2.91-.08-4.86-2.88,1.61-4.2,4.8-3.27,9a5.71,5.71,0,0,0,.94,2.37c-.25.4-3.26-.39-3.78-2.75-1.08-5,3.21-10.24,8.73-11.3a3.3,3.3,0,0,1,1.41-.09c1.47,1.53-.66,14.24.55,20.8.37,2,1.25,3.12,2.68,2.88,2.43-.41,3.33-1.33,2.79-13.43-.21-4.57-.31-6.86-.52-11.45Z" transform="translate(-454.19 -327.27)"/><path class="cls-2" d="M663.25,644.12a27.48,27.48,0,0,1-3.35,5.46,7.1,7.1,0,0,1-4,3.1c-2.9.59-4.68-1.59-5.16-3.78a5.13,5.13,0,0,1,.78-3.63c1.35-2.41,1.05-7.65,1.16-11.36,1.62-.64,2.43-1,4-1.62,2.38,9.25,3,10.59,3.49,13a13.93,13.93,0,0,1,.18,1.4,16.67,16.67,0,0,0,1.65-2.26Zm-10.29,4c-.28.05-.87-.32-.87-.32s1,2.42,2.29,2.17,2.29-1.33,1.74-3.85c-.41-1.87-2.41-8.41-2.41-8.41s-1.21,6.6-.81,7.27c.08.13.8.51.93,1.12C654,647,653.7,648,653,648.17Z" transform="translate(-454.19 -327.27)"/><path class="cls-2" d="M668.71,646.66c2.23-.54,3.23-2.46,4.19-4.86l1-.25c-.88,3.71-2.53,7.67-6.29,8.56-2.65.63-4.81-.66-5.66-4.7-1.07-5-.73-12.88,4.83-14.57,2.32-.7,3.46.9,3.85,2.7.91,4.12-4.27,8.24-4.83,9.14a5.55,5.55,0,0,0,.26,1.45C666.55,646.57,667.35,647,668.71,646.66Zm-1.34-14c-1.44.35-2.13,8-1.77,8.21s3.45-3.93,2.8-6.91C668.2,633.1,667.91,632.56,667.37,632.69Z" transform="translate(-454.19 -327.27)"/><path class="cls-2" d="M676.34,628.8c0,.92.07,1.38.12,2.3.75-1.32,1.57-2.73,2.91-3.09s2.22.8,2.52,2.15-.08,2.76-1.45,3.13c-1.57.42-1.3-2.13-2.14-1.91s-1.23.89-1.75,1.89c.29,5.65.44,8.48.73,14.16l-4,1.06q-.47-9.33-.94-18.66Z" transform="translate(-454.19 -327.27)"/><path class="cls-2" d="M702.76,624.24c.22,5.41.33,8.13.56,13.59s-.63,9.48-5.14,11c-2.61.9-4.36-1.12-4.89-3.54s.14-5.16,2.33-5.87c1.1-.35,2.72-.78,3.21,1.44.08.38.14,1.44.14,1.44s-1.3-.53-1.85-.35c-1.27.42-1.64,2-1.35,3.28s1.09,2.18,2.25,1.79,2-1.43,1.81-5.2l-.25-6.55a8.25,8.25,0,0,1-3.09,2.34c-4.5,1.46-6.85-2.28-7.92-7.11-1.35-6.12.33-14.2,6.91-16.22,2.51-.77,5.44-.22,6.16,3.08.4,1.8.17,3.3-1.24,3.73a4.81,4.81,0,0,1-2.11-.31c0-.17.79-2.32.6-3.18-.11-.54-.66-2.39-2.44-1.88-3.05.88-4.75,8.25-3.54,13.79.68,3.11,2.18,5.47,4.47,4.74a2.87,2.87,0,0,0,2.06-2c-.1-2.77-.15-4.15-.24-6.91Z" transform="translate(-454.19 -327.27)"/><path class="cls-2" d="M708.85,619.3l.1,2.19c.74-1.32,1.55-2.73,2.86-3.16s2.15.58,2.43,1.83a2.57,2.57,0,0,1-1.44,3.09c-1.53.54-1.24-1.92-2.06-1.64s-1.2.94-1.72,1.94c.24,5.39.36,8.1.62,13.54-1.57.59-2.36.87-3.93,1.44q-.4-9-.81-17.95C706.48,620.08,707.27,619.82,708.85,619.3Z" transform="translate(-454.19 -327.27)"/><path class="cls-2" d="M724.92,618.9s.23,0,.31,0a10.32,10.32,0,0,0,3.72-3.48l.42.74c-.74,1.67-3.77,3.61-4.17,4.46-1.17,2.48-1,10.87-4.3,12.23-2.49,1-4.62.3-5.44-3.46s-.7-12.3,4.89-14.27C722.68,614.26,723.89,617.91,724.92,618.9ZM723,621.54c-.14-.11-.88-.42-1-1.06a3.62,3.62,0,0,1,.45-2c.18-.67-.73-1.74-1.43-1.48-1.92.69-2.3,7.24-1.6,10.42.47,2.14.92,2.49,1.94,2.08C722.65,628.93,723.71,622.14,723,621.54Z" transform="translate(-454.19 -327.27)"/><path class="cls-2" d="M737.53,609c.12,4.33.18,6.51.31,10.92a5,5,0,0,0,.11,1c.18.84.58,1,1.31.61,1-.48,1.49-1.93,1.56-3.58l1.1-.51c-.45,5.45-2.65,7.28-4.06,8s-3.24-1.67-3.24-1.67-2.16,4.19-3.27,4.69c-1.58.72-3.08.13-3.66-2.51a12.52,12.52,0,0,1-.23-2.14c-.16-4.33-.24-6.49-.38-10.76l3.86-1.45c.14,4.46.22,6.7.37,11.24a6,6,0,0,0,.11.9c.16.71.49,1.17,1.08.91,1-.45,1.46-1.92,1.52-3.62-.14-4.23-.2-6.32-.32-10.48Z" transform="translate(-454.19 -327.27)"/><path class="cls-2" d="M744.33,605.07l0,2.3a5.78,5.78,0,0,1,2.81-2.5c1.78-.74,3.42-.28,4.13,3,.81,3.68.8,10.37-4.2,12.94-1.3.67-2,.49-2.43.08.08,3.09.12,4.65.2,7.78l-3.66,3.14q-.39-12.59-.7-25.17Zm3.41,4.3c-.47-2.15-1.35-2-1.82-1.76a3.29,3.29,0,0,0-1.5,2.17c.08,3.47.12,5.21.22,8.74.17.26.53.47,1.13.17C748.49,617.35,748.32,612,747.74,609.37Z" transform="translate(-454.19 -327.27)"/><path class="cls-2" d="M567.8,630.93a28.11,28.11,0,0,1-10.61.14,26.12,26.12,0,0,1-9.38-3.59,23.91,23.91,0,0,1-7.07-6.9,27.13,27.13,0,0,1-4.11-10.05,33.55,33.55,0,0,1-.31-11.57,40.47,40.47,0,0,1,3.42-11.37,38.82,38.82,0,0,1,6.67-10,31.83,31.83,0,0,1,9.48-7.25,20,20,0,0,1,7.33-2.17,20.64,20.64,0,0,1,6,.32c.63-1.28.94-1.93,1.57-3.22l2.92-1.23q2.55,11.13,5.09,22.26l-3,1q-4.73-9.29-9.22-12.47a8.83,8.83,0,0,0-9.46-.81c-4.12,1.94-6.74,5.71-8,11s-1.08,11.6.52,19.17a44.5,44.5,0,0,0,3.44,10.61,23.41,23.41,0,0,0,4.56,6.57,12.9,12.9,0,0,0,5.66,3.2,14,14,0,0,0,14.35-5.15q3.12-4.09,4.8-11.54c1.38.58,2.07.87,3.45,1.47A40.32,40.32,0,0,1,584,617a23.06,23.06,0,0,1-3.33,6.12A21,21,0,0,1,575.4,628,21.93,21.93,0,0,1,567.8,630.93Z" transform="translate(-454.19 -327.27)"/><path class="cls-2" d="M653.15,611.62l-26.81,5.48c-.3-1.46-.45-2.19-.76-3.65l2.49-.81a6.48,6.48,0,0,0,2.19-1,4,4,0,0,0,1.4-2.22,7.67,7.67,0,0,0-.12-3q-2.37-11.51-4.76-23c-8.49,1.93-12.72,3-21.14,5.18q2.31,10.95,4.63,21.91a7.33,7.33,0,0,0,1.1,2.69,3.89,3.89,0,0,0,2.13,1.56,11,11,0,0,0,2.44.3,17.67,17.67,0,0,0,2.72-.05c.31,1.44.46,2.17.76,3.62l-26.79,5.55c-.29-1.37-.44-2.05-.73-3.42.57-.16,1.41-.44,2.5-.85a9.48,9.48,0,0,0,2.33-1.13,3.44,3.44,0,0,0,1.37-2.15,7.6,7.6,0,0,0-.11-2.9l-9.57-44.9a6.85,6.85,0,0,0-1-2.49,3.36,3.36,0,0,0-2.16-1.24,10.73,10.73,0,0,0-2.81-.1,16.85,16.85,0,0,0-2.42.32c-.29-1.37-.44-2.05-.73-3.42q12.95-5.09,26.3-9.06c.3,1.44.45,2.17.76,3.61a18.12,18.12,0,0,0-2.47,1.23,17.91,17.91,0,0,0-2.15,1.38,3.57,3.57,0,0,0-1.37,2.46,8.94,8.94,0,0,0,.15,2.91c1.64,7.77,2.47,11.66,4.11,19.44,8.41-2.28,12.64-3.34,21.14-5.29-1.61-7.8-2.42-11.69-4-19.48a7.43,7.43,0,0,0-1-2.66,4.1,4.1,0,0,0-2.24-1.52,10.75,10.75,0,0,0-2.65-.43,16.08,16.08,0,0,0-2.56,0c-.31-1.46-.46-2.19-.76-3.65q13.4-3.68,27.07-6.2c.29,1.47.44,2.21.74,3.68a19.91,19.91,0,0,0-2.47.89,12.84,12.84,0,0,0-2.4,1.29,3.23,3.23,0,0,0-1.41,2.3,8.64,8.64,0,0,0,.13,3l9.69,47.52a8.34,8.34,0,0,0,1,2.79,4.09,4.09,0,0,0,2.19,1.62,9.56,9.56,0,0,0,2.6.36,22.08,22.08,0,0,0,2.71-.06C652.71,609.41,652.85,610.14,653.15,611.62Z" transform="translate(-454.19 -327.27)"/><path class="cls-2" d="M650.47,568a21.1,21.1,0,0,0,5.1-7.1,16.85,16.85,0,0,0,1-8.72l-2,.31a9.2,9.2,0,0,1-3.75-.09,6.37,6.37,0,0,1-2.63-1.47,7.21,7.21,0,0,1-1.66-2.28,12.23,12.23,0,0,1-.91-2.8,8,8,0,0,1,.78-5.58,5.2,5.2,0,0,1,3.92-2.92,7.26,7.26,0,0,1,6.77,2.6q2.8,3.13,4,9.15A20.68,20.68,0,0,1,659.68,561a25.57,25.57,0,0,1-7,10.14Z" transform="translate(-454.19 -327.27)"/><path class="cls-2" d="M715.3,556l-2.81.09a49.46,49.46,0,0,0-5.15-8.07c-2.22-2.9-4.06-4.5-5.49-4.7-.79-.11-1.77-.2-2.92-.27s-2.14-.09-3-.07l-1.7,0q4.72,24.32,9.41,48.62a7.85,7.85,0,0,0,1,2.69,3.57,3.57,0,0,0,2.15,1.57,12.64,12.64,0,0,0,2.66.34c1.19.06,2.19.07,3,0,.26,1.33.39,2,.64,3.32q-13.83,2.74-27.67,5.52l-.7-3.58,2.78-.93a8.6,8.6,0,0,0,2.39-1.1,3.66,3.66,0,0,0,1.44-2.28,8.17,8.17,0,0,0-.1-3q-4.92-25.32-9.86-50.63l-1.69.12c-.82,0-1.78.17-2.89.35a28.07,28.07,0,0,0-2.78.56c-1.34.35-2.53,2.22-3.54,5.59a42.37,42.37,0,0,0-1.78,9.44l-2.79.38-3.73-18.88a398.89,398.89,0,0,1,49.85-1.85Z" transform="translate(-454.19 -327.27)"/><path class="cls-2" d="M753.55,591.66Q739.78,594.33,726,597c-.25-1.26-.37-1.9-.62-3.16l2.74-.75a8.64,8.64,0,0,0,2.45-.94,3.44,3.44,0,0,0,1.47-1.86,5.69,5.69,0,0,0,0-2.54q-3.87-19.72-7.72-39.45a6.66,6.66,0,0,0-.93-2.38,4.92,4.92,0,0,0-2.17-1.73,18.84,18.84,0,0,0-2.74-.93,30.3,30.3,0,0,0-3-.7c-.25-1.26-.37-1.9-.62-3.16q14.37.67,28.62,2.63l.55,2.72c-.71,0-1.59,0-2.65,0a11.38,11.38,0,0,0-2.65.28,1.93,1.93,0,0,0-1.58,1.3,4.84,4.84,0,0,0,0,2.25q3.69,18.43,7.36,36.86a5.2,5.2,0,0,0,.93,2.17,3.64,3.64,0,0,0,2.11,1.21,11.72,11.72,0,0,0,2.56.21,24.33,24.33,0,0,0,2.94-.13Z" transform="translate(-454.19 -327.27)"/><path class="cls-7" d="M826.2,435.58" transform="translate(-454.19 -327.27)"/><path class="cls-8" d="M704.18,419l1.06-5.65,2.48-3.53,1.79-.14L711.2,411a9.16,9.16,0,0,0,1.24.27l1.61-2.38,3.12,0s.23,2,.23,2.34.64,2.66.64,2.66l-2.15,3.58-.23,2.53-2,1.74a19.22,19.22,0,0,1-3.31,0,15.67,15.67,0,0,0-2.48-.82C707.49,420.73,704.18,419,704.18,419Z" transform="translate(-454.19 -327.27)"/><path class="cls-8" d="M721.23,444.92l-3.54.51L716,441.89V438l2.35-3.37-.33-6.23-3.87-.33-1.69,3.19v2.53l-2.35.84-2.19-1-.34-2.19-2.69,1-3.71,2.36-.67-1.35,1.08-10.22v-3.87L700,415.12l-4.37.52-.28,1.52s0,9.11-.07,9.75-.5,8.92-.5,8.92L694,440l.85,1.85,2.51.18.85,2.34,1.09.43-.83,5.11,5,2.77,1.83-2.92,5.73-2.69,3-.2,2.42,1.54,1.86,1.69,7.07.34,5.72,2.35,2.19,4.38,6.23-.51.24-2.73-2.43-3.66-3.54-2.7h-6.39l-.68-1.68,5.73-2.19,10.49.27.14-5.12-6.09.31-7.41,1,1.47-2.85,7.46-5.91,2-3.53-2-2.86-3.87,3.53L732,430.78l-2.17-.75.49-1.94,5.38-3.37,1.86-6.74-4-.84,1.34-4.54v-1.52l-5.22.34H728.3l.67-3.54-.67-2.18-3.37-.17-3.48,4.54-.56,3,2.52,1.69,1,2.18-2.18,3-2,2.7,2,1.1,2,2.77-1.69,3.54-1.34,3,1.51,3.87,1.68,1.85.29,1.55-1.44,3.33" transform="translate(-454.19 -327.27)"/><path class="cls-9" d="M704.23,415.09c.22,0,.24.13.42.14-.08.7.21,1.78-.28,2.07C703.33,417.12,703.77,415.58,704.23,415.09Z" transform="translate(-454.19 -327.27)"/><path class="cls-9" d="M717.51,420.21h.42c.19.91-.16,2.36.28,3.32a14.81,14.81,0,0,1,3,3.18c-.28,1.11-1.19,1.58-1.52,2.63-1.08-.69.23-1.78.27-2.63C718.46,425.34,716.29,423.47,717.51,420.21Z" transform="translate(-454.19 -327.27)"/><path class="cls-9" d="M705.06,422.42a5.85,5.85,0,0,1,2.08,1.11c.69-.28,1.77-.66,2.49-.14-.78,1-2.1.65-3.6.83C705.56,423.82,704.69,423.2,705.06,422.42Z" transform="translate(-454.19 -327.27)"/><path class="cls-9" d="M713.64,424.08c.71-.07,1.14-1,1.94-.55-.87,1.87-3.35,1-4.57,0C711.76,422.4,713.05,423.72,713.64,424.08Z" transform="translate(-454.19 -327.27)"/><path class="cls-9" d="M709.35,429.48c-.73,0-1.93-.64-3.32-.42C706,427.69,709.81,427.86,709.35,429.48Z" transform="translate(-454.19 -327.27)"/><path class="cls-9" d="M722.22,440.13c.25.3.09,1,.14,1.52-.56.14-1.31.08-1.11,1a14.45,14.45,0,0,1-1.66.69c-.23-.32-.77-.33-.69-1,.8.12,1.61-.49,2.35-.83C721.25,440.78,721.55,439.75,722.22,440.13Z" transform="translate(-454.19 -327.27)"/><path class="cls-9" d="M704.65,414.67c.13-.65.12-1.44.83-1.52s-.06,1.44.41,1.66c.8.06.74-.73.83-1.38s-.82-.19-.83-.69c.58-2,2-3.81,4-3.05,1,.39,1,1.37,2.08,1.11s.76-1.68,1.66-2.36c1.4-.12,3.14-.44,4.15.14.76,1.19-.15,3.43.14,4.57.22.1.35.38.55.41,2,.42,2.3-2.83,3-4.42.12-.26.56-.43.83-.83,1.43-2.16,1.81-3.55,5.81-3.19a25.21,25.21,0,0,1,2.07,2.63c-.35,1.22-2.17,2.38-1.1,3.74a8.89,8.89,0,0,1,5.81-1c.13,1.82,0,4.46-1,5.67.79,1.84,4.06,1.12,4.29,3.05.18,1.57-1.64,2.42-1.66,4.29-1.26,1.47-7,4-5.54,6.22,2.6.07,4-4.84,6.78-4.56,1.13.11,1.9,1.24,3.19,1.52.76,1-.4,1.62-.7,2.35A9,9,0,0,1,739.1,432c-2.43,2.86-6.59,5.28-9.69,7.19,1.21,2.06,3.66,0,5.54-.27,2.53-.35,5.27.26,8,0,1.17,1.05.38,3.74-.14,5.12a137.05,137.05,0,0,0-14.8,1,1.85,1.85,0,0,0-.14,1.39c2.41.06,5.66-.53,7.19,1a18.62,18.62,0,0,1,4.57,6.64c-.29,1-.26,2.32-.83,3-1.42.47-3.16.62-4.29,1.39-2-1.58-3.53-6-6.36-7.2-2.68-1.1-4,1.6-5.12,3.18-8.72,11.88-22.38,20.94-32.93,30.86-.25.91-.66,1.65-1.94,1.52a13.59,13.59,0,0,1-.28-5.67,20.4,20.4,0,0,1,1-3c.21-.79.08-1.71.28-2.49A66.29,66.29,0,0,0,691.22,465c.08-1.16-.12-2.39,0-3.6.22-2.15.84-4.16,1-6.23a42.13,42.13,0,0,0,0-6.36c-.12-1.41.26-3.17-.14-4-.3-.65-.86-.58-1.52-1a26.71,26.71,0,0,1-3.74-2.49c.15-1.85,1-3,1.25-4.71,1.69-1.48,5.47-.68,7.75-1.24,0-1.08-.83-1.29-1.25-1.94-3.91-1.07-6.82-3.56-11.76-3.18-.49-1.3-.5-4.2.42-5,2.51.24,4.95-.75,7.33-.14,1.21.3,3.42,2,5.12.83.09-1.4-.93-2.53-1.24-3.74-.16-.61,0-1.54-.28-2.21s-.81-1.1-.83-1.52c0-1,1.62-2.53,2.35-2.91,1.56-.81,3.62-.22,5.12-.14.72.85.34,2.8.83,3.88,2.16.09,2.47-1.68,4.15-2.08C705.32,416.23,706.4,414.47,704.65,414.67Zm21.72-7.61c.4.35,2.06.56,2.07-.28C728.24,406.1,726.07,405.51,726.37,407.06Zm-4,3.74c-.28.56-.89.73-.83,1.38.07.86.91,1.12,1.79,1,.25-2.43,2.31-3,2.36-5.67C723.79,406,723.06,409.39,722.36,410.8Zm1.38,3.46c2.12-.09,3.4-2.38,4.29-4.15.3-.6,1-1.18.28-1.8C725.72,409.23,725,412.06,723.74,414.26Zm-7.89-2.77a1.15,1.15,0,1,0-.55-2.21C713.41,409.76,714.75,411.64,715.85,411.49Zm-7.47-.69c.27,1,.71,1.78,1.94,1.8C711.38,411.59,709.7,409.82,708.38,410.8Zm3.32,3.32c-.85.3-.87,1.44-1,2.49-.66.65-1.41,2.55-.69,3.32,1,.11,1.2-.65,1.11-1.66,1-.88.58-3.2,1.8-3.88,0-.55.27-.83.27-1.38a1.35,1.35,0,0,0,.56-1.8C712.48,411.58,711.89,412.64,711.7,414.12Zm19.93-2.35c-.22.77-.3,2.34.27,2.76a1.72,1.72,0,0,0,1.66-.14,12.45,12.45,0,0,0,.28-2.62C733.26,411.13,732.31,411.45,731.63,411.77Zm-2.22.55c0-.11-.11-.16-.27-.14-1.41,1.41-3.45,2.18-4.43,4,0,2.69-7.4,6.88-2.49,7.61,1.59-3.89,4.67-6.3,7.88-8.57C730.06,414.07,730.35,412.58,729.41,412.32Zm-16,3.6c-.56,1.43-1.28,3.51-1.1,4.7,1.52.67,1.8-1,2.62-1.52-.12-2.8,1.43-3.92,2.08-6C714.88,411.1,713.91,414.52,713.36,415.92Zm-5.53-2.36a18.17,18.17,0,0,1-2.08,4.29c.55.93,1.78,1.18,2.77,1.66a16,16,0,0,1,1.94-5.53A2.07,2.07,0,0,0,707.83,413.56Zm11.48,32c1.53-.1,1.4-1,2.35-2.08.18-.19.58-.21.7-.41s.06-.81.27-1.11c.34-.47.68-.4.83-.83,1.2-3.36-2.18-3.63-3-5.4a6.31,6.31,0,0,1,.14-4.29c.1-.25.52-.37.69-.69s.13-.88.28-1.1c.62-1,1.9-2,1.66-3.19s-1.87-1.23-2.77-1.52c.23-1-.81-.76-1-1.38-1.17-3.45,3.74-4.41,3.87-6.92.09-1.6-1.78-2.51-3-2.49a4.87,4.87,0,0,0-4,3.18c-.17.52.05,1.26-.14,1.94a3.63,3.63,0,0,1-5.67,1.94c-.75-.11-.55.74-1.39.55-1.75-.7-3.12-2.63-5.26-1.66-1.14.52-1.57,1.92-2.21,3.18,0,1.27,2.87,2.23,2.91,3.46a1.93,1.93,0,0,1-2.22,1.52c0-.73.44-1,.56-1.66-.56-1.06-2.08-2-2.22-3.32-.07-.63.34-1,.42-1.66a8.25,8.25,0,0,0-1-4.15,2.34,2.34,0,0,0-1.52,2.07c0,.5.51,1,.69,1.8s0,1.74.28,2.49c.17.52.65.92.82,1.39.3.8.23,1.74.56,2.21s1.28.56,1.25,1.11c-.41,1.1-1.71,1.38-1.67,2.63a2.7,2.7,0,0,0,2.08,2.07c1.23,0,2.77-2.53,4.43-2.49,2.14,0,2.65,4.36,4.43,2.22-1.3-2.28,1-5.27,2.62-5.54,1.2-.2,4.16.82,4.43,1.8.35,1.24-.42,3.15-.27,4.7,3.09,3-2.31,5.92-2.22,9.41C717.3,444.29,717.4,445.66,719.31,445.53ZM728.17,418c-.72,1.07-2.11,2-3,3.19-.81,1.05-2.38,2.57-1.38,4.15,1.35-.16,1.48-1.41,2.08-2.22,2-2.7,5.07-4.48,6.91-7.05C730.76,415.2,729.69,417.49,728.17,418Zm-32.8-.83c.38,2.41,3.76,1,3-1.1A4.53,4.53,0,0,0,695.37,417.16Zm39,.83c-1,.18-1.34,2.19-1.1,3.6.9.21,1.36.85,2.49.83.07-1.34,1.3-2,1-3.32C735.59,419.23,735.25,417.84,734.39,418Zm-3.18,1c-3.32,3.74-6.6,7.51-9,12.18-.42,0-.47.36-.83.41.05.78-.28,1.94.69,1.8.4-1.17,1.37-1.77,1.66-3,.18-.19.65-.09.83-.28a20.91,20.91,0,0,1,6.37-7.47c.75-.82.95-2.18,1.38-3.32A1.54,1.54,0,0,0,731.21,419Zm-35.84.14c-.44,2.45,1.38,5,1.67,7.61.9.38,1.14,1.44,2.62,1.24C698.27,425,698.65,420.21,695.37,419.1ZM732.18,423c-1.16,1.43-3.13,2-3.74,4,.38.36,1.21.27,1.94.27,1.15-1.56,3.51-1.93,4.15-4A8.86,8.86,0,0,0,732.18,423ZM684,426.43c-.3.79-.68,2.14,0,2.77a10.53,10.53,0,0,0,3.18-.41,2.79,2.79,0,0,0,.41-2.08C686.92,425.84,685.21,426.25,684,426.43Zm11.21,1.11c-.8-.23-2-.16-3-.42-1.41-.35-2.7-1.46-3.32-.41-.77,2.12,2.45,2.05,3.74,2.63.27.12.57.47,1,.69,1,.54,1.52,1,2.35,1.52,1.37.94,2.3,2.05,3.46,2.77.78.49,1.49.59,1.93,1.25,1.39-.17,2.55.56,3.6.27a2.75,2.75,0,0,0-.69-1.94c-.86.16-1.24.8-2.49.56-1.33-1-2.86-2.13-2.21-4.71C698.45,429.38,697,428.05,695.24,427.54Zm42.2-.69c-.62.91-.19,2-.69,3,1.37,2.15,3-.56,3-2.21A2.29,2.29,0,0,0,737.44,426.85Zm-2.08.69a77.63,77.63,0,0,1-10.24,8,8.34,8.34,0,0,0-1,1.52c.15.44.9.29,1,.83-.24.73-1.13,1.62-.41,2.49,2.63-.46,4-2.2,6.23-3.05,1.85-2.11,5-2.95,6.22-5.67-1.89-1.18-2.75.66-4.29,1.8s-3.14,2-4.43,3c-1.1.09-2.15,2-3.18.83,1.86-1.5,3.71-2.47,6.09-4.15,1-.7,2.1-1.5,2.77-2.07,1-.87,2.44-2.38,1.8-3.6Zm-8.3,1a1.7,1.7,0,0,0,2.77,1.52C730.26,428.07,728.19,427.72,727.06,428.51Zm-14.25,1.24c.22,1.83,2.88,1.51,3.87.56C716.47,428.61,713.48,428.39,712.81,429.75Zm-24.63-.13c-.43.75,1.19.52,1.94.55C690.32,429.19,688.71,429.42,688.18,429.62Zm2.07,1c.17,0,.15.22.14.42a3,3,0,0,0,2.22.28C692.68,430.31,690.79,430.05,690.25,430.58ZM724.43,432c-.48-.11-.58.15-.83.28,0,.44-.24.58-.14,1.1a1.8,1.8,0,0,0-1.38,1.94c.43.18,1.27.24,1.52-.14v-1.38a1.16,1.16,0,0,1,.83-.14c-.08-.63.25-.86.14-1.52.85,0,1.19-.57,1.11-1.53-.3-.11-.48-.35-1-.27C724.5,430.75,724.64,431.53,724.43,432Zm-7.75-1.11c-1.45.24-1,1.94-.83,2.91.23,1.62-.44,3.88.42,4.84C718.29,437.56,717.4,432.77,716.68,430.86Zm8.72,2.63a1.16,1.16,0,0,1-.83.14c-.06.56,0,1,.55,1a26.07,26.07,0,0,0,3.32-2.77C727.35,430.38,725.44,432.12,725.4,433.49ZM694,432.11c0-.54-.6-.51-1.11-.56C692.72,432.27,693.45,432.09,694,432.11Zm20.89,5.95c.17-2.5.15-5.45-1.52-6.51-.34,0-.43.22-.69.28-.19,1.5.19,2.59.14,4.15s-1.26,3.17-1.11,4.15c.08.49.78,1,1.11,1.39s.68,1.47,1.66,1.1c.17-.56,0-1.77.28-2.9.24-.17.72-.1.83-.42C715.67,438.56,714.8,438.79,714.88,438.06Zm-8.16-5.54c-2.46-.23-.44,4.24,1,4.43C708.4,435.43,707.21,433.73,706.72,432.52Zm3.74,6.5c1-.79.58-2.16.69-3.87a4.8,4.8,0,0,0-2.35-1.25A6.81,6.81,0,0,0,710.46,439Zm-3.74-1.24a10.87,10.87,0,0,1-3-1,26.74,26.74,0,0,0-7.2-.69,14,14,0,0,0-5.67,1.11c1.5,1.31,3.5.68,5.53.55,3.79-.24,7.42.65,10.24,1.11.37.52,2,1.42,2.35.27C708.25,438.65,707.23,438.47,706.72,437.78Zm-17.3,0c-2.21,1.72-.77,4.82,2.08,4.84.6-.83.48-2.37.69-3.6A8.76,8.76,0,0,1,689.42,437.78Zm5.4,1.24c-.74.62-2.44,1.37-1.52,2.77,1.53.35,2.64-.73,4.56-1,3.25-.39,7.26,1.48,8.44-.83C702.75,439.31,699.16,438.53,694.82,439Zm43.72,3.88a9.65,9.65,0,0,0,3.19.14c.66-.38.7-2,.41-2.91C739.8,439.21,738.11,440.75,738.54,442.9Zm-3.46-2.77A45,45,0,0,0,724,442.35c-1.15,1.54-2.54,4-4.71,4.56-1.18.31-2.19-.23-2.35.83s1.41,1.67,2.77,1.38,2.78-2.11,4.56-3c1.09-.56,2.26-.65,3.32-1.11.46-.19.78-.65,1.25-.83a23.44,23.44,0,0,1,2.91-.41c1.49-.3,3.11-1,4.84-.55.66-.58.72-1.77.83-2.91C736.72,439.75,735.87,440.05,735.08,440.13ZM707.27,445c.48-.22.84-.79,1.25-1,1-.45,3.51-.41,3.46-1.66,0-.46-1.77-1.66-2.49-1.39a38.43,38.43,0,0,0-8.86,4.57c.48,1.23,1.79,1.63,3.46,1.66A8.06,8.06,0,0,1,707.27,445Zm-10-2.9a2.75,2.75,0,0,0,1.94,2.77c1.34.11,2.65-1.79,3.32-2.63C701.51,441.51,698.53,441.92,697.31,442.07Zm-3.32.83c-1.66,2.7.17,6,0,8.85,0,.56-.35,1.12-.41,1.66-.34,3-.46,6.28-.56,9.41,0,1.62-.71,3.42-.83,5.12-.07,1,.16,2.05,0,2.91-.25,1.38-1.75,3.53-2.07,4.7-.39,1.39.09,2.94-.14,4.29-.31,1.81-1.87,3.26-.83,4.85,1.35-.63,2.18-1.95,3.18-2.91,3.31-3.16,6.88-5.81,9.83-9.27.49.08.66-.16,1-.28,1-1.54,2.87-2.24,4.29-3.46,1-.86,1.58-2.29,2.91-2.63.3-.62.84-1,1.11-1.66a66.07,66.07,0,0,0,9.13-9.68c.94-1.19,3.45-3,2.49-4.43-2.4-.13-3.73.26-5.54-.28-.34-.1-.58-.62-1.1-.83-.33-.13-.88,0-1.11-.14-1.41-.71-2.27-2.1-3.74-1.93-.78.09-2.12,1.16-3,1.8a32.31,32.31,0,0,0-2.91,2.07c-.88.8-1.14,1.58-2.21,1.66a7.27,7.27,0,0,1-4.15-1.38c-.9,0-2,.2-2.21-.55.11-2.05,1.34-3,1.24-5.26C696.66,444.9,696.64,442.05,694,442.9Zm20.62,2.63c-.28.41-.77.61-.69,1.38.6.42,1,.35,1.93.28,1.34-1.33-.28-3.28-1.24-4A2.28,2.28,0,0,0,714.61,445.53Zm-2.77-1.66a33.89,33.89,0,0,0-6.92,3.73c0,.91-.86,2.21,0,2.77,1.07-.36,1.36-1.5,2.22-2.07a15.29,15.29,0,0,1,5.81-2.5C713.44,444.82,712.74,443.54,711.84,443.87Zm-10.79,4c-1-1.85-2.81.24-2.63,2.07,1.32.49,2.28,1.32,4,1.39,1-.43.56-1.55.55-2.77A3.68,3.68,0,0,0,701.05,447.88Zm32-.55c-1-.48-3-.59-3.74.41,3.32.47,4.75,2.82,6.09,5.26a3.46,3.46,0,0,0,1.94,0C737.15,450.77,734.92,448.24,733,447.33Zm-.69,3.46a5,5,0,0,0-3.46-1.94c-2-.24-6-.57-5.54,1.24,1.84.44,3.08-.1,4.71.14,2.07.31,3.13,2,4.15,3.32.59.76,1,2.16,2.49,1.8C734.92,454.05,733.46,452.2,732.32,450.79Zm3.18,5.67c1.67.72,3.56-1,2.35-2.35C736.27,454.09,735.65,455.05,735.5,456.46Z" transform="translate(-454.19 -327.27)"/><path class="cls-10" d="M616.47,497.22c3.37.25,5.5-3.21,7-3.27-.6,2.21-4.18,3.91-2.34,7,4.53-2.17,6-7.37,8.42-11.69v1.87c15.17-8.21,26.48-20.27,29.92-40.21,1,1.66,1.55,3.75,2.8,5.15.12-6.82.18-13.58-1.4-18.7,2.27,1,2.7,3.84,4.21,5.61,1.56-6-1.43-13.39-1.87-17.3,2.56,1.49,3.56,4.54,6.08,6.08-.44-11.26-3.18-20.2-7.48-27.59-3.9,2.44-9,8.65-15,4.68-3,2.41-10.68,6.91-14,1.87a46,46,0,0,1-10.75,3.74c5.42,11.12,9.85,21.28,8.88,34.59-1.16,15.87-8.49,28.24-16.36,37.41-3.84,4.46-11.66,9.11-6.55,13.09.4-3.19,3.41-3.76,4.68-6.08.47,1.75-1.94,3-.94,3.74a27.32,27.32,0,0,0,6.08-3.74C617.89,494.82,614.47,496.92,616.47,497.22Z" transform="translate(-454.19 -327.27)"/><path class="cls-10" d="M532.31,408.86c8.58-1,3.34-14.07.47-17.3-6.38-7.17-27.37-12.79-32.73-4.68-2.47,3.74.54,7.4-.47,12.63-.42,2.21-3.68,4.09-4.2,6.54-.93,4.31,2.49,7,2.33,12.16-.09,3.23-3.23,4.34-2.8,8.41,1,9.38,34,14,31.32-3.74-5.82-.87-13.47.07-16.36-3.74,7.24,4.17,23.68,3.39,20.57-7.48-1.42-5-14.78-8.29-15.43-12.62C520.58,400.29,525,409.67,532.31,408.86Z" transform="translate(-454.19 -327.27)"/><path class="cls-10" d="M558.49,461.69c9-12.59,10-40.92.94-54.24-2.83,0-5-.65-7.48-.93-.27,2.23-.49,4.5-1.41,6.08,2.84-12.81-10.94-25-10.28-35.54.39-6.26,8.74-13.47,4.67-19.63-1.5-2.28-6.59-3.33-8.88-2.81-4.52,1-9.61,10.22-9.82,16.83-.19,6.19,3.33,10.27,3.28,15.9,6.94,3.21,14.68,21.36,1.4,23.38,2.7,4.28-.47,9.48-3.74,10.75,3.18,9-5.15,13.2-12.63,14.49,2.39,5.87,12.68,5.82,19.64,5.61-3.68,1.65-8.3,1.43-12.62.47,1.31,6.33,4.19,11.08,9.35,13.56,1.57-2.79-2.21-6.42-.94-8.88,2.78,5.22,6.23,12.09,13.09,11.68.67-2.86-1.22-5.61-.46-7,2.34,5.14,3.92,11,10.75,11.69,1.79-2.86-1.22-7.1-.47-8.88C554.26,457.19,554.87,461,558.49,461.69Z" transform="translate(-454.19 -327.27)"/><path class="cls-10" d="M705.3,463.09c1-.93.29-1.43,0-1.87-4.62-7-21.66-6.14-28.52-3.74,2.29,6.15,2,15.09,1.4,22.91,5,3.17,9.94.69,13.09-2.81-.94-.77-3.47,0-4.21-.93,8.2.85,17.71,4.71,18.24-5.61-2.87-.25-6-.2-8.42-.94,10-.28,16.47,2.61,21.51-2.8,3.53-3.8,6.65-11.44,8.41-16.37-10.32-4.31-15.19,8.32-21.5,12.63Z" transform="translate(-454.19 -327.27)"/><path class="cls-11" d="M647.07,408.91c-2.79,2.27-9.78,6.38-13.39,2.67a7.86,7.86,0,0,1-2.68.1,38.2,38.2,0,0,1-8.71,2.84c5.42,11.13,9.85,21.28,8.88,34.6-1.15,15.86-8.49,28.24-16.36,37.4-2.68,3.12-7.3,6.33-8.1,9.34a26.8,26.8,0,0,0,5.88-3.64c0,1.22-2.78,3-1.81,3.6a8.23,8.23,0,0,0,2.16-2.28,2.94,2.94,0,0,1-.75,2.37c2.8-.39,4.65-3.17,6-3.23a4.26,4.26,0,0,1-.68,1.32l.56-.46c0,1.34-3.4,3.44-1.4,3.73a5.27,5.27,0,0,0,2.89-.67c1.94-2.5,3.13-5.73,4.71-8.59v1.87c15.16-8.21,26.48-20.28,29.92-40.21,1,1.66,1.55,3.75,2.8,5.14.12-6.81.18-13.57-1.4-18.7,2.27,1,2.7,3.85,4.21,5.61,1.56-6-1.43-13.38-1.87-17.3,2.56,1.5,3.56,4.54,6.08,6.08,0-.76-.07-1.51-.13-2.25a24,24,0,0,1-.46-2.51l.26.17a57.45,57.45,0,0,0-5.12-19.12C655.27,409.31,651.39,411.8,647.07,408.91Z" transform="translate(-454.19 -327.27)"/><path class="cls-11" d="M521,422.54c-3.28-.2-6.53-.42-8.84-1.57-3.22-.33-6.1-1-7.63-3a18.39,18.39,0,0,0,6.16,2,5,5,0,0,1-.66-.72,13.06,13.06,0,0,0,1.84.88c7.38.81,15.5-1.75,13.23-9.68-1.42-5-14.77-8.29-15.42-12.62,5.51,1.24,9.93,10.42,17.06,9.83-4.46-2.94-11.12-5.48-11.57-8.51,4,.9,7.44,6,11.76,8.5h0c8.58-1,3.35-14.07.47-17.3-2.47-2.78-7.13-5.32-12.23-6.92-6.36-1-12.45-.3-15,3.56s.54,7.4-.47,12.63c-.43,2.21-3.69,4.09-4.21,6.54-.92,4.31,2.49,7,2.34,12.16-.1,3.24-3.23,4.34-2.81,8.41.3,2.81,3.46,5.19,7.68,6.66C511.73,434.68,521.87,432.1,521,422.54Z" transform="translate(-454.19 -327.27)"/><path class="cls-11" d="M560.33,407.09c-.81-.15-7.38-.29-8.24-.38-.26,2.23-.49,4.49-1.4,6.07a17.68,17.68,0,0,0,.11-6.72c-1.41-.22-2.74-.51-4.2-.67-.26,2.23-.49,4.5-1.4,6.07,2.83-12.8-11-25-10.29-35.53.39-6.26,8.75-13.48,4.68-19.63a5.25,5.25,0,0,0-2-1.62,6.51,6.51,0,0,0-1.41.13c-4.52,1-9.61,10.22-9.82,16.83-.2,6.19,3.32,10.27,3.27,15.9,7,3.21,14.69,21.36,1.4,23.37,2.71,4.28-.46,9.48-3.74,10.76,3.19,9-5.15,13.2-12.62,14.49a7.62,7.62,0,0,0,4.45,4,65.15,65.15,0,0,0,9.69.25,14.14,14.14,0,0,1-4.12,1.08,66.94,66.94,0,0,0,9.62.24c-3.69,1.64-8.3,1.42-12.63.47a21.92,21.92,0,0,0,4,9.33c-.54-2.11-2-4.31-1.12-6,1.73,3.28,3.74,7.2,6.68,9.57.77-2.69-2.37-6-1.19-8.25,1.91,3.61,4.15,8,7.62,10.25.58-2.82-1.23-5.52-.49-6.89,1.31,2.87,2.38,6,4.27,8.28a9.41,9.41,0,0,0,1.69.05c.67-2.86-1.22-5.62-.47-7,1.6,3.48,2.84,7.32,5.6,9.63,1-2.81-1.49-6.51-.81-8.14,1.38,3,2,6.74,5.62,7.48.25-.36.5-.74.74-1.12-.41-2-1.31-4-.86-5.05.57,1.24,6.77,2.61,7.35,3.84C567.82,445,568.37,419.9,560.33,407.09Z" transform="translate(-454.19 -327.27)"/><path class="cls-11" d="M692.11,468.46c10-.28,16.47,2.6,21.51-2.8,3.4-3.65,6.4-10.85,8.2-15.78-6.67,1.24-10.78,9.93-15.8,13.35v-.46c1-.94.29-1.43,0-1.87a8.24,8.24,0,0,0-2.06-2.11,20.45,20.45,0,0,1-3.43,3.12v-.46c1-.93.29-1.43,0-1.87a10.63,10.63,0,0,0-5.29-3.81c-6.4-.87-13.77,0-17.74,1.39,2.29,6.15,2,15.09,1.4,22.9l.16.1a12.17,12.17,0,0,0,7.44-4.22c-.94-.78-3.47,0-4.21-.93,7.94.82,17.12,4.47,18.16-4.69a15.17,15.17,0,0,1-2.85-.54c1,0,2,0,2.9,0l0-.38C697.66,469.15,694.49,469.2,692.11,468.46Z" transform="translate(-454.19 -327.27)"/><path class="cls-10" d="M644.52,351.82c6.86-1.93,8.29,5.35,8.88,11.22C646.54,366.84,642.66,358.22,644.52,351.82Zm.93.93c-.62,1.6-1.11,5.33,1.41,5.15C650.67,357.49,649.16,350.69,645.45,352.75Z" transform="translate(-454.19 -327.27)"/><path class="cls-10" d="M655.27,334.52c-23.2-1.76-33.19,14.17-51.89,15.43-4.67.31-9.6-1.65-13.1,1.87,14.5,1.43,26.47-.47,36-5.15-1.26-.28-3.71.6-4.2-.46,6.73-6.52,21.38-5.11,30.85-8.89,1.93-.21,1.76,1.68,3.28,1.87,7.91-.06,14.1,3.91,19.16,5.15C672.56,338.56,663.84,335.17,655.27,334.52Z" transform="translate(-454.19 -327.27)"/><path class="cls-10" d="M644.05,343.87c3.83-.22,8.75.65,11.22-.94C655.46,335,645.08,339.65,644.05,343.87Z" transform="translate(-454.19 -327.27)"/><path class="cls-10" d="M655.74,353.69c-1-4.38-7.17-9.65-11.22-5.61s-.9,10.48.93,13.09C651.14,369.27,657.61,361.79,655.74,353.69Z" transform="translate(-454.19 -327.27)"/><path class="cls-10" d="M590.28,364c3.5-3,9.93-3.16,12.63-7C597.57,357.86,590.94,360,590.28,364Z" transform="translate(-454.19 -327.27)"/><path class="cls-10" d="M663.69,374.26c-2.06-1.87-4-5.36-6.08-6.08s-7.14-.26-11.69-.93c-11.79-1.76-20.69-2.43-27.12,4.2-13.54,14,1.89,29.37,18.7,29.46,16,.08,25.23-12.05,32.27-20.57C668.26,378,666,376.32,663.69,374.26Z" transform="translate(-454.19 -327.27)"/><path class="cls-10" d="M588.41,371.45c2.3-1.59,4.36-3.43,6.55-5.14C591.29,366.53,588.17,367.32,588.41,371.45Z" transform="translate(-454.19 -327.27)"/><path class="cls-10" d="M689.87,453.74c2.5.77,4.6,1.94,8,1.87.11-1.6,1.18-2.25.93-4.21C696,449.4,692.19,452.39,689.87,453.74Z" transform="translate(-454.19 -327.27)"/><path class="cls-10" d="M580.93,476.65c-13.84-1.43-21.83-8.71-34.59-11.22C553.72,473,566.2,478,580.93,476.65Z" transform="translate(-454.19 -327.27)"/><path class="cls-10" d="M560.36,480.39c-14.61-1.13-22.67-8.81-36.93-10.29C529.29,479.41,545.42,483.27,560.36,480.39Z" transform="translate(-454.19 -327.27)"/><path class="cls-10" d="M635.17,489.74c1.31,4.14,6.74,4.17,11.22,5.14.61-2-1.33-1.48-1.87-2.34,2.55-1.34,3.47-4.31,4.21-7.48,1.26.77.35,3.7,2.33,3.74a4.53,4.53,0,0,1,1.87-3.74c-.09,1.35.12,2.38.94,2.81,1.74-4.26.17-11.15-3.27-13.09C646.06,480.37,641.35,485.79,635.17,489.74Z" transform="translate(-454.19 -327.27)"/><path class="cls-10" d="M528.1,489.74c-6.42-.28-13.5-.87-18.7,1.4,9.83,5,29.16,4.23,40.68,1.87,4.33-.89,10.22-1.8,9.81-4.21C550.16,490.69,539.28,490.23,528.1,489.74Z" transform="translate(-454.19 -327.27)"/><path class="cls-10" d="M674.91,346.21c4.78,15.12-11.47,12.69-15.43,20.57,4.56,4.72,10.81,16.06,18.7,16.36,8.5.32,15.05-4,16.83-12.62a84.14,84.14,0,0,1-27.12-1.4c-.43,2,2.19,3.39,1.41,4.2-4.66-.74-4-9,1.4-8.41,0,1.65-3.2,1.71-1.87,3.27,12,2.06,31.8,3,39.74-3.27C705.66,352,690.39,339.72,674.91,346.21Z" transform="translate(-454.19 -327.27)"/><path class="cls-12" d="M675.67,349.63c1.29,11.25-12.59,9.84-16.21,17,4.56,4.73,10.81,16.07,18.7,16.37,8.5.32,15.05-4,16.83-12.63a83.86,83.86,0,0,1-27.12-1.4c-.43,2,2.19,3.4,1.41,4.21-4.66-.74-4-9,1.4-8.42,0,1.66-3.2,1.72-1.87,3.28,11.28,1.93,29.47,2.9,38.2-2.23C703.85,354.25,686,350.7,675.67,349.63Z" transform="translate(-454.19 -327.27)"/><path class="cls-5" d="M650.17,364.79a5.91,5.91,0,0,1-4.81-2.58,12.65,12.65,0,0,1-1.63-10.62l.13-.44.44-.12a8.67,8.67,0,0,1,2.33-.35c6.34,0,7.21,8.6,7.58,12.27l.06.54-.47.26A7.48,7.48,0,0,1,650.17,364.79Z" transform="translate(-454.19 -327.27)"/><path class="cls-5" d="M576.73,465.9c4.86,0,7.68-8.07,9.81-13.56a67.51,67.51,0,0,0,4.68-19.17c1.07-14.94-3.64-30.16-9.35-33.66-7-4.27-13,3.83-8,9.81,2.47,1,3-2.24,4.21-.93-.26,2.23-1.85,3.14-3.74,3.74-4.68-2-3.87-9.54-7.95-12.16-11.35-.1-4.35,8.55-1.87,14.5,6.88,16.47,1.88,37.71-4.68,49.55,3,3.81,7,3.49,9.36,1.41,5.5-4.8-1.09-20.22,7.48-18.24,2.3.54,2.16,2.63,2.8,5.61-1.66-.78-2.46-3.48-4.67-2.33C572.79,454.57,570.06,466,576.73,465.9Z" transform="translate(-454.19 -327.27)"/><path class="cls-5" d="M676.78,456.08c6.72-.61,12.33-2.32,15-7-2.66-3.54-8.7-1.39-9.35,2.34-.83-1.28-.86-5,.93-5.14,2.75-.62,10.75,1.48,11.69-2.34-3.14-5.9-17.47-.6-22.44-4.67-.29,0-.55.07-.47.46A33.92,33.92,0,0,0,676.78,456.08Z" transform="translate(-454.19 -327.27)"/><path class="cls-13" d="M608.05,475.25c-9,10.2-19.5,19.78-31.79,24.31,5,2,9.55,4.47,16.36,4.67,17.19-14,40.67-32.11,36.94-65.45-.44-3.91-2-7.2-3.28-11.22C628.26,449.07,618.23,463.72,608.05,475.25Z" transform="translate(-454.19 -327.27)"/><path class="cls-13" d="M674.44,486.47c5.11-11.23,2.32-28.4-2.81-37.41C669.26,461.9,672.78,474.8,674.44,486.47Z" transform="translate(-454.19 -327.27)"/><path class="cls-14" d="M647.32,493c2.92,6,8.11,9.66,9.82,16.83-1.44,2-6.91,0-8.41,1.87-2.79,11,7.55,7.54,15.89,9.35,7.06,1.54,18.33,17.67,26.18,12.16,1.39-1,2.41-4.65,2.34-6.08-.34-7.54-8.95-6.57-12.15-11.22,6,2.25,11.64,4.88,14.49,10.29,4.08-.75,7.67-2,7-7.48-3.84-5.51-16.53-2.18-21-7,5.54,1.79,12.11,2.55,19.17,2.81,2.86-12.69-13.14-5.33-21.5-5.61-12.31-.41-21.44-13.85-26.19-20.57-2.12-.26-.6,3.13-2.33,3.27-.55-1.32-.65-3.09-1.87-3.74C648.75,490.07,647.22,490.72,647.32,493Z" transform="translate(-454.19 -327.27)"/><path class="cls-14" d="M577.19,534.15c1.37,8.89,15.46-3.66,17.3-5.6-3.18,7.09-13.81,6.75-12.62,18.23,5,5.12,15.79.93,18.7-3.28.67-6,3.42-12.47,6.55-14.49-4.82,7.66-8.07,20.26.93,21,5.72.5,10.51-4.2,10.75-11.22.08-2.3-1.39-5.19-.93-8,.78-4.75,9.66-7.89,8.88-13.09-.45-3-4.17-4-7-2.8-1.44,2-.48,6.37-2.34,7.94.25-8.63,1.56-16.21,1.87-24.78-4.72-.29-6.4.26-9.35,0-2.5,8.1-6.4,14.8-9.82,22C594.15,525,575.78,525,577.19,534.15Z" transform="translate(-454.19 -327.27)"/><path class="cls-9" d="M644.52,351.82c6.86-1.93,8.29,5.35,8.88,11.22C646.54,366.84,642.66,358.22,644.52,351.82Zm.93.93c-.62,1.6-1.11,5.33,1.41,5.15C650.67,357.49,649.16,350.69,645.45,352.75Z" transform="translate(-454.19 -327.27)"/><path class="cls-10" d="M645.45,352.75c-.62,1.6-1.11,5.33,1.41,5.15C650.67,357.49,649.16,350.69,645.45,352.75Z" transform="translate(-454.19 -327.27)"/><path class="cls-15" d="M626.28,346.67c-1.26-.28-3.71.6-4.2-.46,6.73-6.52,21.38-5.11,30.85-8.89,1.93-.21,1.76,1.68,3.28,1.87,7.91-.06,14.1,3.91,19.16,5.15-2.81-5.78-11.53-9.17-20.1-9.82-23.2-1.76-33.19,14.17-51.89,15.43-4.67.31-9.6-1.65-13.1,1.87C604.78,353.25,616.75,351.35,626.28,346.67Z" transform="translate(-454.19 -327.27)"/><path class="cls-15" d="M659.48,366.78c4.56,4.72,10.81,16.06,18.7,16.36,8.5.32,15.05-4,16.83-12.62a84.14,84.14,0,0,1-27.12-1.4c-.43,2,2.19,3.39,1.41,4.2-4.66-.74-4-9,1.4-8.41,0,1.65-3.2,1.71-1.87,3.27,12,2.06,31.8,3,39.74-3.27-2.91-12.92-18.18-25.19-33.66-18.7C679.69,361.33,663.44,358.9,659.48,366.78Z" transform="translate(-454.19 -327.27)"/><path class="cls-15" d="M655.27,342.93c.19-8-10.19-3.28-11.22.94C647.88,343.65,652.8,344.52,655.27,342.93Z" transform="translate(-454.19 -327.27)"/><path class="cls-15" d="M602.91,357c-5.34.9-12,3-12.63,7C593.78,360.93,600.21,360.81,602.91,357Z" transform="translate(-454.19 -327.27)"/><path class="cls-15" d="M588.41,371.45c2.3-1.59,4.36-3.43,6.55-5.14C591.29,366.53,588.17,367.32,588.41,371.45Z" transform="translate(-454.19 -327.27)"/><path class="cls-15" d="M580.93,476.65c-13.84-1.43-21.83-8.71-34.59-11.22C553.72,473,566.2,478,580.93,476.65Z" transform="translate(-454.19 -327.27)"/><path class="cls-15" d="M526.23,422.88c-5.82-.87-13.47.07-16.36-3.74,7.24,4.17,23.68,3.39,20.57-7.48-1.42-5-14.78-8.29-15.43-12.62,5.57,1.25,10,10.63,17.3,9.82,8.58-1,3.34-14.07.47-17.3-6.38-7.17-27.37-12.79-32.73-4.68-2.47,3.74.54,7.4-.47,12.63-.42,2.21-3.68,4.09-4.2,6.54-.93,4.31,2.49,7,2.33,12.16-.09,3.23-3.23,4.34-2.8,8.41C495.89,436,529,440.58,526.23,422.88Z" transform="translate(-454.19 -327.27)"/><path class="cls-15" d="M560.36,480.39c-14.61-1.13-22.67-8.81-36.93-10.29C529.29,479.41,545.42,483.27,560.36,480.39Z" transform="translate(-454.19 -327.27)"/><path class="cls-15" d="M645.45,361.17c5.69,8.1,12.16.62,10.29-7.48-1-4.38-7.17-9.65-11.22-5.61S643.62,358.56,645.45,361.17Z" transform="translate(-454.19 -327.27)"/><path class="cls-15" d="M676.78,456.08c6.72-.61,12.33-2.32,15-7-2.66-3.54-8.7-1.39-9.35,2.34-.83-1.28-.86-5,.93-5.14,2.75-.62,10.75,1.48,11.69-2.34-3.14-5.9-17.47-.6-22.44-4.67-.29,0-.55.07-.47.46A33.92,33.92,0,0,0,676.78,456.08Z" transform="translate(-454.19 -327.27)"/><path class="cls-15" d="M663.69,374.26c-2.06-1.87-4-5.36-6.08-6.08s-7.14-.26-11.69-.93c-11.79-1.76-20.69-2.43-27.12,4.2-13.54,14,1.89,29.37,18.7,29.46,16,.08,25.23-12.05,32.27-20.57C668.26,378,666,376.32,663.69,374.26Z" transform="translate(-454.19 -327.27)"/><path class="cls-15" d="M528.1,489.74c-6.42-.28-13.5-.87-18.7,1.4,9.83,5,29.16,4.23,40.68,1.87,4.33-.89,10.22-1.8,9.81-4.21C550.16,490.69,539.28,490.23,528.1,489.74Z" transform="translate(-454.19 -327.27)"/><path class="cls-15" d="M646.86,408.86c-3,2.41-10.68,6.91-14,1.87a46,46,0,0,1-10.75,3.74c5.42,11.12,9.85,21.28,8.88,34.59-1.16,15.87-8.49,28.24-16.36,37.41-3.84,4.46-11.66,9.11-6.55,13.09.4-3.19,3.41-3.76,4.68-6.08.47,1.75-1.94,3-.94,3.74a27.32,27.32,0,0,0,6.08-3.74c0,1.34-3.4,3.44-1.4,3.74,3.37.25,5.5-3.21,7-3.27-.6,2.21-4.18,3.91-2.34,7,4.53-2.17,6-7.37,8.42-11.69v1.87c15.17-8.21,26.48-20.27,29.92-40.21,1,1.66,1.55,3.75,2.8,5.15.12-6.82.18-13.58-1.4-18.7,2.27,1,2.7,3.84,4.21,5.61,1.56-6-1.43-13.39-1.87-17.3,2.56,1.49,3.56,4.54,6.08,6.08-.44-11.26-3.18-20.2-7.48-27.59C657.92,406.62,652.8,412.83,646.86,408.86Z" transform="translate(-454.19 -327.27)"/><path class="cls-15" d="M674.44,486.47c5.11-11.23,2.32-28.4-2.81-37.41C669.26,461.9,672.78,474.8,674.44,486.47Z" transform="translate(-454.19 -327.27)"/><path class="cls-15" d="M650.6,474.78c-4.54,5.59-9.25,11-15.43,15,1.31,4.14,6.74,4.17,11.22,5.14.61-2-1.33-1.48-1.87-2.34,2.55-1.34,3.47-4.31,4.21-7.48,1.26.77.35,3.7,2.33,3.74a4.53,4.53,0,0,1,1.87-3.74c-.09,1.35.12,2.38.94,2.81C655.61,483.61,654,476.72,650.6,474.78Z" transform="translate(-454.19 -327.27)"/><path class="cls-15" d="M705.3,463.56v-.47c1-.93.29-1.43,0-1.87-4.62-7-21.66-6.14-28.52-3.74,2.29,6.15,2,15.09,1.4,22.91,5,3.17,9.94.69,13.09-2.81-.94-.77-3.47,0-4.21-.93,8.2.85,17.71,4.71,18.24-5.61-2.87-.25-6-.2-8.42-.94,10-.28,16.47,2.61,21.51-2.8,3.53-3.8,6.65-11.44,8.41-16.37C716.48,446.62,711.61,459.25,705.3,463.56Z" transform="translate(-454.19 -327.27)"/><path class="cls-15" d="M591.22,433.17c1.07-14.94-3.64-30.16-9.35-33.66-7-4.27-13,3.83-8,9.81,2.47,1,3-2.24,4.21-.93-.26,2.23-1.85,3.14-3.74,3.74-4.68-2-3.87-9.54-7.95-12.16-11.35-.1-4.35,8.55-1.87,14.5,6.88,16.47,1.88,37.71-4.68,49.55,3,3.81,7,3.49,9.36,1.41,5.5-4.8-1.09-20.22,7.48-18.24,2.3.54,2.16,2.63,2.8,5.61-1.66-.78-2.46-3.48-4.67-2.33-2.07,4.1-4.8,15.48,1.87,15.43,4.86,0,7.68-8.07,9.81-13.56A67.51,67.51,0,0,0,591.22,433.17Z" transform="translate(-454.19 -327.27)"/><path class="cls-15" d="M650.6,491.61c-.55-1.32-.65-3.09-1.87-3.74,0,2.2-1.51,2.85-1.41,5.14,2.92,6,8.11,9.66,9.82,16.83-1.44,2-6.91,0-8.41,1.87-2.79,11,7.55,7.54,15.89,9.35,7.06,1.54,18.33,17.67,26.18,12.16,1.39-1,2.41-4.65,2.34-6.08-.34-7.54-8.95-6.57-12.15-11.22,6,2.25,11.64,4.88,14.49,10.29,4.08-.75,7.67-2,7-7.48-3.84-5.51-16.53-2.18-21-7,5.54,1.79,12.11,2.55,19.17,2.81,2.86-12.69-13.14-5.33-21.5-5.61-12.31-.41-21.44-13.85-26.19-20.57C650.81,488.08,652.33,491.47,650.6,491.61Z" transform="translate(-454.19 -327.27)"/><path class="cls-15" d="M559.43,407.45c-2.83,0-5-.65-7.48-.93-.27,2.23-.49,4.5-1.41,6.08,2.84-12.81-10.94-25-10.28-35.54.39-6.26,8.74-13.47,4.67-19.63-1.5-2.28-6.59-3.33-8.88-2.81-4.52,1-9.61,10.22-9.82,16.83-.19,6.19,3.33,10.27,3.28,15.9,6.94,3.21,14.68,21.36,1.4,23.38,2.7,4.28-.47,9.48-3.74,10.75,3.18,9-5.15,13.2-12.63,14.49,2.39,5.87,12.68,5.82,19.64,5.61-3.68,1.65-8.3,1.43-12.62.47,1.31,6.33,4.19,11.08,9.35,13.56,1.57-2.79-2.21-6.42-.94-8.88,2.78,5.22,6.23,12.09,13.09,11.68.67-2.86-1.22-5.61-.46-7,2.34,5.14,3.92,11,10.75,11.69,1.79-2.86-1.22-7.1-.47-8.88,1.38,3,2,6.74,5.61,7.48C567.47,449.1,568.5,420.77,559.43,407.45Z" transform="translate(-454.19 -327.27)"/><path class="cls-15" d="M629.56,438.78c-.44-3.91-2-7.2-3.28-11.22,2,21.51-8,36.16-18.23,47.69-9,10.2-19.5,19.78-31.79,24.31,5,2,9.55,4.47,16.36,4.67C609.81,490.26,633.29,472.12,629.56,438.78Z" transform="translate(-454.19 -327.27)"/><path class="cls-15" d="M609.92,498.15c-2.5,8.1-6.4,14.8-9.82,22-6,4.83-24.32,4.87-22.91,14,1.37,8.89,15.46-3.66,17.3-5.6-3.18,7.09-13.81,6.75-12.62,18.23,5,5.12,15.79.93,18.7-3.28.67-6,3.42-12.47,6.55-14.49-4.82,7.66-8.07,20.26.93,21,5.72.5,10.51-4.2,10.75-11.22.08-2.3-1.39-5.19-.93-8,.78-4.75,9.66-7.89,8.88-13.09-.45-3-4.17-4-7-2.8-1.44,2-.48,6.37-2.34,7.94.25-8.63,1.56-16.21,1.87-24.78C614.55,497.86,612.87,498.41,609.92,498.15Z" transform="translate(-454.19 -327.27)"/><path class="cls-16" d="M727.27,449.53c-5.44-2.93-9.46.55-12.72,3.23-.43.44-.89.92-1.38,1.46-2.7,3-6.79,6.79-6.79,6.79-2-5.87-13.75-6.33-14.1-6.34,0,.14,0,0,0,0h0c0-.2,0-.94,0-3.37a9.58,9.58,0,0,1,.06-1.26l-.11,0c-.11-3.53,3.64-3.21,4.2-6.08.34-2.36-1.72-2.33-1.87-4.21,2.88-3.78,10.22-7,8.89-12.62-1.52-6.41-14.17-3.34-18.7-7.95,2.36-4.27,2.77-12-1.41-14.49,1.8-2.27,4.34-5.72,2.81-9.82-8.85-2.91-14.33,5.18-22.44,6.08,4-5.45,5.72-14,12.62-16.37,2.24-.77,4.68-.12,6.55-.46,7.66-1.41,12.56-6.89,14.49-14,5.15-.46,10-1.24,12.62-4.21-3.47-14.66-14.67-23.9-32.72-22.44-8.36-11.92-34.14-12-48.63-5.14-7.83,3.69-14,9.08-22.44,10.28-3.59.52-9.27-.39-12.16,0-9.49,1.31-3.43,9.07,1.87,9.36a24.43,24.43,0,0,0-6.54,4.67c2.48,5.06-2.91,4.32-2.34,9.82,1.6,2.75,6,.16,7.48.47-3.46,7.43-4.69,18.57-3.74,29-5.53-.29-9.82-6.81-15.43-4.67-2.1.8-2.7,2.9-4.2,5.14-3.17-6.89-13.89-3.09-14,3.74a15.61,15.61,0,0,1-5.61-1.4c.14-10.92-10-16.91-9.82-26.18.13-7.41,6.82-10.76,5.61-20.11-2.91-6.28-11.94-6.19-16.36-1.87-7,6.79-6,20.22-2.81,29.92-9.66-6.36-35.63-7.58-29.45,12.16-2.38,4.59-4.57,6.4-4.21,11.22.23,3.11,2.92,5.51,2.81,8.42-.16,3.84-4.64,6.17-2.81,10.75,3.69,4.72,10.46,6.37,18.23,7a38.23,38.23,0,0,0,8,6.08c1.92,6.5,4.48,12.36,10.76,14.49,1.07-.48-.23-3.33.93-3.74,3.19,2.58,4.59,6.95,9.82,7.48,2,.24,1.28-2.14,2.34-2.8,2.21,2.93,3.57,6.71,8.41,7,1.7-.32,1.62-2.44,2.34-3.74,3.43,3.33,6.32,8.54,12.16,7,1.92-.5,2.31-2.05,4.67-2.8.71,4.28,6.39,1.88,8.42,1.87.68,2.6,2.1,6.92,1.4,9.35-14.76-1.31-23.06-11.5-37.4-11.69-3,6.77,3.89,10.42,7.94,13.09-11.24-1.26-18.89-10.45-30.85-7.94-6.72,11.56,17.71,19.32,29.92,19.16-11.71,2.84-27.15-2.77-39.27-.46-2.28.43-4.82,1.87-5.15,3.74-1.43,8.14,14.92,11.59,23.38,12.15,25.23,1.69,39.81-12.73,52.36-21.5-.5,8.37-2,15.78-10.28,16.36,5.69,2.6,12.49,8,20.1,6.55,5-1,7.57-7,12.16-8.42.84,1.65,2.14,2.85,2.8,4.68-4.78,5.69-3.84,14.65-10.28,18.7-7.56,4.74-24.5,2.73-20.11,16.36.81,1.38,3,1.34,4.21,2.34-.7,2.3-1.52,4.75-.93,7,2.15,8.24,17,2.75,20.57-.93a10.92,10.92,0,0,0,4.2,6.07c13.74,1.66,16.31-8.45,14.5-21,3.25-4.35,13.06-11.58,5.14-17.29-2.46-.73-4.48,1.41-5.61.46.51-3.39.56-7.23.94-10.75,6.52-2.05,6.43-10.71,13.56-12.16a13.91,13.91,0,0,0,13.55,4.68c2.7,4.63,6.15,8.5,8.42,13.56-1.49,1.47-5.53.39-7.48,1.4-2,3.1-.7,8.19.93,9.82,3,3,7.76,1.28,13.09,1.87,9.55,1.06,14.93,12.57,23.38,13.56,7,.82,8.53-3.61,9.35-7.95,5.19-.73,9.16-2.54,9.35-6.55.17-3.48-4.47-6-1.4-9.35-3.48-11.62-18-2.71-26.18-4.21-10.87-2-16-11.65-22.44-18.7,3-3.57-.56-10-.47-13.09,9.93,2.54,14.63,10.3,18.7,18.7,2.11-4.12,3.26-9.2,5.61-13.09,5.63,4.46,10.59-.66,14.49-3.27,6.3,4.23,13.25.06,14-6.54,10.78,2.62,12.62-5.09,16.36-11.23C725.85,455.72,729.47,454.71,727.27,449.53ZM550.08,493c-11.52,2.36-30.85,3.17-40.68-1.87,5.2-2.27,12.28-1.68,18.7-1.4,11.18.49,22.06.95,31.79-.94C560.3,491.21,554.41,492.12,550.08,493ZM523.43,470.1c14.26,1.48,22.32,9.16,36.93,10.29C545.42,483.27,529.29,479.41,523.43,470.1Zm22.91-4.67c12.76,2.51,20.75,9.79,34.59,11.22C566.2,478,553.72,473,546.34,465.43Zm126.23-26.18c5,4.07,19.3-1.23,22.44,4.67-.94,3.82-8.94,1.72-11.69,2.34-1.79.14-1.76,3.86-.93,5.14.65-3.73,6.69-5.88,9.35-2.34-2.63,4.7-8.24,6.41-15,7a33.92,33.92,0,0,1-4.68-16.37C672,439.32,672.28,439.27,672.57,439.25ZM637.5,400.91c-16.81-.09-32.24-15.47-18.7-29.46,6.43-6.63,15.33-6,27.12-4.2,4.55.67,9.67.23,11.69.93s4,4.21,6.08,6.08c2.27,2.06,4.57,3.75,6.08,6.08C662.73,388.86,653.55,401,637.5,400.91Zm7-52.83c4.05-4,10.21,1.23,11.22,5.61,1.87,8.1-4.6,15.58-10.29,7.48C643.62,358.56,640.43,352.16,644.52,348.08Zm-.47-4.21c1-4.22,11.41-8.91,11.22-.94C652.8,344.52,647.88,343.65,644.05,343.87Zm64.52,21c-7.94,6.3-27.75,5.33-39.74,3.27-1.33-1.56,1.84-1.62,1.87-3.27-5.42-.58-6.06,7.67-1.4,8.41.78-.81-1.84-2.19-1.41-4.2a84.14,84.14,0,0,0,27.12,1.4c-1.78,8.61-8.33,12.94-16.83,12.62-7.89-.3-14.14-11.64-18.7-16.36,4-7.88,20.21-5.45,15.43-20.57C690.39,339.72,705.66,352,708.57,364.91ZM590.28,351.82c3.5-3.52,8.43-1.56,13.1-1.87,18.7-1.26,28.69-17.19,51.89-15.43,8.57.65,17.29,4,20.1,9.82-5.06-1.24-11.25-5.21-19.16-5.15-1.52-.19-1.35-2.08-3.28-1.87-9.47,3.78-24.12,2.37-30.85,8.89.49,1.06,2.94.18,4.2.46C616.75,351.35,604.78,353.25,590.28,351.82ZM602.91,357c-2.7,3.85-9.13,4-12.63,7C590.94,360,597.57,357.86,602.91,357Zm-14.5,14.49c-.24-4.13,2.88-4.92,6.55-5.14C592.77,368,590.71,369.86,588.41,371.45Zm-93.5,55.17c-.43-4.07,2.71-5.18,2.8-8.41.16-5.16-3.26-7.85-2.33-12.16.52-2.45,3.78-4.33,4.2-6.54,1-5.23-2-8.89.47-12.63,5.36-8.11,26.35-2.49,32.73,4.68,2.87,3.23,8.11,16.34-.47,17.3-7.27.81-11.73-8.57-17.3-9.82.65,4.33,14,7.66,15.43,12.62,3.11,10.87-13.33,11.65-20.57,7.48,2.89,3.81,10.54,2.87,16.36,3.74C529,440.58,495.89,436,494.91,426.62Zm63.58,35.07c-3.62-.74-4.23-4.5-5.61-7.48-.75,1.78,2.26,6,.47,8.88-6.83-.65-8.41-6.55-10.75-11.69-.76,1.4,1.13,4.15.46,7-6.86.41-10.31-6.46-13.09-11.68-1.27,2.46,2.51,6.09.94,8.88-5.16-2.48-8-7.23-9.35-13.56,4.32,1,8.94,1.18,12.62-.47-7,.21-17.25.26-19.64-5.61,7.48-1.29,15.81-5.52,12.63-14.49,3.27-1.27,6.44-6.47,3.74-10.75,13.28-2,5.54-20.17-1.4-23.38,0-5.63-3.47-9.71-3.28-15.9.21-6.61,5.3-15.79,9.82-16.83,2.29-.52,7.38.53,8.88,2.81,4.07,6.16-4.28,13.37-4.67,19.63-.66,10.56,13.12,22.73,10.28,35.54.92-1.58,1.14-3.85,1.41-6.08,2.52.28,4.65,1,7.48.93C568.5,420.77,567.47,449.1,558.49,461.69Zm18.24,4.21c-6.67.05-3.94-11.33-1.87-15.43,2.21-1.15,3,1.55,4.67,2.33-.64-3-.5-5.07-2.8-5.61-8.57-2-2,13.44-7.48,18.24-2.39,2.08-6.36,2.4-9.36-1.41,6.56-11.84,11.56-33.08,4.68-49.55-2.48-6-9.48-14.6,1.87-14.5,4.08,2.62,3.27,10.13,7.95,12.16,1.89-.6,3.48-1.51,3.74-3.74-1.19-1.31-1.74,2-4.21.93-5.07-6,1-14.08,8-9.81,5.71,3.5,10.42,18.72,9.35,33.66a67.51,67.51,0,0,1-4.68,19.17C584.41,457.83,581.59,465.85,576.73,465.9Zm15.89,38.33c-6.81-.2-11.38-2.64-16.36-4.67,12.29-4.53,22.78-14.11,31.79-24.31,10.18-11.53,20.21-26.18,18.23-47.69,1.24,4,2.84,7.31,3.28,11.22C633.29,472.12,609.81,490.26,592.62,504.23Zm24.78,18.7c1.86-1.57.9-5.95,2.34-7.94,2.84-1.16,6.56-.2,7,2.8.78,5.2-8.1,8.34-8.88,13.09-.46,2.76,1,5.65.93,8-.24,7-5,11.72-10.75,11.22-9-.78-5.75-13.38-.93-21-3.13,2-5.88,8.46-6.55,14.49-2.91,4.21-13.66,8.4-18.7,3.28-1.19-11.48,9.44-11.14,12.62-18.23-1.84,1.94-15.93,14.49-17.3,5.6-1.41-9.15,17-9.19,22.91-14,3.42-7.18,7.32-13.88,9.82-22,3,.26,4.63-.29,9.35,0C619,506.72,617.65,514.3,617.4,522.93Zm61.72-14c8.36.28,24.36-7.08,21.5,5.61-7.06-.26-13.63-1-19.17-2.81,4.51,4.84,17.2,1.51,21,7,.66,5.48-2.93,6.73-7,7.48-2.85-5.41-8.49-8-14.49-10.29,3.2,4.65,11.81,3.68,12.15,11.22.07,1.43-.95,5.11-2.34,6.08-7.85,5.51-19.12-10.62-26.18-12.16-8.34-1.81-18.68,1.66-15.89-9.35,1.5-1.92,7,.12,8.41-1.87-1.71-7.17-6.9-10.86-9.82-16.83-.1-2.29,1.43-2.94,1.41-5.14,1.22.65,1.32,2.42,1.87,3.74,1.73-.14.21-3.53,2.33-3.27C657.68,495.06,666.81,508.5,679.12,508.91Zm-25.25-21c-.82-.43-1-1.46-.94-2.81a4.53,4.53,0,0,0-1.87,3.74c-2,0-1.07-3-2.33-3.74-.74,3.17-1.66,6.14-4.21,7.48.54.86,2.48.33,1.87,2.34-4.48-1-9.91-1-11.22-5.14,6.18-3.95,10.89-9.37,15.43-15C654,476.72,655.61,483.61,653.87,487.87Zm9.35-62.18c.44,3.91,3.43,11.33,1.87,17.3-1.51-1.77-1.94-4.61-4.21-5.61,1.58,5.12,1.52,11.88,1.4,18.7-1.25-1.4-1.81-3.49-2.8-5.15-3.44,19.94-14.75,32-29.92,40.21v-1.87c-2.38,4.32-3.89,9.52-8.42,11.69-1.84-3.1,1.74-4.8,2.34-7-1.51.06-3.64,3.52-7,3.27-2-.3,1.42-2.4,1.4-3.74a27.32,27.32,0,0,1-6.08,3.74c-1-.73,1.41-2,.94-3.74-1.27,2.32-4.28,2.89-4.68,6.08-5.11-4,2.71-8.63,6.55-13.09,7.87-9.17,15.2-21.54,16.36-37.41,1-13.31-3.46-23.47-8.88-34.59a46,46,0,0,0,10.75-3.74c3.35,5,11.06.54,14-1.87,5.94,4,11.06-2.24,15-4.68,4.3,7.39,7,16.33,7.48,27.59C666.78,430.23,665.78,427.18,663.22,425.69Zm11.22,60.78c-1.66-11.67-5.18-24.57-2.81-37.41C676.76,458.07,679.55,475.24,674.44,486.47Zm43.95-19.17c-5,5.41-11.53,2.52-21.51,2.8,2.38.74,5.55.69,8.42.94-.53,10.32-10,6.46-18.24,5.61.74,1,3.27.16,4.21.93-3.15,3.5-8.08,6-13.09,2.81.62-7.82.89-16.76-1.4-22.91,6.86-2.4,23.9-3.25,28.52,3.74.29.44,1,.94,0,1.87v.47c6.31-4.31,11.18-16.94,21.5-12.63C725,455.86,721.92,463.5,718.39,467.3Z" transform="translate(-454.19 -327.27)"/><path class="cls-16" d="M692.28,454.67h0S692.27,454.81,692.28,454.67Z" transform="translate(-454.19 -327.27)"/><path class="cls-15" d="M516.21,333.49a154.88,154.88,0,0,0,16.26-.8c.87-.09,7.22-.44,7.86-1.6-.64-.86-8-1.42-9.14-1.52-5.31-.47-10.65-.66-16-.65a159.24,159.24,0,0,0-17.47.8,43.89,43.89,0,0,0-5.44.84c-.81.19-2,.81-2.49.53h0c2.43,1.77,7.31,1.6,10.11,1.82C505.34,333.36,510.78,333.53,516.21,333.49Z" transform="translate(-454.19 -327.27)"/><path class="cls-15" d="M514,335.13c-1.73,0-20.29.23-24.93-2.54A35.51,35.51,0,0,0,482.56,349c5.21,2.07,29.42,10.35,65.29,2.28a35.76,35.76,0,0,0-6.66-18.58c-1.74,1.11-5.25,1.25-6.49,1.41A157.12,157.12,0,0,1,514,335.13Z" transform="translate(-454.19 -327.27)"/><path class="cls-15" d="M507.78,445.27a21.24,21.24,0,0,1-1.42,4.73c-.35.78-.87,2-1.77,2.32-.36.13-1.93-.18-1.6-.3.77-.27,1.59-2.25,1.89-3.17a30.41,30.41,0,0,0,.87-3.41,46.8,46.8,0,0,0-9.28,1.76c-2.4.74-8.34,2.44-8.11,5.89s5.67,5.33,8.45,6.11a60,60,0,0,0,15.94,2.16c6,0,12.23-.33,18-2.11,2.77-.85,7.88-2.31,8.11-5.88-.23-3.6-5.67-5.33-8.45-6.12a56.76,56.76,0,0,0-9.78-1.82,19.46,19.46,0,0,0,3.27,6.7,2.43,2.43,0,0,1-1.77-.37,19.57,19.57,0,0,1-3.21-6.48q-.18-.61-.33-1.26a38.58,38.58,0,0,1-1-9.56l-.35.12a34.8,34.8,0,0,1-8.76,1,64.1,64.1,0,0,1-.53,8.47C507.92,444.49,507.86,444.88,507.78,445.27Z" transform="translate(-454.19 -327.27)"/><path class="cls-12" d="M482.56,349a37,37,0,0,0,3.69,21.48,146,146,0,0,0,12,19.14c1.14-3.93,4.5-6.57,14.29-7.16A25.75,25.75,0,0,1,532,389.51a145.35,145.35,0,0,0,11.89-19,36.91,36.91,0,0,0,3.92-19.2C512,359.35,487.77,351.07,482.56,349Z" transform="translate(-454.19 -327.27)"/><path class="cls-12" d="M485.48,373.16a54.16,54.16,0,0,1-2.54-5.62A31.84,31.84,0,0,0,485.48,373.16Z" transform="translate(-454.19 -327.27)"/><path class="cls-12" d="M490.19,381.34c1,2.88,3.62,6,6.21,8.64-2.13-2.93-4.34-6-6.42-9.18C490.06,381,490.12,381.16,490.19,381.34Z" transform="translate(-454.19 -327.27)"/><path class="cls-16" d="M540.36,331.16l0-.07c-.64,1.16-7,1.51-7.86,1.6a154.88,154.88,0,0,1-16.26.8c-5.43,0-10.87-.13-16.29-.57-2.8-.22-7.68-.05-10.11-1.82a.77.77,0,0,1-.14.69c-.2.26-.39.53-.59.8,4.64,2.77,23.2,2.53,24.93,2.54a157.12,157.12,0,0,0,20.69-1c1.24-.16,4.75-.3,6.49-1.41-.22-.31-.45-.61-.68-.91A.78.78,0,0,1,540.36,331.16Z" transform="translate(-454.19 -327.27)"/><path class="cls-16" d="M489.81,331.09c.48.28,1.68-.34,2.49-.53a43.89,43.89,0,0,1,5.44-.84,159.24,159.24,0,0,1,17.47-.8c5.33,0,10.67.18,16,.65,1.14.1,8.5.66,9.14,1.52a.56.56,0,0,0,0-.12.68.68,0,0,1,.6-.57.75.75,0,0,1,.9.14c-1.06-1.57-4.48-1.79-5.92-2a130.27,130.27,0,0,0-19.74-1.24,157.12,157.12,0,0,0-20.69,1c-1.55.19-6.66.37-7.39,2.46l.1-.14C488.74,330,489.63,330.45,489.81,331.09Z" transform="translate(-454.19 -327.27)"/><path class="cls-16" d="M541,330.4a.68.68,0,0,0-.6.57.56.56,0,0,1,0,.12l0,.07A1.13,1.13,0,0,1,541,330.4Z" transform="translate(-454.19 -327.27)"/><path class="cls-16" d="M538.86,453.37c.06.79,1.6.47,1.79-.13,0-.05,0-.1,0-.15s0-.11,0-.17C540.44,452.33,538.91,452.71,538.86,453.37Z" transform="translate(-454.19 -327.27)"/><path class="cls-16" d="M530.41,447.25c2.78.79,8.22,2.52,8.45,6.12,0-.66,1.58-1,1.79-.45-.37-3.52-4.61-5.21-7.48-6.25a48.18,48.18,0,0,0-12.88-2.54c.11.43.22.87.34,1.3A56.76,56.76,0,0,1,530.41,447.25Z" transform="translate(-454.19 -327.27)"/><path class="cls-16" d="M538.86,453.37c-.23,3.57-5.34,5-8.11,5.88-5.77,1.78-12,2.15-18,2.11a60,60,0,0,1-15.94-2.16c-2.78-.78-8.22-2.52-8.45-6.11s5.71-5.15,8.11-5.89a46.8,46.8,0,0,1,9.28-1.76c.08-.39.14-.78.2-1.17a51,51,0,0,0-12.12,2.65c-2.81,1-7.05,3-7.28,6.45s5,5.5,7.5,6.42c6.45,2.34,13.63,2.81,20.42,2.76a56.8,56.8,0,0,0,18.92-3c2.77-1,6.92-2.9,7.26-6.29C540.46,453.84,538.92,454.16,538.86,453.37Z" transform="translate(-454.19 -327.27)"/><path class="cls-16" d="M508.51,435.62c-.67,0-1.3,0-1.87-.05a63.49,63.49,0,0,1-.69,8.7l2-.18A64.1,64.1,0,0,0,508.51,435.62Z" transform="translate(-454.19 -327.27)"/><path class="cls-16" d="M503,452c-.33.12,1.24.43,1.6.3.9-.32,1.42-1.54,1.77-2.32a21.24,21.24,0,0,0,1.42-4.73c-.68.05-1.35.1-2,.17a30.41,30.41,0,0,1-.87,3.41C504.58,449.77,503.76,451.75,503,452Z" transform="translate(-454.19 -327.27)"/><path class="cls-16" d="M507.78,445.27c.08-.39.14-.78.2-1.18l-2,.18c-.06.39-.12.78-.2,1.17C506.43,445.37,507.1,445.32,507.78,445.27Z" transform="translate(-454.19 -327.27)"/><path class="cls-16" d="M518.59,444l1.7.11a39.5,39.5,0,0,1-.85-10.2c0-.16-.2-.31-.46-.42a4.62,4.62,0,0,1-1.36.95A38.58,38.58,0,0,0,518.59,444Z" transform="translate(-454.19 -327.27)"/><path class="cls-16" d="M523.9,452.13a19.46,19.46,0,0,1-3.27-6.7l-1.71-.15a19.57,19.57,0,0,0,3.21,6.48A2.43,2.43,0,0,0,523.9,452.13Z" transform="translate(-454.19 -327.27)"/><path class="cls-16" d="M518.92,445.28l1.71.15c-.12-.43-.23-.87-.34-1.3l-1.7-.11Q518.74,444.67,518.92,445.28Z" transform="translate(-454.19 -327.27)"/><path class="cls-16" d="M489.77,331.07l0,0h0Z" transform="translate(-454.19 -327.27)"/><path class="cls-16" d="M490,380.8c-1-2.38-2.77-4.61-4.5-7.64A87.81,87.81,0,0,0,490,380.8Z" transform="translate(-454.19 -327.27)"/><path class="cls-16" d="M481.5,348.56s.36.17,1.06.44a35.51,35.51,0,0,1,6.52-16.41c-.76-.46-1.14-1-1-1.62a1.72,1.72,0,0,1,.07-.21A38.61,38.61,0,0,0,482.05,365c.27.85.57,1.68.89,2.52C481.46,363.11,480.61,357.18,481.5,348.56Z" transform="translate(-454.19 -327.27)"/><path class="cls-16" d="M496.4,390l.23.32c.38.53.78,1.06,1.17,1.59l.06-.49C497.38,391,496.89,390.47,496.4,390Z" transform="translate(-454.19 -327.27)"/><path class="cls-16" d="M497.86,391.4a12.46,12.46,0,0,1,.36-1.78,146,146,0,0,1-12-19.14A37,37,0,0,1,482.56,349c-.7-.27-1.06-.44-1.06-.44-.89,8.62,0,14.55,1.44,19a54.16,54.16,0,0,0,2.54,5.62c1.73,3,3.53,5.26,4.5,7.64,2.08,3.18,4.29,6.25,6.42,9.18C496.89,390.47,497.38,391,497.86,391.4Z" transform="translate(-454.19 -327.27)"/><path class="cls-16" d="M489.08,332.59c.2-.27.39-.54.59-.8a.77.77,0,0,0,.14-.69l0,0,0,0c-.18-.64-1.07-1.13-1.58-.47l-.1.14a1.72,1.72,0,0,0-.07.21C487.94,331.6,488.32,332.13,489.08,332.59Z" transform="translate(-454.19 -327.27)"/><path class="cls-16" d="M548.13,365a38.61,38.61,0,0,0-6.18-34.4l-.08-.08a1.52,1.52,0,0,1,.2.38.7.7,0,0,1,.1.38.54.54,0,0,1-.12.47,2.24,2.24,0,0,1-.86.93,35.76,35.76,0,0,1,6.66,18.58l.9-.2s.84,11.77-4.77,21c-4.22,7-9.24,14.58-11.46,17.9l.71.75.33-.44C539.1,382.67,545.27,374.1,548.13,365Z" transform="translate(-454.19 -327.27)"/><path class="cls-16" d="M543.93,370.48a145.35,145.35,0,0,1-11.89,19c.17.17.34.33.48.48,2.22-3.32,7.24-10.93,11.46-17.9,5.61-9.24,4.77-21,4.77-21l-.9.2A36.91,36.91,0,0,1,543.93,370.48Z" transform="translate(-454.19 -327.27)"/><path class="cls-16" d="M542.17,331.3a.7.7,0,0,0-.1-.38,2.81,2.81,0,0,1,.1.31Z" transform="translate(-454.19 -327.27)"/><path class="cls-16" d="M541,330.4a1.14,1.14,0,0,1,1.1.52,1.52,1.52,0,0,0-.2-.38A.75.75,0,0,0,541,330.4Z" transform="translate(-454.19 -327.27)"/><path class="cls-16" d="M541,330.4a1.13,1.13,0,0,0-.61.76v0a1.09,1.09,0,0,0,1.68.59,1.17,1.17,0,0,0,.11-.33.71.71,0,0,0,0-.14v-.07a2.81,2.81,0,0,0-.1-.31A1.14,1.14,0,0,0,541,330.4Z" transform="translate(-454.19 -327.27)"/><path class="cls-16" d="M540.37,331.18v0a.78.78,0,0,0,.15.63c.23.3.46.6.68.91a2.24,2.24,0,0,0,.86-.93A1.09,1.09,0,0,1,540.37,331.18Z" transform="translate(-454.19 -327.27)"/><path class="cls-16" d="M542.05,331.77a.54.54,0,0,0,.12-.47.71.71,0,0,1,0,.14A1.17,1.17,0,0,1,542.05,331.77Z" transform="translate(-454.19 -327.27)"/><path class="cls-16" d="M517.64,433.41c0,.34,0,.69,0,1a4.62,4.62,0,0,0,1.36-.95C518.45,433.3,517.65,433.22,517.64,433.41Z" transform="translate(-454.19 -327.27)"/><path class="cls-12" d="M621.62,429.6H594s-.91,26.61,13.68,31.53v.09l.13-.05.12.05v-.09C622.53,456.21,621.62,429.6,621.62,429.6Z" transform="translate(-454.19 -327.27)"/><path class="cls-16" d="M617.31,443.25c.42-.41.71-1.52.39-1.52a1.16,1.16,0,0,0-.45.48,2.32,2.32,0,0,1-.36.44,1.47,1.47,0,0,0-.53,1.05c0,.27,0,.27-.28.12a2.66,2.66,0,0,0-1.41-.22c-1.14.08-2-.35-1.49-.77a.47.47,0,0,1,.18-.12,4.28,4.28,0,0,1,.86,0,3,3,0,0,0,1.57-.22,1.13,1.13,0,0,0,.55-.66c.22-.68.36-.86.82-1s.44-.4,0-.42a1.46,1.46,0,0,0-1.44,1c-.31.58-.53.68-1.37.63-1.66-.11-1.93,0-2.14.6-.1.28-.1.28-.11.1,0-.76.41-1.05,1.49-1a2.18,2.18,0,0,0,2-.73c.62-.72.7-.79,1.1-.91s.78-.41.78-.65-.08-.18-.38-.06a3.46,3.46,0,0,1-.64.16c-.56.09-.59.1-1.12.62l-.07.08,0,0a2.31,2.31,0,0,1-.48.38h-.07a3.53,3.53,0,0,1-1.28.13,7.14,7.14,0,0,0-.77,0h-.28l-.14.09c-.17.11-.25.14-.24.08l0,0a.86.86,0,0,1,.39-.39,4.24,4.24,0,0,1,1.53-.35l.21,0a2.54,2.54,0,0,0,1.44-.64,1.91,1.91,0,0,1,.76-.35c1.13-.33,1.21-.56.16-.51a2.24,2.24,0,0,0-1.54.48,2,2,0,0,1-1.55.42,1.58,1.58,0,0,0-.8.06c-.29.12-.31.12-.18,0a4.05,4.05,0,0,1,1.57-.86c3-.64,4.2-1.82,4.07-3.93-.19-3.08-5.49-2.84-5.49.24,0,1.09-.3,1.43-.83,1-.31-.29-.36-.27-.36.11a.74.74,0,0,0,1.07.75c.16-.08.24-.1.28-.05a2,2,0,0,0,.38.22c.25.12.32.19.33.31,0,.33-.42.38-.7.08s-.42-.2-.4.11.78.71,1.33.46.64-1.17,0-1.89c-.24-.29-.2-.34.09-.12a2.6,2.6,0,0,0,.62.33c.67.25.84.65.45,1.08s-.23.34.08.24c1.12-.36,1.26-1.33.25-1.83-.38-.19-.38-.19.11-.19,1.18,0,1.84-1.09,1-1.72a.89.89,0,0,0-.85,0c-.12.15,0,.27.22.27a.44.44,0,0,1,.31.1.26.26,0,0,1,.07.16.38.38,0,0,1-.12.28c-.35.34-.95.07-1.15-.34a.52.52,0,0,1,0-.5c.57-1.1,2.37-.13,2.37,1.28,0,1.61-.93,2.37-3.67,3-2.43.6-3.54,3.52-2,5.22.67.73,1.57,1,3.45,1.07,1.46.05,1.92.46,1.48,1.34-.78,1.5-3.51,1.12-4.65-.65-.05-.08-.4-.47-.77-.87a6.7,6.7,0,0,1-.84-1,5.4,5.4,0,0,0-.32-.52c-.13-.18-.14-.2,0-.25.25-.14,0-.63-.47-1.19a2.13,2.13,0,0,1-.44-.57c0-.08,0-.06.11.07.44.71,1.73,1.29,1.64.74-.21-1.47,0-2.63.57-2.67.79-.07,1.52-.76.88-.84s-.88-.49-1-1.79c0-.51,0-.51.21-.55.81-.13,1.31-.59.88-.8-.28-.15-.38-.29-.51-.71a1.7,1.7,0,0,0-.83-1c-.32-.18-.32-.18-.23-.36.33-.63,0-.93-.57-.62a3.61,3.61,0,0,1-1,.33c-1,.18-1.19.24-1.52.62l-.06.06c-.24.26-.28.28-.78.38-.85.18-.92.23-.88.65a1.74,1.74,0,0,0,.3.91c.1.08.34.59.29.63a4.4,4.4,0,0,1-.6.23c-1.1.38-1.44.25-1.44-.52,0-.42,0-.43-.24-.65-.56-.53-1.09-.3-.78.34a1.47,1.47,0,0,1,.13.53c0,1.17,1.31,1.55,2.77.81.38-.2.41-.2.31,0a1.59,1.59,0,0,0-.24.67.69.69,0,0,1-.18.38c-.21.24-.21.4,0,.45s.06.1-.44.24c-1.55.43-2,.19-2.88-1.67a3.29,3.29,0,0,0-.66-.93c-.5-.52-.57-.89-.21-1.08a1,1,0,0,0,.29-1.57c-.27-.29-.36-.26-.36.09s0,.26-.18.35-.18.1-.18,0c0-.37-1.11-.68-1.62-.46-.35.16-.35.21,0,.36a.7.7,0,0,1,.44.42c.19.37.11.44-.14.12s-.29-.28-.76-.14c-.68.2-.94.62-.38.62.26,0,.36,0,.39.09a.69.69,0,0,0,.23.21c.2.13.19.13-.24,0-.11,0-.19,0-.37.21s-.28.24-.41.24c-.37,0-.16.33.36.59s.45.22.64,0,.16-.15.29,0-.17.57-.52.57c-.57,0-.51.46.11.74.24.11.24.11.12.34-.27.52-.06,1.07.27.71a.61.61,0,0,1,.56-.15c.05,0,0,.1-.1.23-.35.38-.44.63-.22.63a.84.84,0,0,1,.28.17,2.21,2.21,0,0,0,.4.28l.22.11s-.06.14-.14.3c-.24.48-.17.59.47.75.28.07.28.07.13.25s-.05.64.42.64.54.48.2.77-.38.42-.15.42.2-.05-.12.63a2.78,2.78,0,0,1-.56.88,3.26,3.26,0,0,0-.5.75c-.38.82-1,1.4-1,.92,0-.32-.6-.68-.74-.44,0,0-.08,0-.17,0a1,1,0,0,0-.8,0c-.17.12-.16.18,0,.23.43.11.52.37.19.54a1.15,1.15,0,0,0-.48.89c0,.29,0,.29.3.21s.5,0,.35.16a.64.64,0,0,0,.1.84c.26.3.42.32.53.05.21-.5.47-.5.73,0,.14.26.84-.27.84-.63,0-.08.06-.1.34-.1s.34,0,.46-.25.13-.25.23-.14c.55.61,1.13.27,1-.61,0-.27,0-.27.15-.12.38.32.69-.06.69-.85,0-.38,0-.38.19-.23a.61.61,0,0,0,.44.15c.47,0,.55-.11.32-.44s.07-.64.51-.27a4.44,4.44,0,0,0,1.92.73c.58.06-.83.46-1.61.46-1.47,0-1.54,1.77-.12,3.34.72.8.73,1.12.05,1.82s-1.44,1-1.7.63a1.18,1.18,0,0,0-1.54,0c-.1.21-.07.25.17.21s.33,0,.34.24a.28.28,0,0,0,.17.21c.17.08.17.09,0,.11a.43.43,0,0,1-.26-.07c-.26-.18-.82,0-.82.21a1.4,1.4,0,0,1-.15.26c-.26.39-.15.63.21.44.09,0,.15,0,.27.06a.6.6,0,0,0,.32.12c.29,0,.33,0,.31.29s.23.63.44.38a.53.53,0,0,1,.29-.19.83.83,0,0,0,.29-.1c.18-.09.18-.09.42.18s.85.05.79-.57c0-.31.1-.25.21.11.2.6.35.59.82-.09.09-.13.09-.13.27,0s.47,0,.61-.66c.08-.38.29-.35.29,0,0,.21.14.45.26.45s.39-.58.39-.93,0-.32.16-.2c.34.27.79.12.58-.2-.1-.15.07-.59.27-.72a.68.68,0,0,0-.16-1.18c-.39-.18-.44-.29-.23-.51s.17-.18.41,0a5,5,0,0,0,.78.48,2.56,2.56,0,0,1,.7.48,2.19,2.19,0,0,0,1.11.58c1,.32,1.17.51,1.11,1a.91.91,0,0,1-.57.75c-.34.18-.38.18-.54-.14s-.6-.54-.9-.3a.55.55,0,0,1-.25.12.79.79,0,0,0-.45.43c0,.1.12.16.33.16a.22.22,0,0,1,.12.42.48.48,0,0,0-.24.27,2,2,0,0,1-.2.38c-.31.5-.11.95.25.57.18-.19.23-.21.3-.15a.53.53,0,0,0,.39,0c.28,0,.3,0,.39.15a1.27,1.27,0,0,0,.21.29c.16.17.34.15.41,0a.58.58,0,0,1,.18-.25.63.63,0,0,0,.17-.2c.06-.19.24,0,.24.28s.09.26.46-.1.37-.48.21-.65-.07-.14,0-.17.15.05.3.22.56.21.56-.14c0-.1,0-.1.19,0a.17.17,0,0,0,.15,0,1.05,1.05,0,0,0,.47-.6c0-.09,0-.14.11-.16h.06c.29,0,.42-.19.28-.4s-.16-.25-.06-.46.11-.15.27-.15a.85.85,0,0,0,.31-.06c.14-.07.16-.23,0-.23s-.19-.16-.23-.56,0-.35.13-.25.37.12.37,0a1.32,1.32,0,0,0-.36-.69,1.06,1.06,0,0,1-.36-.76c0-.48-.54-.7-1.06-.43s-1.84-.67-1.84-1.51a.84.84,0,0,0-.09-.46c-.13-.18-.1-.24.05-.1a3,3,0,0,0,.58.34,1.27,1.27,0,0,1,.82.76.77.77,0,0,0,.7.52c.22,0,.24-.05.08-.2s-.2-.29-.09-.54.1-.21.19-.13a2.48,2.48,0,0,0,1.15.45c.34,0,.34,0,.11-.27-.53-.61.26-1,.88-.42.28.26.42-.25.17-.62-.14-.2-.14-.2.08-.36a2.32,2.32,0,0,0,.51-2.4C617,443.62,617,443.53,617.31,443.25Zm-10.42-6.79c-.13-.2-.13-.2.07-.2s.2,0,.14.2a1.64,1.64,0,0,0-.07.2A1.22,1.22,0,0,1,606.89,436.46Zm0-1c.13.06.17.06.23,0s.08-.09.17,0,.1.09.24,0,.33,0,.33.18a0,0,0,0,1,0,0l-.57,0c-.4,0-.52,0-.52-.1S606.78,435.44,606.91,435.5Zm.73.85a.25.25,0,0,1-.11.09s-.08,0-.12-.09,0-.09.12-.09S607.71,436.28,607.64,436.35Z" transform="translate(-454.19 -327.27)"/><polygon class="cls-3" points="39.62 224.16 26.55 215.19 30.89 208.76 43.2 218.01 39.62 224.16"/><polygon class="cls-3" points="47.68 212.36 35.34 203.13 39.91 196.94 51.87 206.65 47.68 212.36"/><polygon class="cls-3" points="65.04 229.84 54.87 221.59 59.33 216.31 69.09 224.97 65.04 229.84"/><polygon class="cls-3" points="328.29 191.59 338.45 178.33 332 173.31 322.69 186.61 328.29 191.59"/><polygon class="cls-3" points="266.6 165.36 268.02 151.64 260.76 151.02 259.95 164.75 266.6 165.36"/><polygon class="cls-3" points="114.86 186.04 110.42 177.9 106.17 180.33 110.95 188.23 114.86 186.04"/><path class="cls-16" d="M499.56,387.64s8.92-12.14,32.12,2.64c0,0-10.61-8.66-22.13-8.17C500.56,382.48,499.56,387.64,499.56,387.64Z" transform="translate(-454.19 -327.27)"/><path class="cls-16" d="M503.26,360.92a7.17,7.17,0,0,1-.39,2.3,5.61,5.61,0,0,1-1.1,2,5.36,5.36,0,0,1-1.9,1.42,6,6,0,0,1-2.54.5,3.54,3.54,0,0,1-2.06-.51,1.61,1.61,0,0,1-.72-1.38,2.15,2.15,0,0,1,.07-.58,1.55,1.55,0,0,1,.31-.55,1.24,1.24,0,0,1,.54-.41,1.9,1.9,0,0,1,.83-.17,1.66,1.66,0,0,1,1.42.65,8.61,8.61,0,0,1,1,2,1.63,1.63,0,0,0,.67-1.08,18.42,18.42,0,0,0,.22-3.6v-7.62a1.34,1.34,0,0,0-.17-.68,1.41,1.41,0,0,0-.45-.49,2.08,2.08,0,0,0-.67-.27,4.25,4.25,0,0,0-.81-.16v-.81l5.57-.29.17.17Zm0-13.75a1.86,1.86,0,0,1-.64,1.43,2.29,2.29,0,0,1-3.07,0,1.9,1.9,0,0,1,0-2.86,2.18,2.18,0,0,1,1.54-.6,2.15,2.15,0,0,1,1.53.6A1.86,1.86,0,0,1,503.3,347.17Z" transform="translate(-454.19 -327.27)"/><path class="cls-16" d="M520,362l-5.26.32-.17-.15v-1.45h-.06l-.73.67a4.33,4.33,0,0,1-.86.59,5.09,5.09,0,0,1-1.06.44,5.42,5.42,0,0,1-1.46.15,3.22,3.22,0,0,1-2.55-1,4.1,4.1,0,0,1-.89-2.84v-5a1.42,1.42,0,0,0-.16-.7,1.81,1.81,0,0,0-.44-.48,1.49,1.49,0,0,0-.57-.24,4.25,4.25,0,0,0-.64-.09v-.81l5.33-.29.12.17v7.34a2.66,2.66,0,0,0,.44,1.68,1.46,1.46,0,0,0,1.2.54,2.5,2.5,0,0,0,1.4-.41,2.83,2.83,0,0,0,.91-.87v-5.95a1.65,1.65,0,0,0-.14-.68,1.3,1.3,0,0,0-.42-.48,1.28,1.28,0,0,0-.57-.18q-.37,0-.75-.06v-.81l5.36-.29.16.17v8.52a1.34,1.34,0,0,0,.16.66,1.21,1.21,0,0,0,.45.45,1.49,1.49,0,0,0,.54.19c.22,0,.45.05.66.06Z" transform="translate(-454.19 -327.27)"/><path class="cls-16" d="M533.31,352.51h-2.43a3.32,3.32,0,0,1,.65,1,3.09,3.09,0,0,1,.21,1.12,2.69,2.69,0,0,1-.4,1.43,3.38,3.38,0,0,1-1.07,1.09,5.53,5.53,0,0,1-1.58.67,7.7,7.7,0,0,1-2,.25h-1.8a1.48,1.48,0,0,0-.29.31.72.72,0,0,0-.16.42.69.69,0,0,0,.39.68,4,4,0,0,0,1.4.21c.67,0,1.34,0,2,.08s1.17.07,1.47.07a4.79,4.79,0,0,1,1.27.26,3.91,3.91,0,0,1,1.09.59,3.12,3.12,0,0,1,.84,1,2.83,2.83,0,0,1,.33,1.39,3.33,3.33,0,0,1-.4,1.57,3.57,3.57,0,0,1-1.23,1.28,7.06,7.06,0,0,1-2.1.88,12.77,12.77,0,0,1-3,.3,10.85,10.85,0,0,1-4.42-.7,2.26,2.26,0,0,1-1.51-2.12,1.66,1.66,0,0,1,.82-1.43,4.66,4.66,0,0,1,2.53-.62v-.14a3.88,3.88,0,0,1-1.58-.91,1.81,1.81,0,0,1-.57-1.32,1.36,1.36,0,0,1,.23-.79,2.22,2.22,0,0,1,.58-.56,2.91,2.91,0,0,1,.75-.36l.74-.24v-.12a5.28,5.28,0,0,1-2.19-1.35,2.8,2.8,0,0,1-.7-1.94,2.94,2.94,0,0,1,1.49-2.59,6.82,6.82,0,0,1,3.79-1,8.51,8.51,0,0,1,1.45.12c.47.09.83.16,1.07.23h4.28ZM530,363.89a1.46,1.46,0,0,0-.21-.74,1.58,1.58,0,0,0-.94-.61,10.72,10.72,0,0,0-1.3-.08c-.61,0-1.44,0-2.5,0a2.89,2.89,0,0,0-.64.79,2.07,2.07,0,0,0-.26,1.09,1.51,1.51,0,0,0,.15.61,2.12,2.12,0,0,0,.49.62,2.94,2.94,0,0,0,.86.5,4.24,4.24,0,0,0,1.43.18,3.6,3.6,0,0,0,2.17-.55A2.06,2.06,0,0,0,530,363.89Zm-1.85-9.28a4.32,4.32,0,0,0-.4-2,1.36,1.36,0,0,0-1.27-.75,1.4,1.4,0,0,0-.75.2,1.5,1.5,0,0,0-.52.59,2.76,2.76,0,0,0-.26.88,8.64,8.64,0,0,0-.06,1,4.15,4.15,0,0,0,.42,2,1.32,1.32,0,0,0,1.2.77,1.35,1.35,0,0,0,1.22-.7A3.78,3.78,0,0,0,528.13,354.61Z" transform="translate(-454.19 -327.27)"/></svg>