<?xml version="1.0" encoding="UTF-8"?>
<svg id="Calque_1" data-name="Calque 1" xmlns="http://www.w3.org/2000/svg" viewBox="0 0 1000 177.32">
  <defs>
    <style>
      .cls-1 {
        fill: #ca2262;
      }

      .cls-2 {
        fill: #1d1d1b;
      }

      .cls-3 {
        fill: #851342;
      }
    </style>
  </defs>
  <polygon class="cls-3" points="55.82 53.05 23.96 53.05 58.52 96.99 74.44 76.73 55.82 53.05"/>
  <polygon class="cls-3" points="74.45 117.25 93.04 140.88 124.9 140.88 90.38 96.99 74.45 117.25"/>
  <polygon class="cls-1" points="0 171.43 31.86 171.43 74.45 117.25 58.52 96.99 0 171.43"/>
  <polygon class="cls-1" points="148.94 22.5 117.08 22.5 74.44 76.73 90.38 96.99 148.94 22.5"/>
  <g>
    <polygon class="cls-2" points="847.82 22.41 819.91 22.41 819.91 53 804.43 53 804.43 76.89 819.91 76.89 819.91 140.93 847.82 140.93 847.82 76.89 863.31 76.89 863.31 53 847.82 53 847.82 22.41"/>
    <rect class="cls-2" x="876.5" y="53" width="28.09" height="87.93"/>
    <path class="cls-2" d="M890.65,4.45c-4.85,0-8.86,1.47-12.05,4.4-3.18,2.94-4.78,6.69-4.78,11.28s1.6,8.29,4.78,11.09c3.19,2.8,7.2,4.2,12.05,4.2s8.7-1.4,11.95-4.2c3.25-2.8,4.87-6.5,4.87-11.09s-1.62-8.34-4.87-11.28c-3.25-2.93-7.24-4.4-11.95-4.4Z"/>
    <path class="cls-2" d="M962.24,77.28c3.5-2.04,7.42-3.06,11.76-3.06,3.18,0,6.43,.48,9.75,1.43,3.31,.96,6.41,2.39,9.27,4.3,2.87,1.92,5.19,4.28,6.98,7.08v-28.29c-3.06-2.3-6.92-4.14-11.56-5.55-4.66-1.4-10.29-2.1-16.92-2.1-9.82,0-18.54,1.91-26.19,5.73-7.65,3.83-13.67,9.15-18.06,15.97-4.4,6.81-6.59,14.87-6.59,24.17s2.2,17.21,6.59,24.09c4.4,6.88,10.42,12.24,18.06,16.05,7.65,3.83,16.37,5.74,26.19,5.74,6.63,0,12.26-.74,16.92-2.2,4.65-1.47,8.5-3.41,11.56-5.83v-28.1c-1.79,2.81-4.05,5.16-6.79,7.08-2.74,1.91-5.74,3.34-8.99,4.3-3.25,.95-6.66,1.43-10.22,1.43-4.34,0-8.26-.92-11.76-2.77-3.5-1.85-6.3-4.43-8.41-7.74-2.1-3.32-3.16-7.33-3.16-12.05,0-4.33,1.05-8.19,3.16-11.57,2.1-3.37,4.9-6.08,8.41-8.12Z"/>
    <path class="cls-2" d="M220.24,110.54c-2.05,3.82-4.91,6.69-8.6,8.6-3.7,1.91-8.1,2.86-13.19,2.86-4.33,0-8.06-1.02-11.18-3.05-3.13-2.04-5.46-4.94-6.98-8.7-.86-2.12-1.39-4.55-1.73-7.17h67.11c.13-1.02,.19-2.16,.19-3.44v-4.01c0-9.44-1.85-17.46-5.54-24.09-3.7-6.63-9.05-11.69-16.05-15.2-7.01-3.5-15.61-5.25-25.81-5.25-7.65,0-14.53,1.04-20.64,3.15-6.12,2.1-11.34,5.13-15.67,9.08-4.34,3.95-7.62,8.77-9.84,14.43-2.23,5.68-3.34,12.07-3.34,19.21,0,9.31,2.04,17.39,6.12,24.28,4.07,6.88,9.84,12.21,17.29,15.96,7.46,3.76,16.34,5.64,26.67,5.64,11.21,0,20.7-2.16,28.49-6.5,7.77-4.33,14.02-10.83,18.73-19.5l-25.99-6.3Zm-37.09-33.64c1.65-2.16,3.72-3.79,6.21-4.88,2.49-1.08,5.39-1.62,8.7-1.62s6.28,.76,8.89,2.29c2.61,1.53,4.56,3.67,5.83,6.41,1.03,2.21,1.53,4.93,1.73,7.93h-35.43c.13-.66,.2-1.4,.35-2.01,.82-3.25,2.07-5.96,3.72-8.12Z"/>
    <polygon class="cls-2" points="394.66 22.41 366.76 22.41 366.76 53 351.27 53 351.27 76.89 366.76 76.89 366.76 140.93 394.66 140.93 394.66 76.89 410.15 76.89 410.15 53 394.66 53 394.66 22.41"/>
    <path class="cls-2" d="M479.92,119.14c-3.7,1.91-8.1,2.86-13.19,2.86-4.33,0-8.06-1.02-11.18-3.05-3.13-2.04-5.46-4.94-6.98-8.7-.86-2.12-1.39-4.55-1.73-7.17h67.11c.13-1.02,.19-2.16,.19-3.44v-4.01c0-9.44-1.85-17.46-5.54-24.09-3.7-6.63-9.05-11.69-16.05-15.2-7.01-3.5-15.61-5.25-25.81-5.25-7.65,0-14.53,1.04-20.64,3.15-6.12,2.1-11.34,5.13-15.67,9.08-4.34,3.95-7.62,8.77-9.84,14.43-2.23,5.68-3.34,12.07-3.34,19.21,0,9.31,2.04,17.39,6.12,24.28,4.07,6.88,9.84,12.21,17.29,15.96,7.46,3.76,16.34,5.64,26.67,5.64,11.21,0,20.7-2.16,28.48-6.5,7.77-4.33,14.02-10.83,18.73-19.5l-25.99-6.3c-2.05,3.82-4.91,6.69-8.6,8.6Zm-28.48-42.25c1.65-2.16,3.72-3.79,6.21-4.88,2.49-1.08,5.39-1.62,8.7-1.62s6.28,.76,8.89,2.29c2.61,1.53,4.56,3.67,5.83,6.41,1.03,2.21,1.53,4.93,1.73,7.93h-35.43c.13-.66,.2-1.4,.35-2.01,.82-3.25,2.07-5.96,3.72-8.12Z"/>
    <path class="cls-2" d="M579.54,50.89c-4.96,0-9.65,1.6-14.04,4.78-3.18,2.3-5.79,5.41-8.13,8.9v-11.58h-28.67v87.93h28.67v-43.39c0-4.21,.6-7.77,1.82-10.71,1.21-2.93,2.9-5.13,5.07-6.59,2.16-1.46,4.59-2.2,7.26-2.2s4.68,.45,6.41,1.34c1.72,.89,3.34,2.1,4.87,3.63l12.62-25.04c-1.4-1.92-3.6-3.57-6.59-4.97-3-1.4-6.08-2.1-9.27-2.1Z"/>
    <path class="cls-2" d="M677.83,54.91c-4.65-2.67-10.61-4.01-17.87-4.01-6.37,0-11.79,1.34-16.25,4.01-4.46,2.68-7.97,6.44-10.51,11.28v-13.19h-29.25v87.93h29.25v-53.52c0-3.31,.64-6.21,1.91-8.7,1.27-2.49,3.06-4.34,5.35-5.54,2.3-1.21,4.97-1.82,8.03-1.82s5.7,.6,7.55,1.82c1.85,1.21,3.18,3.03,4.01,5.45,.83,2.42,1.25,5.35,1.25,8.79v53.52h30.2v-56.59c0-7-1.11-12.99-3.34-17.96-2.23-4.97-5.67-8.79-10.33-11.47Z"/>
    <path class="cls-2" d="M773.37,53.86c-6.06-2.22-13.03-3.34-20.93-3.34-8.29,0-15.9,1.05-22.84,3.16-6.95,2.1-12.97,4.36-18.07,6.78l9.75,19.5c1.15-.76,3.16-1.75,6.02-2.96,2.87-1.2,6.22-2.26,10.04-3.16,3.83-.88,7.71-1.33,11.66-1.33,2.68,0,5.03,.25,7.08,.76,2.04,.51,3.79,1.31,5.25,2.38,1.47,1.09,2.52,2.49,3.16,4.21,.64,1.72,.96,3.61,.96,5.64v7.73c-.18-.09-.3-.19-.48-.28-3.12-1.53-6.85-2.77-11.17-3.72-4.34-.96-9.05-1.43-14.15-1.43-7.65,0-13.98,1.05-19.02,3.16-5.04,2.1-8.86,5.23-11.47,9.37-2.61,4.14-3.92,9.01-3.92,14.62,0,5.99,1.43,11.09,4.3,15.29,2.87,4.21,6.66,7.37,11.38,9.46,4.71,2.1,9.87,3.16,15.49,3.16s10.86-.98,15.77-2.96c4.9-1.98,8.86-4.9,11.85-8.79,.55-.71,.99-1.48,1.43-2.24v12.09h27.71v-62.13c0-5.99-1.78-11.08-5.35-15.29-3.57-4.21-8.38-7.42-14.43-9.66Zm-10.62,61.84c-1.78,2.81-4.07,4.9-6.88,6.3-2.8,1.41-5.86,2.1-9.17,2.1-2.29,0-4.4-.44-6.3-1.33-1.92-.89-3.41-2.1-4.5-3.63-1.09-1.54-1.62-3.44-1.62-5.74s.47-4.14,1.43-5.55c.95-1.4,2.49-2.48,4.58-3.25,2.1-.76,4.81-1.15,8.13-1.15,4.45,0,8.7,.61,12.71,1.82,1.46,.44,2.79,1.03,4.12,1.62-.21,3.38-.95,6.38-2.5,8.8Z"/>
    <g>
      <polygon class="cls-2" points="346.6 53.05 314.74 53.05 245.66 140.88 277.51 140.88 346.6 53.05"/>
      <polygon class="cls-2" points="245.66 53.05 277.51 53.05 346.6 140.88 314.74 140.88 245.66 53.05"/>
    </g>
  </g>
</svg>