<svg id="Calque_1" data-name="Calque 1" xmlns="http://www.w3.org/2000/svg" viewBox="0 0 346 123"><defs><style>.cls-1,.cls-2{fill:#9cca00;}.cls-1,.cls-3{fill-rule:evenodd;}.cls-3{fill:#4c4c4c;}</style></defs><title>kalicustomer-flat</title><path class="cls-1" d="M63.89,23.9h5.76L50.13,40.65l20,17.5h-5.6L44.93,40.67ZM40.24,14.42h4.41V58.15H40.24Z"/><path class="cls-1" d="M91.29,51.53v-9a21.86,21.86,0,0,0-11,2.08q-4.36,2.29-4.37,5.87a4.11,4.11,0,0,0,1.83,3.38,7.33,7.33,0,0,0,4.56,1.37Q86.73,55.25,91.29,51.53Zm3.46,5.67H91.44c-.14,0,0-1.54-.15-3a17.57,17.57,0,0,1-10.12,3.57A9.29,9.29,0,0,1,75,55.66a6.54,6.54,0,0,1-2.53-5.16q0-4.7,4.89-7.41t14-3.11V36.32q0-5.89-7.17-5.89c-3,0-6.34,1.22-9.87,4.89V32.16a15.06,15.06,0,0,1,10.44-4.29,12.71,12.71,0,0,1,7.24,1.92,6.32,6.32,0,0,1,2.84,5.59V53.31Z"/><rect class="cls-2" x="98.93" y="13.5" width="3.48" height="43.73"/><path class="cls-1" d="M109.83,28.43v28.8h-3.48V28.43Zm0-14.93v5.26h-3.48V13.5Z"/><path class="cls-3" d="M200.71,65.63v7h.18q5.06-7.74,13.21-7.74,9.53,0,13.4,9.5,5.87-9.5,14.41-9.5a13.33,13.33,0,0,1,10.4,4.39q4,4.38,4,11.64v24.27h-4.42V82.73q0-6.41-2.83-10.08a9.49,9.49,0,0,0-8-3.67,10.58,10.58,0,0,0-6.66,2.19,26.71,26.71,0,0,0-5.85,7v26.94h-4.46V82.64q0-6.57-3-10.12A9.79,9.79,0,0,0,213.2,69q-7.22,0-12.49,8.46v27.71h-4.42V65.63Z"/><path class="cls-3" d="M265.44,80.53h26.88Q290,69,279.19,69a13.51,13.51,0,0,0-8.81,3A14.66,14.66,0,0,0,265.44,80.53Zm32.11,3.4h-32.7a15.83,15.83,0,0,0-.13,2.06,14.71,14.71,0,0,0,4.95,11.21,16.69,16.69,0,0,0,11.73,4.6q7.89,0,15.43-5.89v4.77a26.27,26.27,0,0,1-16,5.24A19.94,19.94,0,0,1,266,100a20.53,20.53,0,0,1-5.87-15.08,20,20,0,0,1,5.41-14.36A19.12,19.12,0,0,1,292.23,70Q297.55,75.12,297.55,83.93Z"/><path class="cls-3" d="M331.5,69.53l-2.57,4Q323.74,69,320.58,69q-6.21,0-13.3,11.34v24.83h-4.42V65.63h4.42V76h.18Q314.9,64.86,322,64.85,326,64.85,331.5,69.53Z"/><path class="cls-3" d="M36.62,66.79v4.68A28.28,28.28,0,0,0,25.84,69a14.84,14.84,0,0,0-11.3,4.6q-4.35,4.59-4.35,11.94t4.35,11.87q4.35,4.41,11.66,4.41a30.92,30.92,0,0,0,11.19-2.28v4.38a37.49,37.49,0,0,1-11.55,2q-9.1,0-14.72-5.5T5.5,86q0-9.31,5.66-15.23a19.13,19.13,0,0,1,14.45-5.91A37.39,37.39,0,0,1,36.62,66.79Z"/><path class="cls-3" d="M69.64,105.15V98.62h-.18a19.22,19.22,0,0,1-5.93,5.63,16,16,0,0,1-7.73,1.67,15.44,15.44,0,0,1-11-4.12q-4.38-4.12-4.38-11.69V65.63h4.42V90q0,5.49,3.16,8.63a11.14,11.14,0,0,0,8.21,3.14,13.71,13.71,0,0,0,7.37-1.89,21.53,21.53,0,0,0,6.11-6.53V65.63h4.42v39.52Z"/><path class="cls-3" d="M103,68.21v4.55q-6.32-4-11.37-4a10.19,10.19,0,0,0-6.31,1.93,5.74,5.74,0,0,0-2.57,4.75,5.36,5.36,0,0,0,1.56,3.71q1.56,1.69,8.61,4.28c4.71,1.74,7.77,3.53,9.22,5.39A9.94,9.94,0,0,1,104.29,95a9.6,9.6,0,0,1-3.93,7.75,14.94,14.94,0,0,1-9.7,3.16,24.43,24.43,0,0,1-12.44-3.61V98.19q7.35,3.6,13,3.61a9.91,9.91,0,0,0,6.29-1.93A6,6,0,0,0,100,94.93a5.48,5.48,0,0,0-1.6-3.8q-1.61-1.74-8.66-4.41t-9.15-5.26a9,9,0,0,1-2.1-5.78A9.56,9.56,0,0,1,82.39,68a14.62,14.62,0,0,1,9.49-3.16A23,23,0,0,1,103,68.21Z"/><path class="cls-3" d="M121,52.52V65.63h11.64l-1.83,3.43H121v23.5c0,3.78.32,6.27,1,7.45s2.38,1.79,5.21,1.79a19,19,0,0,0,7.57-1.94v4a20.26,20.26,0,0,1-8.56,2,10.53,10.53,0,0,1-6.86-2.23,7.54,7.54,0,0,1-2.75-6.19V69.06H107.2V65.63h9.35V56.22l3-3.7Z"/><path class="cls-1" d="M190.53,83.76a27,27,0,0,0-4.25-14.6,30.89,30.89,0,0,1-.32,13.3c-3.85,15.75-18.92,25.62-33.67,22a25.82,25.82,0,0,1-11.49-6.16,27,27,0,0,0,49.73-14.58Zm-7.77-19a27,27,0,0,0-46.2,19,27.35,27.35,0,0,0,1.49,8.91,25.88,25.88,0,0,0,10.36,5.17c14.75,3.58,29.83-6.29,33.67-22A31,31,0,0,0,182.76,64.72Z"/></svg>