<?xml version="1.0" encoding="UTF-8"?>
<svg xmlns="http://www.w3.org/2000/svg" fill="none" viewBox="0 0 136 54"><g clip-path="url(#zenika-a)"><path fill="url(#zenika-b)" d="M40.322 35.44a.21.21 0 0 1-.007.022l-.008.022c-2.862 7.955-10.475 13.643-19.414 13.643C9.5 49.127.266 39.89.266 28.5c0-.503.017-1 .052-1.492l.002-.017v-.003l.01-.052-.002.03 23.33-4.23-12.593 12.596a3.13 3.13 0 0 0-.5 2.344 3.167 3.167 0 0 0 3.267 2.592l.855-.156h.003l25.633-4.671v-.001Z"/><path fill="url(#zenika-c)" d="M41.52 28.5c0 .562-.023 1.123-.069 1.683v.02l-22.364 4.076 12.145-12.024.003-.002.12-.121.004-.003c.256-.265.464-.574.615-.908a3.16 3.16 0 0 0 .228-1.874 3.193 3.193 0 0 0-3.146-2.616h-.04l-1.07.195-26.552 4.843-.008.023.01-.044c0-.007.004-.015.006-.022 2.804-8.064 10.47-13.853 19.49-13.853 11.393 0 20.628 9.235 20.628 20.627Z"/><path fill="#fff" d="M13.69 40.29c-.201 0-.403-.018-.599-.056a3.169 3.169 0 0 1-2.545-2.555 3.15 3.15 0 0 1 .503-2.358l12.55-12.551L.308 26.99l.001-.026a20.543 20.543 0 0 1 1.05-5.148c.003-.014.009-.028.015-.043l.007-.02 26.563-4.848 1.07-.194.042-.001a3.228 3.228 0 0 1 3.167 2.633c.118.641.038 1.294-.23 1.887-.152.34-.36.646-.619.913L19.148 34.248l22.33-4.07-.003.026a20.561 20.561 0 0 1-1.127 5.241l-.004.011L14.7 40.13l-.002.002h-.01l-.852.157-.146.003Z"/><path fill="#000" d="M61.6 36.213h-6.669l7.402-9.84c.16-.207.24-.476.24-.843 0-.825-.41-1.237-1.231-1.237h-8.937c-.822 0-1.232.412-1.232 1.237 0 .824.41 1.237 1.232 1.237h6.687l-7.42 9.84c-.16.206-.24.475-.24.843 0 .824.41 1.237 1.232 1.237H61.6c.821 0 1.232-.413 1.232-1.237 0-.825-.41-1.237-1.232-1.237ZM75.573 25.1c-.982-.601-2.151-.906-3.508-.906-1.384 0-2.607.314-3.67.933a6.547 6.547 0 0 0-2.5 2.58c-.607 1.094-.901 2.367-.901 3.8 0 1.426.321 2.68.955 3.774a6.813 6.813 0 0 0 2.652 2.581c1.124.618 2.42.932 3.865.932.804 0 1.643-.152 2.527-.448.884-.296 1.625-.681 2.214-1.156.295-.224.438-.502.42-.816-.018-.313-.179-.61-.473-.87a1.118 1.118 0 0 0-.804-.277c-.303.01-.59.108-.848.305-.348.26-.813.493-1.375.699a4.87 4.87 0 0 1-1.66.305c-1 0-1.876-.215-2.652-.655a4.777 4.777 0 0 1-1.813-1.792c-.294-.502-.473-1.058-.571-1.658h9.955c.348 0 .634-.108.866-.332.223-.215.339-.493.339-.824 0-1.39-.259-2.608-.777-3.675a6.008 6.008 0 0 0-2.24-2.5Zm-6.07 2.016c.705-.44 1.562-.654 2.553-.654.875 0 1.616.206 2.232.61a4.09 4.09 0 0 1 1.42 1.64c.231.492.383 1.03.463 1.622h-8.713c.09-.502.232-.977.437-1.407a4.21 4.21 0 0 1 1.607-1.81ZM92.358 24.938c-.955-.52-2.035-.78-3.24-.78-1.152 0-2.197.251-3.117.762a6.023 6.023 0 0 0-1.339 1.004v-.287c0-.403-.125-.726-.366-.977-.24-.242-.571-.367-.973-.367-.384 0-.705.125-.955.367s-.384.574-.384.977v11.732c0 .385.125.708.384.959.25.25.571.385.955.385.402 0 .723-.125.973-.385.241-.251.366-.574.366-.96v-7.42c0-.645.179-1.219.527-1.72.348-.503.822-.897 1.42-1.202a4.421 4.421 0 0 1 1.99-.448c.804 0 1.518.152 2.134.457.616.305 1.116.78 1.482 1.407.367.628.554 1.443.554 2.447v6.47c0 .386.125.709.384.96.25.25.571.385.955.385s.706-.125.956-.385c.25-.251.383-.574.383-.96v-6.47c0-1.452-.276-2.68-.821-3.684-.563-.985-1.312-1.747-2.268-2.267ZM101.465 24.302c-.384 0-.706.125-.956.367s-.384.574-.384.977v11.705c0 .386.126.708.384.96.25.25.572.385.956.385.402 0 .723-.126.973-.386.241-.25.366-.574.366-.959V25.637c0-.403-.125-.726-.366-.977-.25-.242-.571-.358-.973-.358ZM101.464 18.485c-.473 0-.875.17-1.223.511-.34.34-.51.753-.51 1.22 0 .465.17.877.51 1.218.339.34.75.51 1.223.51.473 0 .874-.17 1.223-.51.34-.34.509-.753.509-1.219 0-.466-.169-.878-.509-1.219-.339-.34-.75-.51-1.223-.51ZM113.535 30.53l4.812-4.31c.259-.242.401-.529.42-.842.018-.314-.098-.61-.34-.87a1.14 1.14 0 0 0-.821-.421c-.322-.018-.616.098-.875.34l-6.365 5.71v-10.71c0-.386-.117-.7-.357-.933-.233-.233-.546-.358-.929-.358-.385 0-.696.116-.929.358-.232.233-.357.547-.357.932v17.97c0 .386.117.7.357.932.233.233.544.359.929.359.383 0 .696-.117.929-.359.231-.233.357-.547.357-.932v-4.024l1.303-1.165 4.982 6.193c.223.278.509.43.848.457.339.027.652-.072.928-.305.295-.242.455-.529.482-.851.028-.323-.071-.628-.303-.905l-5.071-6.265ZM134.141 27.77a7.098 7.098 0 0 0-2.581-2.617c-1.079-.636-2.303-.959-3.669-.959s-2.589.323-3.678.96a7.143 7.143 0 0 0-2.598 2.616c-.634 1.103-.956 2.349-.956 3.738 0 1.389.295 2.626.876 3.72.589 1.093 1.383 1.962 2.401 2.607 1.009.636 2.161.96 3.438.96 1.276 0 2.418-.324 3.437-.96a6.784 6.784 0 0 0 1.625-1.443v.977c0 .386.125.708.383.96.251.25.572.385.956.385.383 0 .705-.126.955-.386.25-.25.384-.574.384-.959V31.5c-.018-1.38-.339-2.626-.973-3.729Zm-3.866 8.013c-.697.43-1.491.645-2.384.645a4.5 4.5 0 0 1-2.375-.645 4.617 4.617 0 0 1-1.678-1.766c-.411-.744-.616-1.586-.616-2.51 0-.95.205-1.792.616-2.536a4.68 4.68 0 0 1 1.678-1.765c.705-.43 1.5-.646 2.375-.646.893 0 1.687.216 2.384.646a4.615 4.615 0 0 1 1.652 1.765c.401.744.606 1.596.606 2.537 0 .932-.205 1.765-.606 2.51-.411.743-.955 1.335-1.652 1.765Z"/></g><defs><linearGradient id="zenika-b" x1="-12.65" x2="49.163" y1="72.308" y2="-3.543" gradientUnits="userSpaceOnUse"><stop stop-color="#EE2238"/><stop offset="1" stop-color="#BF1D67"/></linearGradient><linearGradient id="zenika-c" x1="-11.553" x2="50.279" y1="57.474" y2="-18.5" gradientUnits="userSpaceOnUse"><stop stop-color="#EE2238"/><stop offset="1" stop-color="#BF1D67"/></linearGradient><clipPath id="zenika-a"><path fill="#fff" d="M.214.5h135v53h-135z"/></clipPath></defs></svg>