<svg id="图层_1" data-name="图层 1" xmlns="http://www.w3.org/2000/svg" viewBox="0 0 498.87 158"><defs><style>.cls-1{fill:#fff;}.cls-2{fill:#b02140;}</style></defs><title>zenika2</title><path d="M195.63,128.51l9.23-4.78v1.51a.69.69,0,0,1-.09.36.87.87,0,0,1-.34.26l-5.35,2.72a2.31,2.31,0,0,1-.51.22,4.74,4.74,0,0,1-.57.16,4.74,4.74,0,0,1,.57.16c.18.06.35.14.51.21l5.35,2.71a.81.81,0,0,1,.34.28.67.67,0,0,1,.09.34v1.53l-9.23-4.8Z"/><path d="M220.22,137h-.94a1.21,1.21,0,0,1-.5-.09.54.54,0,0,1-.25-.41l-.24-1.12c-.32.29-.63.54-.93.77a4.88,4.88,0,0,1-1,.57,4.79,4.79,0,0,1-1.07.35,6.13,6.13,0,0,1-1.26.12,4.06,4.06,0,0,1-1.32-.2,2.82,2.82,0,0,1-1.06-.59,2.68,2.68,0,0,1-.73-1,3.65,3.65,0,0,1-.26-1.43,2.67,2.67,0,0,1,.39-1.38,3.48,3.48,0,0,1,1.27-1.18,8.31,8.31,0,0,1,2.3-.84,15.52,15.52,0,0,1,3.47-.33v-.95a3.29,3.29,0,0,0-.6-2.14,2.19,2.19,0,0,0-1.79-.73,3.74,3.74,0,0,0-1.3.2,4.93,4.93,0,0,0-.92.44c-.26.16-.48.31-.67.44a1,1,0,0,1-.56.2.61.61,0,0,1-.37-.12.87.87,0,0,1-.26-.28l-.38-.68a7,7,0,0,1,2.16-1.44,6.63,6.63,0,0,1,2.56-.48,4.5,4.5,0,0,1,1.81.34,3.68,3.68,0,0,1,1.32.93,3.83,3.83,0,0,1,.81,1.44,6.15,6.15,0,0,1,.27,1.86Zm-5.51-1.3a4.65,4.65,0,0,0,1-.11,5.12,5.12,0,0,0,.88-.32,4.74,4.74,0,0,0,.78-.51,7.73,7.73,0,0,0,.74-.68v-2.49a14.82,14.82,0,0,0-2.5.18,7.3,7.3,0,0,0-1.67.49,2.2,2.2,0,0,0-.93.71,1.48,1.48,0,0,0-.29.91,2.12,2.12,0,0,0,.15.83,1.41,1.41,0,0,0,.42.56,1.61,1.61,0,0,0,.62.33A2.76,2.76,0,0,0,214.71,135.68Z"/><path d="M225.35,137V124.9h1.27a.53.53,0,0,1,.57.44l.17,1.31a6.75,6.75,0,0,1,1.76-1.41,4.67,4.67,0,0,1,2.25-.53,4.29,4.29,0,0,1,1.74.33,3.28,3.28,0,0,1,1.27.92,4.28,4.28,0,0,1,.77,1.45,6.52,6.52,0,0,1,.26,1.88V137h-2.12v-7.69a3.22,3.22,0,0,0-.63-2.13,2.33,2.33,0,0,0-1.91-.76,3.57,3.57,0,0,0-1.76.45,6,6,0,0,0-1.51,1.23V137Z"/><path d="M243.37,121.1a1.41,1.41,0,0,1-.13.58,1.58,1.58,0,0,1-.33.48,1.51,1.51,0,0,1-.49.33,1.46,1.46,0,0,1-1.16,0,1.58,1.58,0,0,1-.48-.33,1.55,1.55,0,0,1-.32-.48,1.4,1.4,0,0,1-.12-.58,1.52,1.52,0,0,1,.12-.59,1.6,1.6,0,0,1,.32-.49,1.75,1.75,0,0,1,.48-.32,1.46,1.46,0,0,1,1.16,0,1.66,1.66,0,0,1,.49.32,1.63,1.63,0,0,1,.33.49A1.53,1.53,0,0,1,243.37,121.1Zm-.48,3.8V137h-2.12V124.9Z"/><path d="M248.54,137V124.9h1.27a.53.53,0,0,1,.57.44l.16,1.24a6.11,6.11,0,0,1,1.49-1.35,3.53,3.53,0,0,1,1.93-.52,2.85,2.85,0,0,1,2,.68,3.89,3.89,0,0,1,1.09,1.83,3.62,3.62,0,0,1,.66-1.13,3.82,3.82,0,0,1,.92-.79,4.32,4.32,0,0,1,1.09-.45,4.7,4.7,0,0,1,1.18-.14,4.52,4.52,0,0,1,1.7.3,3.25,3.25,0,0,1,1.26.89,4,4,0,0,1,.8,1.44,6.47,6.47,0,0,1,.27,1.95V137H262.8v-7.69a3.29,3.29,0,0,0-.62-2.16,2.27,2.27,0,0,0-1.8-.73,2.58,2.58,0,0,0-1,.19,2.38,2.38,0,0,0-.83.54,2.57,2.57,0,0,0-.57.9,3.7,3.7,0,0,0-.2,1.26V137h-2.13v-7.69a3.37,3.37,0,0,0-.58-2.17,2.07,2.07,0,0,0-1.71-.72,2.72,2.72,0,0,0-1.46.42,4.79,4.79,0,0,0-1.23,1.16v9Z"/><path d="M274.82,124.71a5.48,5.48,0,0,1,2,.36,4.38,4.38,0,0,1,1.58,1.05,4.75,4.75,0,0,1,1,1.69,6.61,6.61,0,0,1,.37,2.3,1.3,1.3,0,0,1-.11.67.44.44,0,0,1-.4.17h-8a6.87,6.87,0,0,0,.31,2,4,4,0,0,0,.79,1.41,3.14,3.14,0,0,0,1.19.85,4.24,4.24,0,0,0,1.55.28,4.38,4.38,0,0,0,1.38-.19,5.5,5.5,0,0,0,1-.4,5.26,5.26,0,0,0,.7-.4,1,1,0,0,1,.49-.18.47.47,0,0,1,.4.2l.6.78a4.23,4.23,0,0,1-.95.83,6.38,6.38,0,0,1-1.17.58,8.16,8.16,0,0,1-1.29.34,8.62,8.62,0,0,1-1.33.11,6,6,0,0,1-2.31-.43,5,5,0,0,1-1.82-1.24,5.68,5.68,0,0,1-1.2-2,8.08,8.08,0,0,1-.43-2.76,7,7,0,0,1,.39-2.37,5.7,5.7,0,0,1,1.11-1.9,5.06,5.06,0,0,1,1.78-1.26A5.78,5.78,0,0,1,274.82,124.71Zm.05,1.56a3.26,3.26,0,0,0-2.42.89,4.14,4.14,0,0,0-1.1,2.46h6.57a4.16,4.16,0,0,0-.2-1.35,2.77,2.77,0,0,0-.6-1.06,2.71,2.71,0,0,0-1-.7A3.26,3.26,0,0,0,274.87,126.27Zm3.46-6.57-2.78,3.07a1.07,1.07,0,0,1-.33.26,1,1,0,0,1-.41.08h-1.26l1.76-2.89a1.2,1.2,0,0,1,.37-.4,1.1,1.1,0,0,1,.57-.12Z"/><path d="M291.37,126.89a.49.49,0,0,1-.44.26.81.81,0,0,1-.41-.13c-.15-.09-.34-.18-.55-.29a4.69,4.69,0,0,0-.79-.3,3.75,3.75,0,0,0-1.07-.14,3.24,3.24,0,0,0-1,.14,2.3,2.3,0,0,0-.73.38,1.59,1.59,0,0,0-.46.55,1.47,1.47,0,0,0-.17.69,1.11,1.11,0,0,0,.27.77,2.34,2.34,0,0,0,.71.54,7.18,7.18,0,0,0,1,.4c.38.11.76.24,1.16.37s.77.28,1.15.43a4.35,4.35,0,0,1,1,.6,2.78,2.78,0,0,1,.71.88,2.64,2.64,0,0,1,.27,1.24,3.93,3.93,0,0,1-.3,1.55,3.44,3.44,0,0,1-.88,1.23,4.19,4.19,0,0,1-1.44.81,5.79,5.79,0,0,1-1.95.3,6,6,0,0,1-2.29-.41,5.72,5.72,0,0,1-1.74-1l.5-.82a.7.7,0,0,1,.22-.23.63.63,0,0,1,.35-.09.82.82,0,0,1,.45.17l.58.37a4.87,4.87,0,0,0,.82.37,3.86,3.86,0,0,0,1.22.17,3.22,3.22,0,0,0,1.08-.17,2.25,2.25,0,0,0,.78-.43,1.77,1.77,0,0,0,.46-.63,2,2,0,0,0,.15-.77,1.27,1.27,0,0,0-.27-.83,2.55,2.55,0,0,0-.71-.56,5.9,5.9,0,0,0-1-.4l-1.16-.37c-.39-.12-.78-.27-1.16-.43a3.91,3.91,0,0,1-1-.62,2.67,2.67,0,0,1-.71-.91,2.93,2.93,0,0,1-.27-1.32,3.1,3.1,0,0,1,.29-1.33,3.21,3.21,0,0,1,.83-1.12,4.11,4.11,0,0,1,1.35-.77,5.39,5.39,0,0,1,1.82-.28,5.75,5.75,0,0,1,2.14.37,5.08,5.08,0,0,1,1.64,1Z"/><path d="M303.22,141.07V124.9h1.27a.53.53,0,0,1,.57.44l.18,1.43a6.47,6.47,0,0,1,1.77-1.51,4.74,4.74,0,0,1,4.18-.18,3.92,3.92,0,0,1,1.45,1.18,5.72,5.72,0,0,1,.91,1.94,9.73,9.73,0,0,1,.33,2.66,8.33,8.33,0,0,1-.36,2.49,6,6,0,0,1-1,2,4.7,4.7,0,0,1-1.64,1.32,4.77,4.77,0,0,1-2.19.49,4.46,4.46,0,0,1-1.91-.37,4.33,4.33,0,0,1-1.4-1.05v5.34Zm5.38-14.67a3.43,3.43,0,0,0-1.82.48,5.18,5.18,0,0,0-1.43,1.35v5.84a3.29,3.29,0,0,0,1.28,1.11,3.72,3.72,0,0,0,1.56.32,3,3,0,0,0,2.58-1.2,5.61,5.61,0,0,0,.91-3.44,8.56,8.56,0,0,0-.21-2,4.14,4.14,0,0,0-.6-1.39,2.32,2.32,0,0,0-1-.79A3.14,3.14,0,0,0,308.6,126.4Z"/><path d="M327.18,137h-.95a1.21,1.21,0,0,1-.5-.09.56.56,0,0,1-.25-.41l-.24-1.12a10.52,10.52,0,0,1-.93.77,4.88,4.88,0,0,1-.95.57,4.63,4.63,0,0,1-1.07.35,6.13,6.13,0,0,1-1.26.12,4,4,0,0,1-1.31-.2,2.86,2.86,0,0,1-1.07-.59,2.65,2.65,0,0,1-.72-1,3.48,3.48,0,0,1-.27-1.43,2.67,2.67,0,0,1,.39-1.38,3.48,3.48,0,0,1,1.27-1.18,8.44,8.44,0,0,1,2.3-.84,15.52,15.52,0,0,1,3.47-.33v-.95a3.29,3.29,0,0,0-.6-2.14,2.19,2.19,0,0,0-1.79-.73,3.78,3.78,0,0,0-1.3.2,4.93,4.93,0,0,0-.92.44c-.26.16-.48.31-.67.44a1,1,0,0,1-.55.2.62.62,0,0,1-.38-.12.87.87,0,0,1-.26-.28l-.38-.68a7,7,0,0,1,2.16-1.44,6.65,6.65,0,0,1,2.57-.48,4.48,4.48,0,0,1,1.8.34,3.68,3.68,0,0,1,1.32.93,3.83,3.83,0,0,1,.81,1.44,6.15,6.15,0,0,1,.28,1.86Zm-5.51-1.3a4.62,4.62,0,0,0,1-.11,5.12,5.12,0,0,0,.88-.32,5.29,5.29,0,0,0,.79-.51,7.65,7.65,0,0,0,.73-.68v-2.49a14.62,14.62,0,0,0-2.49.18,7.15,7.15,0,0,0-1.67.49,2.24,2.24,0,0,0-.94.71,1.48,1.48,0,0,0-.29.91,2.12,2.12,0,0,0,.15.83,1.5,1.5,0,0,0,.42.56,1.61,1.61,0,0,0,.62.33A2.78,2.78,0,0,0,321.67,135.68Z"/><path d="M332.31,137V124.9h1.21a.67.67,0,0,1,.48.13.79.79,0,0,1,.18.45l.14,1.89a5.71,5.71,0,0,1,1.53-2,3.43,3.43,0,0,1,2.15-.71,3.16,3.16,0,0,1,.9.12,3.12,3.12,0,0,1,.75.31l-.27,1.59a.36.36,0,0,1-.37.3,1.76,1.76,0,0,1-.51-.12,3.49,3.49,0,0,0-1-.11,2.75,2.75,0,0,0-1.85.64,4.79,4.79,0,0,0-1.25,1.88V137Z"/><path d="M352.7,119.41V137h-2.12V119.41Z"/><path d="M367.23,137h-.94a1.18,1.18,0,0,1-.5-.09.54.54,0,0,1-.25-.41l-.24-1.12c-.32.29-.63.54-.93.77a4.88,4.88,0,0,1-.95.57,4.79,4.79,0,0,1-1.07.35,6.13,6.13,0,0,1-1.26.12,4.06,4.06,0,0,1-1.32-.2,2.94,2.94,0,0,1-1.07-.59,2.77,2.77,0,0,1-.72-1,3.48,3.48,0,0,1-.27-1.43,2.69,2.69,0,0,1,.4-1.38,3.4,3.4,0,0,1,1.27-1.18,8.36,8.36,0,0,1,2.29-.84,15.68,15.68,0,0,1,3.48-.33v-.95a3.29,3.29,0,0,0-.61-2.14,2.16,2.16,0,0,0-1.78-.73,3.84,3.84,0,0,0-1.31.2,4.83,4.83,0,0,0-.91.44c-.26.16-.49.31-.67.44a1,1,0,0,1-.56.2.59.59,0,0,1-.37-.12.77.77,0,0,1-.26-.28l-.38-.68a7,7,0,0,1,2.16-1.44,6.6,6.6,0,0,1,2.56-.48,4.41,4.41,0,0,1,1.8.34,3.63,3.63,0,0,1,1.33.93,3.83,3.83,0,0,1,.81,1.44,6.15,6.15,0,0,1,.27,1.86Zm-5.51-1.3a4.65,4.65,0,0,0,1-.11,5.12,5.12,0,0,0,.88-.32,4.74,4.74,0,0,0,.78-.51,7.73,7.73,0,0,0,.74-.68v-2.49a14.82,14.82,0,0,0-2.5.18,7.3,7.3,0,0,0-1.67.49,2.2,2.2,0,0,0-.93.71,1.48,1.48,0,0,0-.3.91,2.12,2.12,0,0,0,.16.83,1.41,1.41,0,0,0,.42.56,1.61,1.61,0,0,0,.62.33A2.71,2.71,0,0,0,361.72,135.68Z"/><path d="M378.88,141.07V124.9h1.26a.53.53,0,0,1,.57.44l.18,1.43a6.47,6.47,0,0,1,1.77-1.51,4.74,4.74,0,0,1,4.18-.18,3.92,3.92,0,0,1,1.45,1.18,5.93,5.93,0,0,1,.92,1.94,10.15,10.15,0,0,1,.32,2.66,8.33,8.33,0,0,1-.36,2.49,6,6,0,0,1-1,2,4.79,4.79,0,0,1-3.83,1.81,4.46,4.46,0,0,1-1.91-.37,4.33,4.33,0,0,1-1.4-1.05v5.34Zm5.38-14.67a3.39,3.39,0,0,0-1.82.48,5.35,5.35,0,0,0-1.44,1.35v5.84a3.37,3.37,0,0,0,1.28,1.11,3.75,3.75,0,0,0,1.56.32,3.06,3.06,0,0,0,2.59-1.2,5.68,5.68,0,0,0,.9-3.44,8.56,8.56,0,0,0-.21-2,4.14,4.14,0,0,0-.6-1.39,2.35,2.35,0,0,0-1-.79A3.21,3.21,0,0,0,384.26,126.4Z"/><path d="M402.83,137h-.94a1.15,1.15,0,0,1-.5-.09.54.54,0,0,1-.26-.41l-.23-1.12c-.32.29-.63.54-.93.77a5,5,0,0,1-1,.57,4.63,4.63,0,0,1-1.07.35,6,6,0,0,1-1.26.12,4,4,0,0,1-1.31-.2,2.86,2.86,0,0,1-1.07-.59,2.77,2.77,0,0,1-.72-1,3.48,3.48,0,0,1-.27-1.43,2.67,2.67,0,0,1,.39-1.38,3.56,3.56,0,0,1,1.27-1.18,8.44,8.44,0,0,1,2.3-.84,15.59,15.59,0,0,1,3.47-.33v-.95a3.29,3.29,0,0,0-.6-2.14,2.18,2.18,0,0,0-1.79-.73,3.78,3.78,0,0,0-1.3.2,4.93,4.93,0,0,0-.92.44c-.26.16-.48.31-.67.44a1,1,0,0,1-.55.2.62.62,0,0,1-.38-.12.87.87,0,0,1-.26-.28l-.38-.68a7,7,0,0,1,2.16-1.44,6.65,6.65,0,0,1,2.57-.48,4.48,4.48,0,0,1,1.8.34,3.59,3.59,0,0,1,1.32.93,3.83,3.83,0,0,1,.81,1.44,5.85,5.85,0,0,1,.28,1.86Zm-5.51-1.3a4.62,4.62,0,0,0,1-.11,4.19,4.19,0,0,0,1.67-.83,7.65,7.65,0,0,0,.73-.68v-2.49a14.62,14.62,0,0,0-2.49.18,7.15,7.15,0,0,0-1.67.49,2.31,2.31,0,0,0-.94.71,1.54,1.54,0,0,0-.29.91,2.12,2.12,0,0,0,.15.83,1.62,1.62,0,0,0,.42.56,1.68,1.68,0,0,0,.62.33A2.78,2.78,0,0,0,397.32,135.68Z"/><path d="M414.88,126.89a.49.49,0,0,1-.45.26.81.81,0,0,1-.4-.13c-.15-.09-.34-.18-.56-.29a4.25,4.25,0,0,0-.78-.3,3.75,3.75,0,0,0-1.07-.14,3.24,3.24,0,0,0-1,.14,2.3,2.3,0,0,0-.73.38,1.75,1.75,0,0,0-.47.55,1.59,1.59,0,0,0-.16.69,1.11,1.11,0,0,0,.27.77,2.34,2.34,0,0,0,.71.54,7.18,7.18,0,0,0,1,.4c.38.11.76.24,1.16.37s.77.28,1.15.43a4.35,4.35,0,0,1,1,.6,2.78,2.78,0,0,1,.71.88,2.64,2.64,0,0,1,.27,1.24,3.93,3.93,0,0,1-.3,1.55,3.57,3.57,0,0,1-.88,1.23,4.19,4.19,0,0,1-1.44.81,5.79,5.79,0,0,1-1.95.3,6,6,0,0,1-2.29-.41,5.72,5.72,0,0,1-1.74-1l.5-.82a.7.7,0,0,1,.22-.23.63.63,0,0,1,.35-.09.82.82,0,0,1,.45.17l.58.37a4.87,4.87,0,0,0,.82.37,3.86,3.86,0,0,0,1.22.17,3.22,3.22,0,0,0,1.08-.17,2.25,2.25,0,0,0,.78-.43,1.77,1.77,0,0,0,.46-.63,2.19,2.19,0,0,0,.14-.77,1.33,1.33,0,0,0-.26-.83,2.55,2.55,0,0,0-.71-.56,5.9,5.9,0,0,0-1-.4l-1.16-.37c-.39-.12-.78-.27-1.16-.43a3.91,3.91,0,0,1-1-.62,2.55,2.55,0,0,1-.71-.91,2.93,2.93,0,0,1-.27-1.32,3.19,3.19,0,0,1,1.12-2.45,4,4,0,0,1,1.35-.77,5.39,5.39,0,0,1,1.82-.28,5.75,5.75,0,0,1,2.14.37,5.08,5.08,0,0,1,1.64,1Z"/><path d="M427.14,126.89a.48.48,0,0,1-.44.26.81.81,0,0,1-.41-.13c-.15-.09-.33-.18-.55-.29a4.9,4.9,0,0,0-.78-.3,3.83,3.83,0,0,0-1.08-.14,3.13,3.13,0,0,0-1,.14,2.35,2.35,0,0,0-.74.38,1.59,1.59,0,0,0-.46.55,1.46,1.46,0,0,0-.16.69,1.16,1.16,0,0,0,.26.77,2.34,2.34,0,0,0,.71.54,6.86,6.86,0,0,0,1,.4l1.15.37c.39.13.78.28,1.15.43a4.15,4.15,0,0,1,1,.6,2.61,2.61,0,0,1,1,2.12,3.93,3.93,0,0,1-.3,1.55,3.44,3.44,0,0,1-.88,1.23,4.24,4.24,0,0,1-1.43.81,5.89,5.89,0,0,1-2,.3,6,6,0,0,1-4-1.46l.5-.82a.63.63,0,0,1,.23-.23.57.57,0,0,1,.34-.09.84.84,0,0,1,.46.17c.15.11.35.23.57.37a4.66,4.66,0,0,0,.83.37,3.75,3.75,0,0,0,1.21.17,3.22,3.22,0,0,0,1.08-.17,2.25,2.25,0,0,0,.78-.43,1.66,1.66,0,0,0,.46-.63,2,2,0,0,0,.15-.77,1.27,1.27,0,0,0-.27-.83,2.55,2.55,0,0,0-.71-.56,5.9,5.9,0,0,0-1-.4l-1.16-.37a11.31,11.31,0,0,1-1.15-.43,3.8,3.8,0,0,1-1-.62,2.67,2.67,0,0,1-.71-.91,2.93,2.93,0,0,1-.27-1.32,3.25,3.25,0,0,1,.29-1.33,3.34,3.34,0,0,1,.83-1.12A4.22,4.22,0,0,1,422,125a5.39,5.39,0,0,1,1.82-.28,5.84,5.84,0,0,1,2.15.37,5.31,5.31,0,0,1,1.64,1Z"/><path d="M435.32,121.1a1.4,1.4,0,0,1-.12.58,1.82,1.82,0,0,1-.34.48,1.58,1.58,0,0,1-.48.33,1.45,1.45,0,0,1-.59.12,1.35,1.35,0,0,1-.57-.12,1.6,1.6,0,0,1-.81-.81,1.4,1.4,0,0,1-.12-.58,1.52,1.52,0,0,1,.12-.59,1.63,1.63,0,0,1,.33-.49,1.75,1.75,0,0,1,.48-.32,1.35,1.35,0,0,1,.57-.12,1.45,1.45,0,0,1,.59.12,1.75,1.75,0,0,1,.48.32,1.87,1.87,0,0,1,.34.49A1.52,1.52,0,0,1,435.32,121.1Zm-.48,3.8V137h-2.12V124.9Z"/><path d="M445.39,124.71a6.1,6.1,0,0,1,2.39.44,4.94,4.94,0,0,1,1.81,1.25,5.61,5.61,0,0,1,1.15,2,8.49,8.49,0,0,1,0,5.15,5.61,5.61,0,0,1-1.15,2,4.91,4.91,0,0,1-1.81,1.24,6.71,6.71,0,0,1-4.78,0,5,5,0,0,1-1.82-1.24,5.63,5.63,0,0,1-1.16-2,8.49,8.49,0,0,1,0-5.15,5.63,5.63,0,0,1,1.16-2,5.06,5.06,0,0,1,1.82-1.25A6.1,6.1,0,0,1,445.39,124.71Zm0,10.78a3.1,3.1,0,0,0,2.67-1.2,5.53,5.53,0,0,0,.88-3.34,5.6,5.6,0,0,0-.88-3.37,3.1,3.1,0,0,0-2.67-1.2,3.68,3.68,0,0,0-1.58.31,2.91,2.91,0,0,0-1.11.89A4,4,0,0,0,442,129a8.53,8.53,0,0,0,0,3.85,3.9,3.9,0,0,0,.67,1.42,3,3,0,0,0,1.11.89A3.68,3.68,0,0,0,445.39,135.49Z"/><path d="M455.67,137V124.9h1.27a.53.53,0,0,1,.57.44l.17,1.31a6.87,6.87,0,0,1,1.75-1.41,4.67,4.67,0,0,1,2.25-.53,4.34,4.34,0,0,1,1.75.33,3.28,3.28,0,0,1,1.27.92,4.46,4.46,0,0,1,.77,1.45,6.52,6.52,0,0,1,.26,1.88V137H463.6v-7.69a3.22,3.22,0,0,0-.62-2.13,2.34,2.34,0,0,0-1.92-.76,3.6,3.6,0,0,0-1.76.45,6.14,6.14,0,0,0-1.5,1.23V137Z"/><path d="M471.94,134.19v-1.53a.59.59,0,0,1,.1-.34.72.72,0,0,1,.33-.28l5.36-2.71c.16-.07.32-.15.49-.21a4.12,4.12,0,0,1,.56-.16,4.12,4.12,0,0,1-.56-.16,2.38,2.38,0,0,1-.49-.22l-5.36-2.72a.76.76,0,0,1-.33-.26.61.61,0,0,1-.1-.36v-1.51l9.22,4.78v.88Z"/><path d="M202.45,82.06c-2.61,3.47-4.83,6.17-4.83,7,0,1.64,3.28,1.64,5.21,1.64,10.9,0,20.64-1.06,28.65-9.07.68-.77,1.16-1.25,1.45-1.25s.29.19.29.39a12.24,12.24,0,0,1-.68,2.5L229,93.15H181.42L214.31,50.9c1.26-1.64,2.31-3,2.31-3.76,0-1.74-3-1.74-6.17-1.74-11.48,0-17.94.78-25.56,9.75-.19.19-.48.58-.77.58s-.19-.29-.19-.39a6.94,6.94,0,0,1,.38-1.54l4-10.81h42.92Z"/><path d="M280.1,59.49c0-9.45-4.54-16.11-14.57-16.11-8.78,0-13.5,7.81-14.57,16.11Zm-29.52,1.83c-.19,2.22-.29,4.24-.29,6.27,0,17.94,9.26,24.6,18.62,24.6,11.09,0,19.29-7.62,22.57-18.91h2c-3.08,13.31-12.73,21.32-25.85,21.32-16.4,0-28.55-11.09-28.55-26.53s12.15-26.52,28.55-26.52c10.52,0,23.25,6.36,24.6,19.77Z"/><path d="M312.7,56.5h.19c2.22-8.2,6.95-15,19.68-15,10.61,0,20.55,5.51,20.55,20.84V81c-.2,9.16,1.06,10.52,3.85,11.48.68.19,1.26.48,1.26.67s-.48.29-1.45.29-3.37-.29-8.68-.29-8.68.29-9.93.29c-.58,0-1.07,0-1.07-.29s.2-.48.87-.58c3.48-.38,5.21-3,5.21-11.57V62.28C343.18,53.41,339.23,44,329,44c-11.48,0-15.24,11.77-15.24,25.27V81c0,6.08.29,10.61,4.63,11.38.68.1,1.06.29,1.06.58s-.29.48-.87.48-4.63-.29-9.84-.29-9.64.29-10.32.29-.86-.09-.86-.48.38-.48,1.06-.58c4.82-.77,5.21-5.3,5.21-11.38V57.08c0-5.79-.68-9.07-3.38-10.23-1.06-.48-1.74-.77-1.74-1s.68-.29,1.84-.49a84.07,84.07,0,0,0,12.15-2.79Z"/><path d="M366.14,30.65a5.74,5.74,0,1,1,11.48,0,5.74,5.74,0,0,1-11.48,0m1.54,22.28c0-4.82-1.83-5.4-3.38-6.27-.57-.29-1.64-.29-1.64-.58s1.07-.29,1.74-.39c4.53-.86,8.59-1.83,13.22-3.08V81c0,6.07.57,10.42,5,11.29.58.09,1,.28,1,.86,0,.29-.48.29-1.35.29s-4.44-.29-9.65-.29-8.68.29-9.64.29-1.36,0-1.36-.29c0-.58.39-.77,1-.86,4.44-.87,5.11-5.22,5.11-11.29Z"/><path d="M418.52,77.91c-2-3.37-6.27-11.86-11.48-11.86-3.38,0-3.38,3.85-3.38,8v7c0,6.08.48,9.74,5.21,11.38.49.1.87.29.87.58s-.49.48-1.06.48-4.73-.29-10-.29-9.06.29-9.64.29-1-.19-1-.48.28-.39.67-.58c4.63-1.45,5-7.14,5-15.24V38.84c0-5.69-.39-10.12-3.57-10.6-1.06-.2-1.65-.49-1.65-.87s.87-.48,1.84-.78c4.63-1.15,8.68-2.12,13.31-3.37V64.89l16.2-13.51c2.23-1.83,3.57-3.37,3.57-5,0-1.35-1.15-2.13-1.64-2.61-.38-.28-1-.28-1-.77s.58-.38,1.35-.38,4.24.38,9.26.38c4.73,0,5.88-.38,9-.38.87,0,1.35,0,1.35.58s-1.64.57-3.18,1c-5.5,1.35-11.09,4.73-15.63,8.2l-14.27,10.8v.2c13.11.29,16,5.3,22.67,15.91,3.28,5.21,7.33,10.61,12.53,13,.49.19,1,.38,1,.67s-.48.48-1.06.48-4.83-.29-9.65-.29c-2.21,0-4.44.29-6.36.29Z"/><path d="M484.5,64.22h-5.7c-10.41,0-21.12,3.08-21.12,15.81,0,7,5.11,12.16,12,12.16,11.38,0,14.86-12,14.86-21.22Zm9.93,20.54c0,3.18.48,6.08,3.47,7.43.58.29,1,.29,1,.58s-.58.38-1.26.38H487.19a28.65,28.65,0,0,1-2.31-9.84h-.19c-3.76,7.82-9.36,11.29-17.84,11.29-10,0-20.36-4.63-20.36-16.11,0-14.66,22.38-16.11,32.51-16.11h5.5V59.2c0-9.26-4.35-15.82-14.09-15.82-8.87,0-14.08,2.6-17.55,11.09-.39.87-.58,1.64-.78,1.64s-.29-.48-.48-1.06l-2.51-8.68c7.91-4.15,14.18-4.82,22.77-4.82,11,0,22.57,4,22.57,16.1Z"/><ellipse class="cls-1" cx="81.01" cy="79" rx="69.43" ry="65.76"/><path class="cls-2" d="M79,0a79,79,0,1,0,79,79A79,79,0,0,0,79,0Zm47.42,104c-.08.28-.08.72-.26.82a23.63,23.63,0,0,1-2.17,1c-1.69.76-3.32,1.44-5.26.55a10.5,10.5,0,0,0-3.12-.34c.33,2.09.69,4,.93,6,.46,3.79.93,7.58,1.24,11.38a9.65,9.65,0,0,1-.48,3.64c-1.18,3.76-4.53,5.36-8.39,3.95a16.34,16.34,0,0,1-3.91-2.18c-2.52-1.84-5-3.8-7.41-5.73a6.16,6.16,0,0,1-.75-.85l-.34-.3c-.62-.36-1.27-.69-1.87-1.09-8.57-5.72-17-11.59-26.12-16.47a104.31,104.31,0,0,0-17.93-7.68A11.57,11.57,0,0,0,48,96.18a1.65,1.65,0,0,0-2,1.75,49.13,49.13,0,0,0,.59,11.86c.91,5.15,3.22,9.7,5.8,14.14.27.45.82.77,1,1.24a3.14,3.14,0,0,1,.36,2,2,2,0,0,1-1.64.92c-6.25-.18-10.75-3-11.88-10-1.11-6.9-1.91-13.84-1.21-20.85.12-1.26.31-2.52.53-3.78a7.78,7.78,0,0,1,5.57-6.3q10.35-3.65,20.61-7.51c12.68-4.79,25.33-9.68,38-14.53.35-.13.69-.3,1-.45v-.32c-2.34-.28-4.67-.71-7-.8-11.81-.45-23.61-.24-35.4.48-4.46.27-8.92.69-13.36,1.18a57.1,57.1,0,0,0-6.31,1.22c-1.08.24-2.12.41-2.84-.59s-.35-2,.24-2.91a8.16,8.16,0,0,1,7.3-4.1c6,0,11.89,0,17.83,0,4.66,0,9.31,0,14,0,1.64,0,3.27.21,4.91.32l.12-.33L72.74,51.51,73,51l3.06,1.39C73,49.23,51.75,39.08,45.38,37.76l1.42.89,0,.24a6.71,6.71,0,0,1-1.35-.12c-3-.79-6.05-1.56-9-2.46C35.8,36.13,35,35.4,35,34.94a2.28,2.28,0,0,1,1.23-1.68c5-1.65,10-2.69,15.23-.6a121.05,121.05,0,0,1,20,10.87c2.14,1.37,4.23,2.84,6.37,4.2a1.58,1.58,0,0,0,1.31.16c8.87-4.67,17.9-9,26.33-14.51,1.91-1.23,3.79-2.51,5.62-3.86a6.83,6.83,0,0,0,1.6-1.86,2.21,2.21,0,0,1,2.54-1.09,9,9,0,0,1,5.8,4.95c.57,1.13-.25,3-1.65,3.78-4.1,2.38-8.19,4.78-12.3,7.12-6.9,3.94-13.81,7.84-20.8,11.81,2,1.43,4.12,2.92,6.24,4.38a2.11,2.11,0,0,0,1,.16,75.36,75.36,0,0,1,18.05,2.54,11.43,11.43,0,0,1,2.23.93c2.21,1.19,2.39,3.33.32,4.77a24.06,24.06,0,0,1-4.21,2.4q-6.94,3-14,5.86Q78.22,82.41,60.51,89.49c-.56.22-1.1.48-1.56.68l49.28,6.64c0-.87.06-1.89,0-2.89-.13-1.81-.36-3.61-.54-5.41a1.6,1.6,0,0,1,1.06-1.85c.85-.28,1.86-.27,2.26.62.75,1.7,1.29,3.5,1.91,5.25l-.34.12-1.41-4.27-.19.06,1.89,7.46c.11.41.19.83.28,1.24a1.77,1.77,0,0,0,2.08,1.51,9.1,9.1,0,0,1,2.71.08,48.18,48.18,0,0,1,5.56,1.55,13.73,13.73,0,0,1,3,1.66C127.38,102.58,127.09,103.32,126.42,104Z"/><path class="cls-2" d="M108.6,105.15c-.07-.77.3-1.88-1-2.23-1.87-.52-3.7-1.18-5.58-1.62-3-.69-6-1.23-8.94-1.87-.81-.18-1.6-.46-2.4-.69a14.13,14.13,0,0,0-2.14-.64c-1.13-.16-2.29-.09-3.42-.25-5.2-.73-10.38-1.51-15.58-2.25-1.15-.17-2.31-.26-3.47-.39,0,.06,0,.12,0,.18l7.65,4.54-1.11.56,4.53,2.86c.11-1.31.78-.86,1.33-.5,5.83,3.77,11.67,7.54,17.45,11.38a51.66,51.66,0,0,1,4.26,3.44c1.94,1.63,3.86,3.27,5.78,4.91.56.48,1.09.55,1.25-.28.54-2.81,1.13-5.62,1.45-8.45a43,43,0,0,0-.17-5.19C108.45,107.49,108.72,106.3,108.6,105.15Z"/></svg>